<svg width="370" height="12" viewBox="0 0 370 12" fill="none" xmlns="http://www.w3.org/2000/svg">
<path d="M370 5.99997L360 0.226466L360 11.7735L370 5.99997ZM8.74228e-08 7L2.01087 7L2.01087 5L-8.74228e-08 5L8.74228e-08 7ZM6.03261 7L10.0543 7L10.0543 5L6.03261 5L6.03261 7ZM14.0761 7L18.0978 7L18.0978 5L14.0761 5L14.0761 7ZM22.1196 7L26.1413 7L26.1413 5L22.1196 5L22.1196 7ZM30.163 7L34.1848 7L34.1848 5L30.163 5L30.163 7ZM38.2065 7L42.2283 7L42.2283 5L38.2065 5L38.2065 7ZM46.25 7L50.2717 7L50.2717 5L46.25 5L46.25 7ZM54.2935 7L58.3152 6.99999L58.3152 4.99999L54.2935 5L54.2935 7ZM62.337 6.99999L66.3587 6.99999L66.3587 4.99999L62.337 4.99999L62.337 6.99999ZM70.3804 6.99999L74.4022 6.99999L74.4022 4.99999L70.3804 4.99999L70.3804 6.99999ZM78.4239 6.99999L82.4456 6.99999L82.4456 4.99999L78.4239 4.99999L78.4239 6.99999ZM86.4674 6.99999L90.4891 6.99999L90.4891 4.99999L86.4674 4.99999L86.4674 6.99999ZM94.5109 6.99999L98.5326 6.99999L98.5326 4.99999L94.5109 4.99999L94.5109 6.99999ZM102.554 6.99999L106.576 6.99999L106.576 4.99999L102.554 4.99999L102.554 6.99999ZM110.598 6.99999L114.62 6.99999L114.62 4.99999L110.598 4.99999L110.598 6.99999ZM118.641 6.99999L122.663 6.99999L122.663 4.99999L118.641 4.99999L118.641 6.99999ZM126.685 6.99999L130.706 6.99999L130.706 4.99999L126.685 4.99999L126.685 6.99999ZM134.728 6.99999L138.75 6.99999L138.75 4.99999L134.728 4.99999L134.728 6.99999ZM142.772 6.99999L146.793 6.99999L146.793 4.99999L142.772 4.99999L142.772 6.99999ZM150.815 6.99999L154.837 6.99999L154.837 4.99999L150.815 4.99999L150.815 6.99999ZM158.859 6.99999L162.88 6.99999L162.88 4.99999L158.859 4.99999L158.859 6.99999ZM166.902 6.99999L170.924 6.99999L170.924 4.99999L166.902 4.99999L166.902 6.99999ZM174.946 6.99998L178.967 6.99998L178.967 4.99998L174.946 4.99998L174.946 6.99998ZM182.989 6.99998L187.011 6.99998L187.011 4.99998L182.989 4.99998L182.989 6.99998ZM191.033 6.99998L195.054 6.99998L195.054 4.99998L191.033 4.99998L191.033 6.99998ZM199.076 6.99998L203.098 6.99998L203.098 4.99998L199.076 4.99998L199.076 6.99998ZM207.12 6.99998L211.141 6.99998L211.141 4.99998L207.12 4.99998L207.12 6.99998ZM215.163 6.99998L219.185 6.99998L219.185 4.99998L215.163 4.99998L215.163 6.99998ZM223.207 6.99998L227.228 6.99998L227.228 4.99998L223.207 4.99998L223.207 6.99998ZM231.25 6.99998L235.272 6.99998L235.272 4.99998L231.25 4.99998L231.25 6.99998ZM239.294 6.99998L243.315 6.99998L243.315 4.99998L239.294 4.99998L239.294 6.99998ZM247.337 6.99998L251.359 6.99998L251.359 4.99998L247.337 4.99998L247.337 6.99998ZM255.381 6.99998L259.402 6.99998L259.402 4.99998L255.381 4.99998L255.381 6.99998ZM263.424 6.99998L267.446 6.99998L267.446 4.99998L263.424 4.99998L263.424 6.99998ZM271.467 6.99998L275.489 6.99998L275.489 4.99998L271.467 4.99998L271.467 6.99998ZM279.511 6.99998L283.533 6.99998L283.533 4.99998L279.511 4.99998L279.511 6.99998ZM287.554 6.99997L291.576 6.99997L291.576 4.99997L287.554 4.99997L287.554 6.99997ZM295.598 6.99997L299.62 6.99997L299.62 4.99997L295.598 4.99997L295.598 6.99997ZM303.641 6.99997L307.663 6.99997L307.663 4.99997L303.641 4.99997L303.641 6.99997ZM311.685 6.99997L315.706 6.99997L315.706 4.99997L311.685 4.99997L311.685 6.99997ZM319.728 6.99997L323.75 6.99997L323.75 4.99997L319.728 4.99997L319.728 6.99997ZM327.772 6.99997L331.793 6.99997L331.793 4.99997L327.772 4.99997L327.772 6.99997ZM335.815 6.99997L339.837 6.99997L339.837 4.99997L335.815 4.99997L335.815 6.99997ZM343.859 6.99997L347.88 6.99997L347.88 4.99997L343.859 4.99997L343.859 6.99997ZM351.902 6.99997L355.924 6.99997L355.924 4.99997L351.902 4.99997L351.902 6.99997ZM359.945 6.99997L363.967 6.99997L363.967 4.99997L359.945 4.99997L359.945 6.99997ZM370 5.99997L360 0.226466L360 11.7735L370 5.99997ZM8.74228e-08 7L2.01087 7L2.01087 5L-8.74228e-08 5L8.74228e-08 7ZM6.03261 7L10.0543 7L10.0543 5L6.03261 5L6.03261 7ZM14.0761 7L18.0978 7L18.0978 5L14.0761 5L14.0761 7ZM22.1196 7L26.1413 7L26.1413 5L22.1196 5L22.1196 7ZM30.163 7L34.1848 7L34.1848 5L30.163 5L30.163 7ZM38.2065 7L42.2283 7L42.2283 5L38.2065 5L38.2065 7ZM46.25 7L50.2717 7L50.2717 5L46.25 5L46.25 7ZM54.2935 7L58.3152 6.99999L58.3152 4.99999L54.2935 5L54.2935 7ZM62.337 6.99999L66.3587 6.99999L66.3587 4.99999L62.337 4.99999L62.337 6.99999ZM70.3804 6.99999L74.4022 6.99999L74.4022 4.99999L70.3804 4.99999L70.3804 6.99999ZM78.4239 6.99999L82.4456 6.99999L82.4456 4.99999L78.4239 4.99999L78.4239 6.99999ZM86.4674 6.99999L90.4891 6.99999L90.4891 4.99999L86.4674 4.99999L86.4674 6.99999ZM94.5109 6.99999L98.5326 6.99999L98.5326 4.99999L94.5109 4.99999L94.5109 6.99999ZM102.554 6.99999L106.576 6.99999L106.576 4.99999L102.554 4.99999L102.554 6.99999ZM110.598 6.99999L114.62 6.99999L114.62 4.99999L110.598 4.99999L110.598 6.99999ZM118.641 6.99999L122.663 6.99999L122.663 4.99999L118.641 4.99999L118.641 6.99999ZM126.685 6.99999L130.706 6.99999L130.706 4.99999L126.685 4.99999L126.685 6.99999ZM134.728 6.99999L138.75 6.99999L138.75 4.99999L134.728 4.99999L134.728 6.99999ZM142.772 6.99999L146.793 6.99999L146.793 4.99999L142.772 4.99999L142.772 6.99999ZM150.815 6.99999L154.837 6.99999L154.837 4.99999L150.815 4.99999L150.815 6.99999ZM158.859 6.99999L162.88 6.99999L162.88 4.99999L158.859 4.99999L158.859 6.99999ZM166.902 6.99999L170.924 6.99999L170.924 4.99999L166.902 4.99999L166.902 6.99999ZM174.946 6.99998L178.967 6.99998L178.967 4.99998L174.946 4.99998L174.946 6.99998ZM182.989 6.99998L187.011 6.99998L187.011 4.99998L182.989 4.99998L182.989 6.99998ZM191.033 6.99998L195.054 6.99998L195.054 4.99998L191.033 4.99998L191.033 6.99998ZM199.076 6.99998L203.098 6.99998L203.098 4.99998L199.076 4.99998L199.076 6.99998ZM207.12 6.99998L211.141 6.99998L211.141 4.99998L207.12 4.99998L207.12 6.99998ZM215.163 6.99998L219.185 6.99998L219.185 4.99998L215.163 4.99998L215.163 6.99998ZM223.207 6.99998L227.228 6.99998L227.228 4.99998L223.207 4.99998L223.207 6.99998ZM231.25 6.99998L235.272 6.99998L235.272 4.99998L231.25 4.99998L231.25 6.99998ZM239.294 6.99998L243.315 6.99998L243.315 4.99998L239.294 4.99998L239.294 6.99998ZM247.337 6.99998L251.359 6.99998L251.359 4.99998L247.337 4.99998L247.337 6.99998ZM255.381 6.99998L259.402 6.99998L259.402 4.99998L255.381 4.99998L255.381 6.99998ZM263.424 6.99998L267.446 6.99998L267.446 4.99998L263.424 4.99998L263.424 6.99998ZM271.467 6.99998L275.489 6.99998L275.489 4.99998L271.467 4.99998L271.467 6.99998ZM279.511 6.99998L283.533 6.99998L283.533 4.99998L279.511 4.99998L279.511 6.99998ZM287.554 6.99997L291.576 6.99997L291.576 4.99997L287.554 4.99997L287.554 6.99997ZM295.598 6.99997L299.62 6.99997L299.62 4.99997L295.598 4.99997L295.598 6.99997ZM303.641 6.99997L307.663 6.99997L307.663 4.99997L303.641 4.99997L303.641 6.99997ZM311.685 6.99997L315.706 6.99997L315.706 4.99997L311.685 4.99997L311.685 6.99997ZM319.728 6.99997L323.75 6.99997L323.75 4.99997L319.728 4.99997L319.728 6.99997ZM327.772 6.99997L331.793 6.99997L331.793 4.99997L327.772 4.99997L327.772 6.99997ZM335.815 6.99997L339.837 6.99997L339.837 4.99997L335.815 4.99997L335.815 6.99997ZM343.859 6.99997L347.88 6.99997L347.88 4.99997L343.859 4.99997L343.859 6.99997ZM351.902 6.99997L355.924 6.99997L355.924 4.99997L351.902 4.99997L351.902 6.99997ZM359.945 6.99997L363.967 6.99997L363.967 4.99997L359.945 4.99997L359.945 6.99997Z" fill="#E08178"/>
</svg>
