<svg width="351" height="400" viewBox="0 0 351 400" fill="none" xmlns="http://www.w3.org/2000/svg">
<g clip-path="url(#clip0_27_447)">
<path fill-rule="evenodd" clip-rule="evenodd" d="M176 323C142.863 323 116 349.863 116 383C116 416.137 142.863 443 176 443C209.137 443 236 416.137 236 383C236 349.863 209.137 323 176 323ZM160.966 368H191V398.034L210.286 416.714V348.714H142.289L160.966 368ZM161 371.139V398H187.859L168.629 417.286H141.714V390.367L161 371.139Z" fill="white"/>
</g>
<path fill-rule="evenodd" clip-rule="evenodd" d="M116 -22C78.4446 -22 48 8.44464 48 46C48 83.5554 78.4446 114 116 114C153.555 114 184 83.5554 184 46C184 8.44464 153.555 -22 116 -22ZM146.25 61.4943C146.714 60.416 147.154 59.2916 147.571 58.1137C145.656 57.3328 143.897 56.2131 142.379 54.8084C138.969 51.7363 137.235 47.8652 137.184 43.2144C137.131 37.2474 139.919 32.5967 145.558 29.2744C142.406 24.9224 137.67 22.5036 131.363 22.0081C129.034 21.8163 126.193 22.3044 122.827 23.4823C119.269 24.7524 117.168 25.3887 116.549 25.3887C115.718 25.3887 113.829 24.8447 110.885 23.7689C107.932 22.7003 105.557 22.1539 103.745 22.1539C100.502 22.1864 97.3224 23.0592 94.5169 24.6869C91.7008 26.2995 89.3486 28.6116 87.6877 31.3994C85.5141 34.9281 84.4286 39.1393 84.4286 44.0207C84.4286 48.2829 85.2324 52.6859 86.8401 57.2321C88.3386 61.4433 90.2523 65.1396 92.5813 68.321C94.7524 71.3009 96.5641 73.4064 98.0116 74.6353C100.282 76.6874 102.553 77.6613 104.836 77.5666C106.334 77.518 108.297 77.0177 110.73 76.0609C113.163 75.1064 115.437 74.6353 117.554 74.6353C119.575 74.6353 121.785 75.1064 124.189 76.0609C126.589 77.0177 128.646 77.4889 130.353 77.4889C132.733 77.4379 134.955 76.4883 137.027 74.6329C138.365 73.506 140.101 71.4757 142.216 68.5371C143.8 66.3348 145.152 63.9746 146.25 61.4943ZM131.781 6.17143C131.781 5.68814 131.757 5.2 131.708 4.71428C129.806 4.81143 127.781 5.37 125.639 6.38272C123.502 7.41 121.734 8.69957 120.345 10.249C117.562 13.309 115.995 17.0539 115.995 20.551C115.995 21.013 116.025 21.4745 116.083 21.9329C120.405 22.2729 124.391 20.1114 127.686 16.3666C130.414 13.2191 131.781 9.81429 131.781 6.17143Z" fill="white"/>
<path fill-rule="evenodd" clip-rule="evenodd" d="M276.5 97C250.819 97 230 117.819 230 143.5C230 169.181 250.819 190 276.5 190C302.181 190 323 169.181 323 143.5C323 117.819 302.181 97 276.5 97ZM245.994 158.27C247.388 159.4 249.17 160.008 251.347 160.096H251.345C253.768 160.195 256.762 159.622 260.107 158.425C261.416 157.957 262.16 157.649 264.941 156.435C282.512 148.768 316.36 133.991 316.357 133.987C316.357 133.984 304.435 137.218 289.867 141.172C275.299 145.126 263.181 148.409 262.937 148.467C259.385 149.301 256.477 149.22 254.489 148.226C253.355 147.658 252.345 146.632 251.757 145.448C250.903 143.726 250.82 141.507 251.511 138.921C251.943 137.311 252.734 135.449 253.659 133.868C253.765 133.685 253.851 133.536 253.846 133.536C253.836 133.536 252.277 135.291 251.754 135.892C248.196 139.971 246.159 142.915 244.838 145.886C243.296 149.354 242.89 152.516 243.678 154.924C243.945 155.727 244.352 156.476 244.882 157.136C245.224 157.541 245.596 157.92 245.994 158.27Z" fill="white"/>
<path fill-rule="evenodd" clip-rule="evenodd" d="M167 194C150.431 194 137 207.431 137 224C137 240.569 150.431 254 167 254C183.569 254 197 240.569 197 224C197 207.431 183.569 194 167 194ZM170.824 225.209C169.34 224.519 167.372 223.357 167.4 221.276C167.422 218.464 170.141 216.5 174.009 216.5C175.257 216.503 176.496 216.72 177.67 217.142L176.983 220.205C175.231 219.434 173.685 219.488 173.125 219.559C171.994 219.699 171.477 220.251 171.465 220.767C171.45 221.452 172.334 221.896 173.397 222.429C174.98 223.223 176.958 224.216 176.948 226.497C176.933 229.502 174.245 231.44 170.136 231.44C168.385 231.425 166.697 231.075 165.786 230.673L166.493 227.507C166.517 227.517 166.54 227.528 166.564 227.538C167.461 227.94 168.596 228.448 170.511 228.42C171.638 228.404 172.842 227.975 172.853 227.005C172.86 226.372 172.347 225.918 170.824 225.209ZM182.614 217.561C182.897 216.918 183.529 216.5 184.279 216.5H187.62L190.571 231.5H186.953L186.685 229.057H181.668L180.644 231.5H176.538L182.614 217.561ZM186.038 226.095L184.853 220.668L182.793 226.095H186.038ZM158.977 231.5L162.421 216.5H166.333L162.89 231.5H158.977ZM152.559 226.6L156.633 216.5H160.742L154.195 231.5H150.061L147.146 219.419C146.957 218.709 146.793 218.448 146.217 218.149C145.277 217.659 143.724 217.203 142.357 216.92L142.45 216.5H149.108C149.956 216.5 150.72 217.04 150.912 217.972L152.559 226.6Z" fill="white"/>
<path fill-rule="evenodd" clip-rule="evenodd" d="M323 230C287.101 230 258 259.101 258 295C258 330.899 287.101 360 323 360C358.899 360 388 330.899 388 295C388 259.101 358.899 230 323 230ZM323 332.143C337.467 332.143 350 323.874 356.134 311.803C355.224 311.357 354.272 310.918 353.302 310.63C351.851 310.201 350.363 310.178 348.923 310.66C347.663 311.084 346.528 311.801 345.408 312.509L345.383 312.525L345.035 312.747L345.03 312.75L345.012 312.761C342.677 314.23 340.033 315.893 336.669 315.893C331.668 315.893 328.156 312.901 327.035 307.68C326.169 303.636 323 288.036 323 288.036C321.694 294.592 320.349 301.14 318.965 307.68C317.844 312.898 314.334 315.893 309.334 315.893C305.963 315.893 303.31 314.224 300.972 312.747H300.967L300.617 312.525C299.491 311.812 298.346 311.088 297.079 310.663C295.658 310.195 294.126 310.184 292.698 310.63C291.728 310.918 290.776 311.355 289.866 311.803C295.999 323.872 308.533 332.143 323 332.143ZM355.727 305.282C356.613 305.64 357.487 306.027 358.346 306.445C359.511 302.84 360.143 298.993 360.143 295C360.143 274.486 343.514 257.857 323 257.857C302.485 257.857 285.857 274.486 285.857 295C285.853 298.885 286.46 302.747 287.654 306.445C288.497 306.041 289.379 305.639 290.275 305.282C294.521 303.585 298.411 304.153 302.309 306.521C302.309 306.521 303.732 307.392 304.157 307.659L304.182 307.677L304.198 307.687C306 308.819 307.699 309.885 309.334 309.885C310.905 309.885 312.451 309.463 313.106 306.415C314.127 301.66 316.616 289.977 317.702 284.189C318.339 280.791 318.689 278.959 319.054 277.712C319.69 275.537 320.853 274.346 322.501 274.149C322.501 274.149 322.791 274.107 323 274.107C323.211 274.107 323.474 274.144 323.474 274.144C325.138 274.335 326.308 275.523 326.949 277.712C327.311 278.957 327.661 280.791 328.3 284.192C329.386 289.979 331.875 301.66 332.896 306.415C333.551 309.463 335.097 309.883 336.669 309.883C338.307 309.883 340.011 308.813 341.817 307.677L341.845 307.659C342.27 307.392 343.691 306.521 343.691 306.521C347.589 304.153 351.479 303.585 355.727 305.282Z" fill="white"/>
<path fill-rule="evenodd" clip-rule="evenodd" d="M48 144C31.4315 144 18 157.431 18 174C18 190.569 31.4315 204 48 204C64.5685 204 78 190.569 78 174C78 157.431 64.5685 144 48 144ZM37.3554 156.88C42.7211 157.099 51.4264 159.012 58.9382 165.628C62.8136 168.936 65.2575 172.613 65.1386 178.053C65.0196 185.626 58.2225 188.788 51.1875 188.567C49.7571 188.567 47.9089 188.274 46.0607 187.684C45.8818 189.816 45.5239 191.214 44.7482 191.14C43.9736 191.067 43.6757 189.155 43.5557 186.729C39.3825 184.964 35.6271 181.95 35.8061 177.76C35.985 176.363 37.6543 173.275 43.9136 172.54C44.1525 169.084 44.5104 166.07 45.1061 166.07C45.4639 166.07 46.0007 168.275 46.1796 172.392C53.0357 172.245 56.1364 174.524 56.1954 175.628C56.1954 176.73 54.765 178.2 53.7514 178.347C52.8216 178.482 52.8449 178.061 52.855 177.876C52.856 177.859 52.8568 177.845 52.8568 177.833C52.8568 177.612 53.9304 176.656 54.0493 176.583C54.1093 176.509 54.2282 176.363 53.9304 176.29C53.9224 176.287 53.9129 176.284 53.9017 176.28C53.5793 176.176 51.8909 175.63 46.3586 175.7H46.2386V177.906C46.2386 180.627 46.2386 183.2 46.1786 185.333C47.61 185.773 49.1604 185.994 50.7107 186.068C58.2225 186.214 61.86 181.876 61.9189 177.392C61.9779 169.599 51.0686 159.968 36.5207 158.865C32.1593 158.506 32.1655 158.987 32.1684 159.216C32.1685 159.222 32.1686 159.227 32.1686 159.233C32.1686 159.28 32.2969 159.349 32.4714 159.444C32.8421 159.645 33.4211 159.959 33.4211 160.409C33.4211 160.776 32.4075 160.556 32.0496 160.335C31.7518 160.188 30.8571 159.452 30.8571 158.717C30.8571 158.129 31.3939 156.659 37.3554 156.88ZM43.7346 175.774C39.6214 176.068 37.2364 177.024 37.1175 178.641C36.9975 180.039 39.6804 182.612 43.5568 184.376V184.376C43.5568 182.758 43.5568 181.068 43.6168 179.597C43.6168 178.56 43.6689 177.328 43.7242 176.022C43.7277 175.94 43.7311 175.857 43.7346 175.774Z" fill="white"/>
<path fill-rule="evenodd" clip-rule="evenodd" d="M0 289.5C0 263.266 21.2665 242 47.5 242C73.7335 242 95 263.266 95 289.5C95 315.734 73.7335 337 47.5 337C21.2665 337 0 315.734 0 289.5ZM88.2142 301.375V296.286H78.0357V277.625H72.9464V301.375H88.2142ZM42.6991 275.929L29.3567 286.509V286.708C28.7633 284.26 27.4076 282.064 25.4851 280.437C23.5626 278.81 21.1728 277.836 18.6607 277.656V277.625H8.4821V301.375H18.6607V301.343C21.1723 301.163 23.5618 300.189 25.4842 298.563C27.4067 296.936 28.7627 294.741 29.3567 292.294V292.498L42.6991 303.071L55.9821 292.498V301.375H71.25V296.286H61.0714V277.625H55.9821V286.502L43.0468 297.083L40.3105 294.615L46.4702 289.678L52.9726 284.392L49.21 281.223L36.5478 291.439L33.8115 288.971L46.4702 279.098L42.7075 275.929H42.6991ZM17.8125 282.714H13.5714V296.286H17.8125C19.6121 296.286 21.3381 295.571 22.6107 294.298C23.8833 293.026 24.5982 291.3 24.5982 289.5C24.5982 287.7 23.8833 285.974 22.6107 284.702C21.3381 283.429 19.6121 282.714 17.8125 282.714Z" fill="white"/>
<defs>
<clipPath id="clip0_27_447">
<rect x="116" y="323" width="120" height="120" rx="50" fill="white"/>
</clipPath>
</defs>
</svg>
