<svg width="321" height="400" viewBox="0 0 321 400" fill="none" xmlns="http://www.w3.org/2000/svg">
<path fill-rule="evenodd" clip-rule="evenodd" d="M85.5 308C48.2208 308 18 338.221 18 375.5C18 412.779 48.2208 443 85.5 443C122.779 443 153 412.779 153 375.5C153 338.221 122.779 308 85.5 308ZM46.9286 336.929H75.2907L46.9286 414.072V336.929ZM124.072 336.929H95.7094L124.072 414.072V336.929ZM73.0198 398.643L85.5001 365.214L103.65 414.067H91.1725L86.6355 398.643H73.0198Z" fill="white"/>
<path fill-rule="evenodd" clip-rule="evenodd" d="M259.5 -26C225.534 -26 198 1.53449 198 35.5C198 69.4655 225.534 97 259.5 97C293.466 97 321 69.4655 321 35.5C321 1.53449 293.466 -26 259.5 -26ZM294.548 47.3365L294.876 47.0531C296.543 45.0171 297.876 42.6954 299.163 40.4507C299.254 40.2934 299.346 40.1352 299.438 39.9763C300.01 38.9882 300.597 37.9749 301.208 37.0023C301.25 36.9227 301.277 36.8365 301.289 36.7475C301.289 36.5696 301.157 36.3873 301.043 36.2841C300.553 36.0842 300.09 36.339 299.659 36.6443C297.158 38.6079 295.44 41.4256 293.968 43.8415L293.894 43.9628L293.762 44.2395L293.756 44.2519C293.24 45.2979 292.708 46.3746 292.734 47.5342C292.763 47.6967 292.873 47.9032 293.033 47.9603C293.598 48.1739 294.07 47.7578 294.524 47.3577L294.548 47.3365ZM278.943 39.2295C279.274 40.7911 280.994 41.36 281.091 41.2941C281.631 40.3738 282.07 39.3415 282.356 38.2916L282.363 38.2257L282.369 38.1746C282.405 37.8962 282.444 37.5925 282.444 37.2966C282.444 36.787 282.334 36.3104 281.932 36.0468C281.693 35.9766 281.44 35.9633 281.194 36.0079C280.949 36.0525 280.717 36.1538 280.518 36.3038C279.604 36.8332 278.662 37.8831 278.943 39.2295ZM274.286 46.8115C274.28 47.1082 274.363 47.3999 274.526 47.6484C275.989 49.3155 279.492 44.5273 280.515 42.2935C279.692 41.9421 278.328 41.1118 277.728 39.8159H277.724C276.287 41.628 274.253 44.9534 274.286 46.8115ZM298.691 47.51C298.513 48.0305 298.99 48.2041 299.33 47.9778C301.212 46.8931 302.721 44.6503 303.921 42.8677C303.967 42.7986 304.013 42.7301 304.059 42.6625H305.186C305.072 42.8518 304.91 43.1352 304.709 43.4877C303.395 45.7887 300.399 51.0362 298.003 52.318C297.895 52.3754 297.789 52.4342 297.683 52.4923C297.041 52.8474 296.442 53.1784 295.677 53.0406C294.379 52.8781 294.566 49.4385 294.803 48.5379C294.586 48.7635 294.273 49.2107 293.904 49.7393C293.018 51.0073 291.805 52.7432 290.797 53.0099C289.554 53.2493 288.177 50.9342 288.627 47.846C288.484 48.0212 288.339 48.202 288.19 48.3862C286.155 50.9106 283.603 54.0764 282.156 52.318C281.069 50.9847 281.853 46.8994 283.004 43.585C283.004 43.585 283.391 42.4472 283.434 42.3067C283.419 42.2957 283.415 42.2957 283.404 42.2957C282.769 42.4576 281.96 42.5028 281.684 42.5182C281.635 42.521 281.602 42.5228 281.592 42.5241C281.335 42.9658 281.067 43.4442 280.786 43.9449C279.079 46.988 276.909 50.8566 274.08 52.3202C273.594 52.5662 272.36 53.0757 271.378 52.5837C270.423 52.0544 270.144 49.4472 270.328 47.7999C270.588 45.6957 271.53 43.8595 272.474 42.1463C274.227 39.4469 276.661 36.1698 279.916 34.8432C280.643 34.5225 281.721 34.3226 282.591 34.7488C283.338 35.2803 283.535 36.0468 283.535 36.8617C283.535 37.2395 283.489 37.6283 283.441 38.0082C283.158 39.3327 282.591 40.5561 282.141 41.4632C282.358 41.606 283.634 41.3117 283.964 41.0657C288.515 31.7287 293.725 24.8912 299.892 20.1469L299.941 20.1183C300.197 19.9462 300.464 19.746 300.739 19.54C301.751 18.7811 302.868 17.9438 303.945 18.1459C304.152 18.1845 304.341 18.2864 304.488 18.4375C304.634 18.5886 304.73 18.7814 304.762 18.9894C304.984 20.3424 304.435 21.9084 303.885 22.921C303.411 23.0747 302.693 23.2065 302.693 23.2065L303.202 22.183C303.563 21.4823 303.879 20.8651 303.839 20.0349C303.734 19.8152 303.611 19.8042 303.514 19.8152C302.614 19.9953 301.458 21.0936 300.34 22.1654L299.62 22.8463C295.034 27.3446 289.644 36.7475 288.809 38.7177C290.691 37.8172 296.903 31.777 299.938 27.6191C300.56 27.5994 301.087 27.4961 301.087 27.4961C300.6 28.4318 297.274 32.627 293.329 36.3302C291.59 37.9607 289.728 39.455 287.759 40.7999C286.896 42.6295 286.039 44.6459 285.673 46.7676C285.629 47.0597 285.532 48.3205 286.485 48.2458C287.704 47.98 289.905 44.4108 289.905 44.4108C290.065 44.1657 290.228 43.913 290.394 43.6544C292.412 40.528 294.986 36.5398 298.339 34.6126C299.174 34.1491 300.384 33.9075 301.21 34.4193C301.401 34.5423 301.869 35.1112 302.023 35.3659C302.023 35.3659 302.368 34.7707 302.528 34.5115H305.904L300.905 43.4818C300.905 43.4818 299.137 46.1833 298.691 47.51ZM259.919 29.5937L256.711 29.4576L258.468 26.4968H261.631L259.919 29.5937ZM299.341 23.9423C302.368 24.2476 304.867 23.3756 307.279 22.0314C310.222 20.3929 312.214 18.1591 312.214 18.1591C312.214 18.1591 310.852 21.0101 308.195 23.2724C305.684 25.5172 301.182 27.8739 296.934 26.8131C297.687 25.8291 298.502 24.8714 299.341 23.9423ZM275.005 30.1099C276.112 29.8441 280.377 27.3072 280.878 21.6449C280.9 21.4362 280.9 21.2846 280.834 21.0474C278.071 22.44 275.301 24.8253 273.794 28.0255C272.771 30.402 274.332 30.2417 275.005 30.1099ZM270.054 34.5115C270.866 34.4654 271.629 34.9025 271.949 35.5834C272.657 37.0418 272.2 38.9549 271.789 40.3079C270.089 44.8633 266.458 50.4818 262.658 52.318C260.906 53.0099 258.422 53.4272 256.55 51.5053C254.347 49.2408 254.839 43.7651 255.74 41.1689C256.91 37.3164 259.107 33.4133 262.647 28.8975C267.464 23.1296 272.233 19.5077 277.071 18.1459C278.416 17.8231 280.243 17.7089 281.357 18.9037C281.357 18.9037 281.895 18.7236 282.486 18.5149C283.986 17.9834 286.657 17.599 290.276 19.5407L290.437 19.6272C291.979 20.4601 293.543 21.3044 295.025 22.1918L295.98 22.7694C295.319 23.3844 294.146 24.6166 293.43 25.4315C292.837 25.1781 291.804 24.5468 290.65 23.841C288.952 22.8033 286.991 21.6048 285.778 21.21C285.778 21.21 283.169 20.0349 281.895 20.6982C281.915 20.9244 281.926 21.2275 281.926 21.456C281.926 23.3295 281.73 24.6649 280.917 26.3584C279.509 28.5944 276.841 31.3311 274.177 31.9373C273.597 31.9747 272.878 31.9176 272.474 31.1971C271.699 29.8156 272.384 27.9684 272.938 26.8152C275.11 22.2577 280.173 20.1381 280.173 20.1381C279.38 19.8372 278.46 19.9492 277.471 20.4412C272.613 22.8002 268.813 26.8899 265.54 31.1971C262.366 35.8382 260.15 39.9104 259.636 44.6942C259.52 46.3788 260.069 47.6857 261.143 48.3117C262.85 49.333 264.8 48.0064 266.118 46.9082C267.724 45.4607 269.054 43.7343 270.045 41.8125C271.348 39.2383 271.69 36.5784 270.711 36.2555C269.59 35.9436 268.593 37.1165 268.095 37.8457C266.777 39.6094 266.518 41.5862 266.518 41.5862C264.618 42.4209 262.944 43.9452 262.125 44.8721C262.379 42.8074 262.766 41.5116 263.478 39.9389C264.833 36.8793 267.414 34.7487 270.054 34.5115ZM229.194 32.6468L229.837 31.1905C230.057 30.547 230.25 29.8529 230.25 29.2379C230.25 28.7832 230.145 28.3659 229.866 28.0452C229.413 27.6938 228.634 27.8739 228.131 28.2144C227.608 28.6031 226.422 29.675 226.712 31.0368C226.92 31.7374 227.601 32.3261 228.502 32.6006L228.787 32.6468C228.798 32.6492 228.809 32.6516 228.819 32.6539C228.973 32.6887 229.105 32.7187 229.194 32.6468ZM228.421 34.0393C228.436 34.0129 228.464 33.9251 228.464 33.9251C228.504 33.8372 228.519 33.8021 228.519 33.7735C228.519 33.756 228.513 33.745 228.508 33.745C227.522 33.4616 226.204 32.8466 225.501 31.52C225.5 31.5072 225.498 31.5027 225.496 31.4987C225.494 31.4965 225.493 31.4945 225.493 31.4914C225.472 31.4941 225.453 31.5008 225.436 31.5112C224.315 33.0926 223.164 34.7971 222.44 36.7277L222.352 37.0133C222.099 37.8084 221.787 38.7924 222.391 39.504C222.677 39.8554 223.235 39.7676 223.639 39.6358C224.99 38.9504 226.074 37.5323 226.946 36.3912L226.971 36.3587L228.421 34.0393ZM246.688 32.262C246.651 32.3118 246.617 32.3582 246.585 32.4008C243.978 35.847 243.137 38.3399 243.066 39.1526C243.049 39.2728 243.066 39.3955 243.116 39.5063C243.166 39.6172 243.246 39.7116 243.347 39.7786C243.53 39.9104 243.802 39.8906 243.969 39.8445C245.129 39.2097 245.843 38.3004 246.55 37.2395C246.55 37.2395 247.053 36.4817 247.051 36.4927C248.205 34.6087 249.387 32.5 250.498 30.5192C250.929 29.752 251.348 29.0039 251.751 28.2956C251.698 27.8805 251.079 27.2919 249.533 28.6273C249.096 29.0056 247.41 31.285 246.688 32.262ZM221.291 32.0406C224.511 27.8168 228.528 25.3546 230.529 26.6439H230.527C232.376 27.9649 230.953 31.2921 230.498 32.3578C230.451 32.4669 230.415 32.5523 230.393 32.6094C231.111 32.7895 233.356 31.0434 234.691 29.5937C235.757 28.4384 237.867 26.8152 239.018 26.3891C239.877 25.9806 241.204 25.8488 242.074 26.3584C242.658 26.6922 242.757 27.5093 242.796 28.2298C242.913 30.2373 240.582 33.6703 239.389 32.0032C239.143 31.285 239.363 30.3801 240.136 29.5849C240.327 29.3899 240.558 29.2388 240.812 29.1421C241.067 29.0453 241.34 29.0053 241.612 29.0249C241.849 28.6559 241.788 28.1177 241.415 27.8981C241.019 27.6609 240.226 27.8234 239.499 28.3813C236.914 30.3998 234.689 33.879 233.371 37.5624C233.138 38.2542 233.011 39.3063 233.424 40.0268C234.557 41.74 237.206 39.3547 237.206 39.3547C238.994 37.7908 240.718 35.6273 242.074 33.7054C245.592 28.7064 250.143 24.006 252.208 26.8087C252.223 26.8288 252.241 26.8578 252.258 26.8862C252.283 26.9257 252.307 26.9641 252.32 26.9756C252.348 26.9382 252.713 26.3606 252.713 26.3606H256.043L249.102 38.7814C248.957 39.0735 248.863 39.4886 249.102 39.6863C249.293 39.8181 249.629 39.6512 249.629 39.6512C251.282 38.8623 253.747 35.5045 254.211 34.8716C254.26 34.8049 254.287 34.7685 254.288 34.7685H255.437C254.946 35.4741 254.463 36.2695 253.963 37.0921C252.628 39.2885 251.175 41.6786 249.164 43.0688C248.397 43.5718 247.062 44.4174 246.062 44.066C245.006 43.4137 245.012 41.483 245.083 40.499C245.082 40.499 245.074 40.5116 245.057 40.5353C244.78 40.944 242.254 44.6577 240.185 44.066C239.46 43.8398 238.381 42.1551 239.24 39.2185L239.357 38.755L238.805 39.2756C238.428 39.6386 238.04 40.0448 237.64 40.4634C235.85 42.3391 233.822 44.4632 231.421 44.0682C229.481 43.4743 229.321 40.8701 229.258 39.8432C229.249 39.7041 229.242 39.5939 229.233 39.5216C229 37.6716 231.088 34.0731 231.386 33.5602C231.408 33.522 231.42 33.501 231.421 33.499C230.87 33.6579 230.312 33.7905 229.749 33.8965L228.954 35.1858L228.901 35.2723C228.092 36.59 227.253 37.9563 226.171 39.0955L225.961 39.3129C224.337 41.1799 220.212 45.4651 218.154 43.0688C216.773 41.0327 218.348 35.8294 221.291 32.0406ZM229.437 47.1366C238.023 44.7974 243.497 44.6546 247.42 47.1366C248.778 47.9975 249.819 48.9159 250.741 49.7288C251.167 50.1043 251.568 50.4573 251.962 50.7717C249.44 48.9552 246.266 48.2085 244.099 49.5417C241.929 50.8749 240.894 53.0384 240.894 53.0384C237.382 46.761 225.725 49.3528 223.639 49.8448C222.717 50.2135 221.817 50.6936 220.923 51.1703C219.32 52.0254 217.738 52.8692 216.088 53.0384C212.426 53.3415 209.23 50.0622 207.752 47.3365C205.843 43.4049 207.117 38.5749 208.527 35.2056C210.972 29.6179 215.292 24.5134 220.691 20.8278C223.16 19.3408 225.838 17.9966 228.71 18.1591C229.549 18.3107 230.224 18.7544 230.615 19.3979C231.548 21.2078 230.362 23.1494 229.56 24.162C228.816 25.0603 227.089 25.4029 227.158 23.7644C227.206 22.6947 228.093 21.8996 228.416 21.6514C228.816 21.3967 229.33 21.3505 229.637 21.3505C229.929 21.0848 230.153 19.2288 227.748 19.835C224.612 20.8014 222.235 23.2065 219.674 26.0092C215.084 31.397 212.501 36.2555 211.543 41.3029C211.132 44.3999 211.684 46.5502 213.223 47.8834C216.659 50.2142 219.392 49.553 225.868 47.9858C226.947 47.7247 228.13 47.4384 229.437 47.1366Z" fill="white"/>
<g clip-path="url(#clip0_27_446)">
<path fill-rule="evenodd" clip-rule="evenodd" d="M224.5 259C197.714 259 176 280.714 176 307.5C176 334.286 197.714 356 224.5 356C251.286 356 273 334.286 273 307.5C273 280.714 251.286 259 224.5 259ZM235.175 290.321C241.485 292.512 246.067 295.739 245.175 301.791V301.789H245.145C244.511 306.199 242.062 308.361 238.806 309.082C243.273 311.444 245.549 314.99 243.389 321.184C240.708 328.88 234.309 329.512 225.808 327.9L223.762 336.171L218.779 334.93L220.823 326.775L216.818 325.738L214.8 333.922L209.815 332.684L211.89 324.413L208.346 323.49L201.863 321.877L204.34 316.199C204.34 316.199 208 317.15 207.942 317.063C209.352 317.439 209.988 316.518 210.219 315.911L213.475 302.856L214.022 302.972L213.503 302.799L215.81 293.463C215.867 292.425 215.521 291.1 213.503 290.581C213.562 290.553 209.872 289.687 209.872 289.687L211.199 284.355L218.086 286.086V286.113L221.256 286.863L223.301 278.679L228.287 279.918L226.27 287.929L230.247 288.88L232.236 280.926L237.219 282.166L235.175 290.321ZM219.556 320.05C223.672 321.118 232.404 323.383 233.791 317.756V317.727C235.232 311.992 226.757 310.067 222.521 309.105C222.01 308.989 221.561 308.887 221.199 308.794L218.462 319.772C218.771 319.846 219.14 319.942 219.556 320.05ZM223.255 303.992C226.637 304.889 234.051 306.854 235.319 301.704C236.645 296.424 229.399 294.83 225.899 294.061C225.522 293.978 225.189 293.904 224.914 293.837L222.437 303.779C222.671 303.837 222.946 303.91 223.255 303.992Z" fill="white"/>
</g>
<g clip-path="url(#clip1_27_446)">
<path fill-rule="evenodd" clip-rule="evenodd" d="M39 46C7.51977 46 -18 71.5198 -18 103C-18 134.48 7.51977 160 39 160C70.4802 160 96 134.48 96 103C96 71.5198 70.4802 46 39 46ZM36.9622 99.3277V97.6666C36.9622 96.3373 35.7469 95.6533 35.1403 95.4802L6.9558 83.27C5.96644 82.7102 3.91851 82.1972 2.92916 83.27C1.68941 84.6177 2.7378 86.3908 3.50323 87.1175C7.32426 90.9508 15.2086 98.8432 16.2061 99.7552C17.2036 100.667 18.3477 100.928 18.7955 100.944C23.8909 100.96 34.383 100.981 35.5718 100.944C36.7587 100.905 36.9928 99.8509 36.9622 99.3277ZM41.0377 99.3277V97.6666C41.0377 96.3373 42.253 95.6533 42.8597 95.4802L71.0442 83.27C72.0335 82.7102 74.0814 82.1972 75.0708 83.27C76.3106 84.6177 75.2622 86.3908 74.4967 87.1175C70.6757 90.9508 62.7914 98.8432 61.7939 99.7552C60.7964 100.667 59.6523 100.928 59.2044 100.944C54.109 100.96 43.617 100.981 42.4281 100.944C41.2413 100.905 41.0072 99.8509 41.0377 99.3277ZM36.9643 108.328V106.664C36.9948 106.141 36.7627 105.089 35.5739 105.048C34.385 105.011 23.8929 105.034 18.7955 105.048C18.3497 105.064 17.2077 105.325 16.2102 106.237C15.2127 107.149 7.3263 115.041 3.5073 118.875C2.73983 119.603 1.69144 121.375 2.93119 122.722C3.92055 123.797 5.96848 123.282 6.95783 122.722L35.1423 110.512C35.7489 110.339 36.9643 109.657 36.9643 108.328ZM41.0398 106.673V108.334C41.0398 109.663 42.2551 110.347 42.8617 110.52L71.0462 122.73C72.0356 123.29 74.0835 123.803 75.0728 122.73C76.3126 121.383 75.2642 119.61 74.4988 118.883C70.6777 115.05 62.7934 107.157 61.7959 106.245C60.7984 105.333 59.6543 105.073 59.2065 105.056C54.1111 105.04 43.619 105.02 42.4302 105.056C41.2433 105.095 41.0092 106.149 41.0398 106.673Z" fill="white"/>
</g>
<g clip-path="url(#clip2_27_446)">
<path fill-rule="evenodd" clip-rule="evenodd" d="M117 182C97.1177 182 81 198.118 81 218C81 237.882 97.1177 254 117 254C136.882 254 153 237.882 153 218C153 198.118 136.882 182 117 182ZM110.96 207.088C111.753 201.291 119.407 198.435 125.186 200.557C131.739 203.637 136.286 210.279 136.286 218C136.286 228.65 127.653 237.286 117 237.286C106.349 237.286 97.7143 228.65 97.7143 218C97.7143 207.349 106.349 198.714 117 198.714C117.71 198.717 118.419 198.758 119.124 198.838C111.621 198.821 104.338 203.201 102.891 212.078C101.479 220.809 106.925 227.756 114.164 229.636C117.747 230.874 122.253 230.54 125.193 227.102C127.026 224.96 127.86 218.589 120.569 217.149C113.54 215.759 110.205 212.63 110.96 207.088Z" fill="white"/>
</g>
<g clip-path="url(#clip3_27_446)">
<path fill-rule="evenodd" clip-rule="evenodd" d="M229 140C212.431 140 199 153.431 199 170C199 186.569 212.431 200 229 200C245.569 200 259 186.569 259 170C259 153.431 245.569 140 229 140ZM237.389 182.278C234.989 183.928 232.086 184.893 228.946 184.893L228.957 184.903C226.624 184.903 224.323 184.354 222.241 183.301C220.159 182.248 218.353 180.721 216.97 178.842C215.586 176.964 214.663 174.786 214.275 172.485C213.888 170.185 214.046 167.825 214.737 165.597C215.429 163.368 216.634 161.333 218.257 159.656C219.879 157.979 221.872 156.707 224.076 155.942C226.281 155.176 228.634 154.94 230.946 155.251C233.259 155.562 235.466 156.412 237.389 157.732C237.921 157.163 238.548 156.691 239.243 156.339C236.704 154.426 233.682 153.258 230.516 152.966C227.351 152.675 224.166 153.272 221.321 154.691C218.476 156.109 216.082 158.292 214.409 160.996C212.736 163.699 211.85 166.815 211.85 169.995C211.85 173.174 212.736 176.29 214.409 178.993C216.082 181.697 218.476 183.88 221.321 185.298C224.166 186.717 227.351 187.314 230.516 187.023C233.682 186.731 236.704 185.564 239.243 183.65C238.546 183.307 237.925 182.836 237.389 182.278ZM240.32 161.136C240.465 161.067 240.625 161.031 240.786 161.032C241.037 161.035 241.28 161.126 241.471 161.289C241.602 161.399 241.704 161.538 241.77 161.695C241.836 161.852 241.864 162.023 241.85 162.192C241.837 162.362 241.784 162.526 241.695 162.671C241.605 162.816 241.483 162.938 241.337 163.026C241.191 163.114 241.026 163.167 240.856 163.178C240.687 163.19 240.516 163.161 240.36 163.094C240.203 163.027 240.065 162.923 239.956 162.792C239.848 162.661 239.772 162.506 239.736 162.339C239.7 162.182 239.701 162.019 239.737 161.862C239.773 161.705 239.845 161.558 239.946 161.432C240.046 161.307 240.174 161.206 240.32 161.136ZM237.871 163.475C237.679 163.068 237.571 162.596 237.571 162.103C237.573 161.409 237.8 160.733 238.218 160.178C238.636 159.623 239.222 159.218 239.89 159.025C240.557 158.831 241.269 158.859 241.919 159.104C242.57 159.349 243.123 159.798 243.496 160.384C243.87 160.97 244.043 161.661 243.991 162.354C243.938 163.047 243.663 163.704 243.206 164.227C242.748 164.75 242.134 165.111 241.454 165.255C240.774 165.4 240.066 165.32 239.436 165.028L236.532 166.786H222.571C222.287 166.786 222.015 166.673 221.814 166.472C221.613 166.271 221.5 165.998 221.5 165.714C221.5 165.43 221.613 165.158 221.814 164.957C222.015 164.756 222.287 164.643 222.571 164.643H235.943L237.871 163.475ZM242.908 167.227C242.254 167.611 241.756 168.214 241.504 168.928H220.429C220.144 168.928 219.872 169.041 219.671 169.242C219.47 169.443 219.357 169.716 219.357 170C219.357 170.284 219.47 170.557 219.671 170.758C219.872 170.958 220.144 171.071 220.429 171.071H241.504C241.756 171.786 242.254 172.389 242.908 172.772C243.562 173.156 244.33 173.296 245.078 173.168C245.825 173.04 246.503 172.651 246.992 172.072C247.48 171.492 247.748 170.758 247.748 170C247.748 169.242 247.48 168.508 246.992 167.928C246.503 167.348 245.825 166.96 245.078 166.832C244.33 166.704 243.562 166.844 242.908 167.227ZM239.945 177.222C239.838 177.359 239.766 177.521 239.736 177.693H239.725C239.685 177.907 239.711 178.128 239.8 178.327C239.889 178.525 240.037 178.692 240.223 178.805C240.409 178.918 240.625 178.971 240.842 178.958C241.06 178.945 241.268 178.866 241.439 178.732C241.578 178.627 241.689 178.489 241.763 178.33C241.836 178.172 241.87 177.999 241.861 177.824C241.852 177.65 241.801 177.481 241.711 177.331C241.622 177.181 241.498 177.055 241.349 176.965C241.2 176.874 241.031 176.821 240.857 176.81C240.683 176.799 240.509 176.831 240.35 176.903C240.191 176.974 240.052 177.084 239.945 177.222ZM237.57 178.125C237.533 177.586 237.633 177.047 237.861 176.557L235.9 175.357H222.571C222.287 175.357 222.015 175.244 221.814 175.043C221.613 174.842 221.5 174.57 221.5 174.286C221.5 174.001 221.613 173.729 221.814 173.528C222.015 173.327 222.287 173.214 222.571 173.214H236.5L239.404 174.982C239.839 174.78 240.314 174.677 240.794 174.682C241.274 174.687 241.746 174.8 242.177 175.012C242.608 175.223 242.986 175.529 243.283 175.906C243.58 176.283 243.789 176.721 243.895 177.189C244 177.658 244 178.143 243.893 178.611C243.786 179.079 243.576 179.517 243.278 179.893C242.98 180.27 242.601 180.574 242.17 180.785C241.739 180.995 241.266 181.107 240.786 181.111C240.246 181.114 239.714 180.981 239.239 180.723C238.764 180.466 238.362 180.093 238.071 179.639C237.779 179.184 237.606 178.663 237.57 178.125ZM245.296 170.75C245.495 170.551 245.607 170.281 245.607 170C245.607 169.719 245.495 169.449 245.296 169.25C245.098 169.051 244.828 168.939 244.546 168.939C244.265 168.939 243.995 169.051 243.796 169.25C243.597 169.449 243.486 169.719 243.486 170C243.486 170.281 243.597 170.551 243.796 170.75C243.995 170.949 244.265 171.061 244.546 171.061C244.828 171.061 245.098 170.949 245.296 170.75Z" fill="white"/>
</g>
<defs>
<clipPath id="clip0_27_446">
<rect width="97" height="97" fill="white" transform="translate(176 259)"/>
</clipPath>
<clipPath id="clip1_27_446">
<rect width="114" height="114" fill="white" transform="translate(-18 46)"/>
</clipPath>
<clipPath id="clip2_27_446">
<rect width="72" height="72" fill="white" transform="translate(81 182)"/>
</clipPath>
<clipPath id="clip3_27_446">
<rect width="60" height="60" fill="white" transform="translate(199 140)"/>
</clipPath>
</defs>
</svg>
