<svg width="228" height="45" viewBox="0 0 228 45" fill="none" xmlns="http://www.w3.org/2000/svg">
<g clip-path="url(#clip0_204_345)">
<path d="M0 41.3293L4.17905 45L14.1588 33.7722L15.964 32.0852L11.2361 29.4331L7.58272 32.674L4.72783 36.1979L0 41.3293Z" fill="url(#paint0_linear_204_345)"/>
<path d="M24.6643 40.8537L29.0484 36.8434L37.6809 28.4145L42.8881 23.5875L44.3957 22.0244L43.1625 20.2563L52 18.8293L49.5336 27.5978L48.0275 26.1035L44.2585 29.8415L37.8181 35.8921L31.3329 42.1247L24.6643 40.8537Z" fill="url(#paint1_linear_204_345)"/>
<path d="M11.5783 28.3626C13.7704 26.6465 15.9624 28.176 16.9736 28.9744C18.66 30.3081 20.5684 31.7718 23.7563 35.5511C25.0897 37.1325 26.2644 38.6314 28.3809 39.6806C29.8037 40.3857 30.7517 40.4454 31.4007 40.3781C33.0563 40.2159 34.069 39.1621 34.1877 39.3074C34.2217 39.3503 34.2325 39.5537 30.6423 42.7289C29.4815 43.7582 29.1208 44.0549 28.4733 44.2706C26.9503 44.7753 25.5445 44.2553 25.0928 44.0886C24.1401 43.7368 23.6068 43.2213 22.2163 41.7944C20.4282 39.9697 18.8527 38.2842 18.082 37.466C16.3863 35.6719 15.6895 34.9898 14.7477 34.2265C13.1815 32.9556 12.3475 32.59 11.6199 32.3912C10.6257 32.1189 9.56047 31.8268 8.60473 32.2994C8.27016 32.4424 7.92673 32.564 7.57654 32.6634C7.57654 32.6634 9.44486 30.0327 11.5783 28.3626Z" fill="url(#paint2_linear_204_345)"/>
<path d="M5.34442 13.3232H10.9617V26.443L5.75447 30.9289L5.34442 13.3232Z" fill="#E08178"/>
<path d="M16.8534 5.70947H22.1978V30.4777L16.8534 26.1034V5.70947Z" fill="#E08178"/>
<path d="M28.0217 0H33.3646V29.4331L28.0217 34.6684V0Z" fill="#E08178"/>
</g>
<g clip-path="url(#clip1_204_345)">
<path d="M88.0237 14.3966H80.4945V34.6822H75.4286V14.3966H68V10.3357H88.0237V14.3966Z" fill="#E08178"/>
<path d="M99.7641 21.114C99.1825 21.0315 98.596 20.9867 98.0085 20.9801C96.1626 20.9801 94.9522 21.5976 94.3773 22.8326V34.6671H89.4893V16.6053H94.0988L94.2342 18.7601C95.2164 17.099 96.5725 16.2685 98.3023 16.2685C98.8172 16.2646 99.3296 16.3382 99.8221 16.4866L99.7641 21.114Z" fill="#E08178"/>
<path d="M112.181 34.667C111.933 34.1548 111.769 33.6071 111.694 33.0441C111.118 33.6852 110.406 34.1928 109.61 34.5308C108.813 34.8689 107.951 35.029 107.084 34.9999C105.459 35.06 103.871 34.5136 102.633 33.469C102.067 32.9932 101.614 32.3982 101.309 31.7275C101.004 31.0568 100.854 30.3271 100.87 29.5917C100.87 27.678 101.588 26.2083 103.024 25.1825C104.46 24.1567 106.534 23.6387 109.246 23.6285H111.489V22.5913C111.526 21.8668 111.295 21.1539 110.839 20.5857C110.406 20.0754 109.723 19.8202 108.79 19.8202C108.096 19.7805 107.41 19.9867 106.856 20.402C106.624 20.5994 106.44 20.8469 106.318 21.1255C106.197 21.4041 106.142 21.7065 106.156 22.0095H101.276C101.276 20.9606 101.619 19.9399 102.254 19.1006C102.966 18.164 103.924 17.4385 105.023 17.0032C106.296 16.4801 107.663 16.2196 109.041 16.2377C111.292 16.2377 113.078 16.7978 114.401 17.9179C115.723 19.0381 116.387 20.615 116.392 22.6487V30.4874C116.392 32.2021 116.635 33.4996 117.12 34.3799V34.667H112.181ZM108.148 31.3064C108.841 31.3135 109.525 31.1505 110.139 30.8318C110.709 30.5499 111.179 30.1043 111.489 29.5535V26.4455H109.668C107.224 26.4455 105.923 27.2799 105.766 28.9487V29.2358C105.757 29.5147 105.81 29.7921 105.921 30.0486C106.032 30.3052 106.198 30.5346 106.408 30.7208C106.891 31.1289 107.514 31.3384 108.148 31.3064Z" fill="#E08178"/>
<path d="M119.374 25.4926C119.374 22.6704 120.019 20.425 121.308 18.7562C121.908 17.947 122.7 17.2955 123.613 16.8585C124.526 16.4215 125.534 16.2124 126.547 16.2492C127.385 16.2309 128.216 16.3988 128.979 16.7407C129.742 17.0825 130.417 17.5895 130.956 18.2242V9H135.852V34.667H131.443L131.207 32.7533C130.66 33.4685 129.95 34.0456 129.135 34.4374C128.32 34.8292 127.423 35.0246 126.516 35.0076C125.512 35.0342 124.517 34.8193 123.615 34.3814C122.713 33.9434 121.932 33.2954 121.338 32.493C120.029 30.8115 119.374 28.478 119.374 25.4926ZM124.254 25.8523C124.254 27.5466 124.552 28.8454 125.148 29.7487C125.421 30.1832 125.806 30.5381 126.263 30.7768C126.72 31.0156 127.234 31.1297 127.75 31.1075C129.258 31.1075 130.322 30.4772 130.94 29.2167V22.067C130.332 20.809 129.279 20.1788 127.781 20.1762C125.43 20.1762 124.254 22.0683 124.254 25.8523Z" fill="#E08178"/>
<path d="M148.025 35.0001C145.347 35.0001 143.166 34.1861 141.482 32.5582C139.799 30.9302 138.958 28.7613 138.961 26.0515V25.5845C138.93 23.9009 139.294 22.233 140.024 20.7122C140.678 19.3406 141.726 18.1902 143.037 17.4052C144.383 16.622 145.923 16.2245 147.484 16.257C149.982 16.257 151.949 17.0378 153.385 18.5994C154.821 20.161 155.539 22.372 155.539 25.2324V27.2035H143.907C144.014 28.2916 144.522 29.3026 145.334 30.0435C146.161 30.7711 147.24 31.155 148.346 31.1152C150.225 31.1152 151.694 30.4403 152.751 29.0905L155.148 31.7467C154.391 32.7937 153.366 33.6221 152.178 34.1466C150.874 34.7296 149.456 35.021 148.025 35.0001ZM147.468 20.1457C147.028 20.1294 146.589 20.2078 146.183 20.3757C145.776 20.5435 145.411 20.7968 145.113 21.1179C144.447 21.9071 144.042 22.8797 143.953 23.9043H150.74V23.5215C150.776 22.6109 150.463 21.7206 149.862 21.0298C149.548 20.7246 149.172 20.4882 148.76 20.3359C148.348 20.1836 147.908 20.1188 147.468 20.1457Z" fill="#E08178"/>
<path d="M178.076 31.5897C177.039 32.757 175.703 33.6257 174.209 34.1043C172.43 34.7204 170.556 35.0235 168.671 35C166.715 35.0425 164.784 34.5668 163.076 33.6221C161.459 32.6887 160.165 31.2931 159.363 29.6185C158.449 27.6907 157.99 25.582 158.021 23.4525V21.799C157.969 19.6327 158.391 17.4808 159.259 15.4913C160.007 13.8033 161.256 12.3803 162.84 11.4113C164.497 10.4433 166.396 9.95407 168.319 9.99892C171.235 9.99892 173.514 10.6879 175.156 12.0658C176.799 13.4437 177.772 15.4454 178.076 18.0711H173.146C172.921 16.6779 172.424 15.6572 171.653 15.0091C170.879 14.3622 169.82 14.0407 168.47 14.0407C166.748 14.0407 165.437 14.6786 164.537 15.9545C163.638 17.2303 163.187 19.1389 163.184 21.6804V23.2343C163.184 25.786 163.674 27.7137 164.654 29.0176C165.633 30.3215 167.068 30.9735 168.958 30.9735C170.86 30.9735 172.217 30.5716 173.03 29.7678V25.5767H168.405V21.8832H178.072L178.076 31.5897Z" fill="#E08178"/>
<path d="M192.446 34.667C192.195 34.1558 192.029 33.6078 191.955 33.0442C191.379 33.6853 190.667 34.1929 189.871 34.5309C189.074 34.8689 188.212 35.0291 187.346 35C185.722 35.0599 184.134 34.5134 182.898 33.469C182.332 32.9932 181.879 32.3983 181.574 31.7276C181.269 31.0568 181.119 30.3272 181.135 29.5918C181.135 27.6781 181.852 26.2083 183.285 25.1826C184.718 24.1568 186.793 23.6388 189.507 23.6286H191.754V22.5914C191.791 21.8669 191.56 21.154 191.104 20.5858C190.671 20.0754 189.987 19.8203 189.051 19.8203C188.357 19.7812 187.672 19.9874 187.117 20.4021C186.885 20.5995 186.701 20.847 186.579 21.1256C186.458 21.4042 186.403 21.7066 186.417 22.0096H181.537C181.538 20.9603 181.883 19.9396 182.519 19.1007C183.229 18.1624 184.188 17.4365 185.288 17.0033C186.561 16.4795 187.928 16.219 189.306 16.2378C191.557 16.2378 193.343 16.7978 194.666 17.918C195.988 19.0382 196.65 20.6113 196.65 22.6373V30.4759C196.65 32.1907 196.892 33.4882 197.377 34.3685V34.6555L192.446 34.667ZM188.409 31.3065C189.102 31.3136 189.786 31.1505 190.401 30.8319C190.971 30.55 191.443 30.1045 191.754 29.5535V26.4456H189.929C187.485 26.4456 186.185 27.28 186.031 28.9488V29.2358C186.022 29.5147 186.075 29.7922 186.186 30.0487C186.297 30.3052 186.463 30.5347 186.673 30.7209C187.155 31.1273 187.776 31.3367 188.409 31.3065Z" fill="#E08178"/>
<path d="M206.24 12.1384V16.6051H209.361V20.1455H206.24V29.1707C206.192 29.6794 206.329 30.1883 206.627 30.606C206.885 30.8969 207.38 31.0423 208.112 31.0423C208.593 31.0482 209.073 31.0084 209.546 30.9237V34.5827C208.589 34.8738 207.593 35.0209 206.592 35.019C203.171 35.019 201.427 33.3094 201.36 29.8902V20.1264H198.691V16.6051H201.36V12.1384H206.24Z" fill="#E08178"/>
<path d="M220.486 35.0001C217.81 35.0001 215.629 34.1861 213.943 32.5582C212.257 30.9302 211.417 28.7613 211.422 26.0515V25.5845C211.393 23.901 211.757 22.2336 212.485 20.7122C213.139 19.3406 214.187 18.1902 215.498 17.4052C216.845 16.6219 218.386 16.2244 219.949 16.257C222.447 16.257 224.413 17.0378 225.846 18.5994C227.279 20.161 227.997 22.372 228 25.2324V27.2035H216.368C216.478 28.2906 216.986 29.3004 217.795 30.0435C218.622 30.7712 219.701 31.155 220.807 31.1152C221.652 31.1529 222.494 30.9886 223.262 30.6362C224.029 30.2838 224.699 29.7536 225.216 29.0905L227.613 31.7468C226.854 32.7933 225.828 33.6214 224.64 34.1466C223.335 34.7296 221.917 35.021 220.486 35.0001ZM219.929 20.1457C219.489 20.1294 219.051 20.2078 218.644 20.3757C218.237 20.5435 217.872 20.7968 217.574 21.1179C216.91 21.908 216.505 22.8802 216.414 23.9043H223.201V23.5215C223.239 22.6107 222.925 21.7196 222.323 21.0298C222.009 20.7243 221.634 20.4876 221.222 20.3352C220.809 20.1829 220.369 20.1183 219.929 20.1457Z" fill="#E08178"/>
</g>
<defs>
<linearGradient id="paint0_linear_204_345" x1="13.7737" y1="30.495" x2="0.911088" y2="42.454" gradientUnits="userSpaceOnUse">
<stop stop-color="#E08178"/>
<stop offset="1" stop-color="#EEE2E1"/>
</linearGradient>
<linearGradient id="paint1_linear_204_345" x1="48.2495" y1="20.4184" x2="28.987" y2="40.9113" gradientUnits="userSpaceOnUse">
<stop stop-color="#E08178"/>
<stop offset="1" stop-color="#EEE2E1"/>
</linearGradient>
<linearGradient id="paint2_linear_204_345" x1="14.336" y1="26.2305" x2="20.7945" y2="44.5176" gradientUnits="userSpaceOnUse">
<stop stop-color="#E08178"/>
<stop offset="1" stop-color="#7A507A"/>
</linearGradient>
<clipPath id="clip0_204_345">
<rect width="52" height="45" fill="white"/>
</clipPath>
<clipPath id="clip1_204_345">
<rect width="160" height="26" fill="white" transform="translate(68 9)"/>
</clipPath>
</defs>
</svg>
