<svg width="40" height="40" viewBox="0 0 40 40" fill="none" xmlns="http://www.w3.org/2000/svg">
<g clip-path="url(#clip0_19_796)">
<path d="M0 0H40V40H0V0Z" fill="#F0F3FA"/>
<mask id="mask0_19_796" style="mask-type:luminance" maskUnits="userSpaceOnUse" x="7" y="11" width="26" height="18">
<path d="M7.14286 11.4286H32.8571V28.5714H7.14286V11.4286Z" fill="white"/>
</mask>
<g mask="url(#mask0_19_796)">
<path fill-rule="evenodd" clip-rule="evenodd" d="M20.3543 15.0372C20.3519 15.04 20.3495 15.0429 20.3471 15.0457C18.2979 12.4264 16.5836 11.4286 14.5321 11.4286C10.3486 11.4286 7.14286 16.89 7.14286 22.6729C7.14286 26.29 8.88714 28.5714 11.8093 28.5714C13.9129 28.5714 15.425 27.5772 18.1143 22.8614C18.1143 22.8614 19.2293 20.8864 20 19.5186V19.4643L20.3543 15.0372ZM11.9143 25.78C13.1279 25.78 13.8829 25.0129 16.0636 21.5843C16.0636 21.5843 17.0543 20.0057 18.6893 17.485C16.9679 15.01 15.8414 14.23 14.495 14.23C12.0086 14.23 9.92214 18.5229 9.92214 22.7186C9.92214 24.68 10.665 25.7807 11.915 25.7807L11.9143 25.78Z" fill="url(#paint0_linear_19_796)"/>
<path fill-rule="evenodd" clip-rule="evenodd" d="M20.0107 19.5157L20.3571 15.3572L20.3314 15.025L20.3479 15.0457C21.8407 13.0214 23.4886 11.4286 25.5971 11.4286C29.5779 11.4286 32.8557 16.5129 32.8571 22.5664C32.8571 26.2593 31.2729 28.5714 28.4264 28.5714C25.9457 28.5714 24.5764 27.1729 22.1214 23.05L20.86 20.9222C20.5806 20.4508 20.2972 19.9817 20.01 19.515L20.0107 19.5157ZM22.7843 18.63L24.2914 21.1514C26.6493 24.9579 27.2421 25.78 28.4843 25.7822C29.78 25.7822 30.4057 24.67 30.4057 22.755C30.4057 17.73 28.1907 13.64 25.4207 13.64C24.0879 13.64 22.9671 14.6893 21.6086 16.7929C22.0127 17.3974 22.4047 18.0099 22.7843 18.63Z" fill="url(#paint1_linear_19_796)"/>
<path d="M20.3479 15.0457C21.8407 13.0214 23.4886 11.4286 25.5971 11.4286C29.5779 11.4286 32.8557 16.5129 32.8571 22.5664L30.405 22.755C30.405 17.73 28.1907 13.64 25.4207 13.64C24.0879 13.64 22.9671 14.6893 21.6086 16.7929L20.0057 19.5079C19.3757 20.626 18.7452 21.7438 18.1143 22.8614C15.425 27.5772 13.9129 28.5714 11.8093 28.5714L11.915 25.7807C13.1286 25.7807 13.8836 25.0129 16.0643 21.5843C16.0643 21.5843 17.055 20.0057 18.69 17.485L20.3479 15.0457Z" fill="url(#paint2_linear_19_796)"/>
<path d="M22.7843 18.63C19.5157 13.2972 17.3386 11.4286 14.5314 11.4286L14.4957 14.23C16.3343 14.23 17.7593 15.6836 20.8586 20.9207L21.0486 21.2393L22.7843 18.63Z" fill="#0466E0"/>
</g>
</g>
<defs>
<linearGradient id="paint0_linear_19_796" x1="13.9286" y1="12.8572" x2="18.2143" y2="21.7857" gradientUnits="userSpaceOnUse">
<stop stop-color="#0064E0"/>
<stop offset="1" stop-color="#0082FB"/>
</linearGradient>
<linearGradient id="paint1_linear_19_796" x1="30.3571" y1="22.8572" x2="22.8571" y2="20" gradientUnits="userSpaceOnUse">
<stop stop-color="#0181FA"/>
<stop offset="1" stop-color="#0967DF"/>
</linearGradient>
<linearGradient id="paint2_linear_19_796" x1="16.0714" y1="20.7143" x2="35" y2="21.4286" gradientUnits="userSpaceOnUse">
<stop stop-color="#0082FB"/>
<stop offset="1" stop-color="#0180F9"/>
</linearGradient>
<clipPath id="clip0_19_796">
<rect width="40" height="40" rx="20" fill="white"/>
</clipPath>
</defs>
</svg>
