<svg width="40" height="40" viewBox="0 0 40 40" fill="none" xmlns="http://www.w3.org/2000/svg">
<g clip-path="url(#clip0_19_831)">
<path d="M0 0H40V40H0V0Z" fill="#FF6600"/>
<path d="M9.38572 26.0358C9.24286 26 9.05 25.8929 8.88571 25.7643C7.47143 24.3786 9.27143 22.7643 11.3643 21.8215V19.1572C11.8643 19.4572 12.1071 19.4858 12.1429 19.5429L13.7286 17.9215L13.2 16.5643C17.8714 14.9072 19.7571 14.2786 23.5571 13.6215L22.8786 12.9929L24 12.3286C26.5571 13.2 28.9429 13.4215 28.5357 15.6C28.6429 14.1358 26.85 13.5715 24.0786 12.7715L23.5643 13.1L24.5786 13.9572C20.9418 14.5926 17.3701 15.556 13.9071 16.8358L14.35 18.0429L12.7 19.7072C12.9786 19.7858 15.8714 20.7858 18.9143 18.6286C18.9286 18.6072 18.9786 18.6 18.9786 18.5572C18.8714 18.4143 18.6786 18.2643 18.4286 18.0215C18.6296 18.0378 18.8251 18.0953 19.003 18.1904C19.1809 18.2855 19.3373 18.4162 19.4625 18.5742C19.5878 18.7323 19.6792 18.9145 19.7311 19.1094C19.783 19.3043 19.7943 19.5077 19.7643 19.7072H19.3643C19.4071 19.45 19.3429 19.15 19.2357 18.9572C18.2041 19.7554 16.9885 20.2816 15.7005 20.4875C14.4125 20.6935 13.0934 20.5725 11.8643 20.1358V22.2072C10.7214 22.6 8.72143 23.8715 8.73571 25.0929C8.80714 25.6643 9.10714 25.8786 9.38572 26.0358Z" fill="#010101"/>
<path d="M18.8786 25.5C16.3643 26.8143 13.9714 27.85 10.2357 28C5.41429 27.9 4.66428 24.6286 6.95714 21.2071C9.10714 17.7571 12.5357 14.6357 18 12.6714C19.9664 11.9345 22.0375 11.515 24.1357 11.4286C27.3643 11.4 30.4929 12.4286 30.2786 15.5643C30.1786 17.9786 26.7571 21.4 24.9786 23.8428C24.1929 24.9 24.0714 25.5857 25.3786 25.5428C30.1357 25.2214 32.9786 24.1857 36.9643 22.4428C34.2857 24.3 21.7357 30.7571 21.6571 25.9071C21.6786 25.3071 21.9714 24.6571 22.4214 23.9714C22.9476 23.2152 23.5201 22.4924 24.1357 21.8071C25.0857 20.6928 27.45 18.0357 28.25 16.4214C29.5857 13.4071 26.5786 13.25 24 12.3071L22.8786 12.9714L23.55 13.6071C19.7643 14.25 17.8786 14.8928 13.2071 16.5357L13.7357 17.9071L12.15 19.5214C12.1214 19.4786 11.8714 19.4428 11.3643 19.1428V21.8071C9.27857 22.7428 7.47857 24.3714 8.89286 25.75C9.05 25.8786 9.25 25.9928 9.39286 26.0286H9.37857C11.95 27.5214 18.8929 25.5 18.8786 25.5Z" fill="white"/>
</g>
<defs>
<clipPath id="clip0_19_831">
<rect width="40" height="40" rx="20" fill="white"/>
</clipPath>
</defs>
</svg>
