<svg width="40" height="40" viewBox="0 0 40 40" fill="none" xmlns="http://www.w3.org/2000/svg">
<g clip-path="url(#clip0_19_841)">
<path d="M0 0H40V40H0V0Z" fill="#0071C5"/>
<path d="M14.3357 18.7615L14.3321 23.0636H13.0029L13.0064 17.5372L15.9314 17.5586C17.22 17.5586 17.6586 18.455 17.6586 19.2057V23.0636H16.3286V19.2615C16.3286 18.9472 15.9307 18.78 15.3286 18.78L14.3357 18.7615ZM24.1043 18.6415C23.6021 18.6415 23.2779 18.8765 23.1157 19.195C23.0193 19.3865 22.9864 19.5329 22.975 19.7672H25.1707C25.1421 19.1957 24.8564 18.6415 24.1043 18.6415ZM22.975 20.6165C22.975 21.2993 23.3779 21.8622 24.2114 21.8622C24.8607 21.8622 25.015 21.6979 25.39 21.3586L26.2971 22.1457C25.7164 22.6672 25.2857 23.0636 24.2114 23.0636C22.8057 23.0636 21.6457 22.3422 21.6457 20.31C21.6457 18.5743 22.6243 17.5372 24.1671 17.5372C25.7329 17.5372 26.2979 18.6279 26.2979 20.135V20.6165H22.975ZM20.2093 23.0636C19.0121 23.0636 18.3236 22.3065 18.3236 21.5586V16.0443H19.6679V17.5565H20.9814V18.78H19.6521V21.305C19.6521 21.6115 19.9843 21.84 20.4807 21.84H20.9807V23.0636H20.2093ZM11.6771 16.9443H10.3486L10.3443 15.7207H11.6736L11.6771 16.9443ZM11.6771 23.0636C10.57 22.9672 10.3464 22.2293 10.3464 21.5243L10.3443 17.5565H11.6771V23.0636ZM28.9714 22.8436C27.8657 22.7465 27.6264 22.1365 27.6264 21.4329V15.7207H28.9714V22.8436ZM34.1457 16.305C32.8043 10.3579 19.86 9.96718 11.6771 14.4965V14.9965C19.8521 11.1765 31.6943 11.2136 32.7507 16.6907C33.1043 18.5022 32.2893 20.4729 30.285 21.5586V22.9786C32.6979 22.1757 34.8643 19.4907 34.1457 16.305ZM19.2714 26.71C13.6236 27.1843 7.73857 26.4386 6.915 22.4265C6.51214 20.4479 7.705 18.5529 9.02 17.2507V16.5536C6.65286 18.4415 5.16643 20.6286 5.90571 23.4515C6.85 27.0715 11.9007 29.1229 19.6107 28.4415C22.6607 28.1707 26.8457 27.2029 29.6214 25.8179V23.85C27.1029 25.2136 22.7429 26.4172 19.2714 26.71Z" fill="white"/>
</g>
<defs>
<clipPath id="clip0_19_841">
<rect width="40" height="40" rx="20" fill="white"/>
</clipPath>
</defs>
</svg>
