<svg width="60" height="60" viewBox="0 0 60 60" fill="none" xmlns="http://www.w3.org/2000/svg">
<path fill-rule="evenodd" clip-rule="evenodd" d="M30 0C13.4315 0 0 13.4315 0 30C0 46.5685 13.4315 60 30 60C46.5685 60 60 46.5685 60 30C60 13.4315 46.5685 0 30 0ZM33.8239 31.2086C32.34 30.5186 30.3718 29.3571 30.3996 27.2764C30.4221 24.4639 33.1414 22.5 37.0093 22.5C38.2574 22.5031 39.4957 22.7202 40.6704 23.1418L39.9825 26.205C38.2307 25.4336 36.6846 25.4882 36.1254 25.5589C34.9939 25.6993 34.4775 26.2511 34.4646 26.7675C34.4496 27.4523 35.3342 27.8961 36.397 28.4292C37.9798 29.2232 39.9578 30.2155 39.9482 32.4975C39.9332 35.5018 37.245 37.44 33.1361 37.44C31.3854 37.425 29.6968 37.0746 28.7861 36.6729L29.4932 33.5068C29.5166 33.5172 29.5401 33.5277 29.5637 33.5383C30.4611 33.94 31.5955 34.4478 33.5111 34.4196C34.6382 34.4036 35.8425 33.975 35.8532 33.0054C35.8596 32.3721 35.3475 31.9179 33.8239 31.2086ZM45.6139 23.5607C45.8968 22.9179 46.5289 22.5 47.2789 22.5H50.6196L53.5714 37.5H49.9532L49.6854 35.0571H44.6679L43.6436 37.5H39.5379L45.6139 23.5607ZM49.0382 32.0946L47.8532 26.6679L45.7929 32.0946H49.0382ZM21.9771 37.5L25.4207 22.5H29.3325L25.89 37.5H21.9771ZM15.5593 32.6004L19.6329 22.5H23.7418L17.1954 37.5H13.0607L10.1464 25.4186C9.95679 24.7093 9.79286 24.4479 9.2175 24.1489C8.27678 23.6593 6.72429 23.2029 5.35714 22.92L5.45036 22.5H12.1082C12.9557 22.5 13.7196 23.04 13.9125 23.9721L15.5593 32.6004Z" fill="white"/>
</svg>
