<svg width="60" height="60" viewBox="0 0 60 60" fill="none" xmlns="http://www.w3.org/2000/svg">
<path fill-rule="evenodd" clip-rule="evenodd" d="M0 30C0 13.4315 13.4315 0 30 0C46.5685 0 60 13.4315 60 30C60 46.5685 46.5685 60 30 60C13.4315 60 0 46.5685 0 30ZM55.7143 37.5V34.2857H49.2857V22.5H46.0714V37.5H55.7143ZM26.9679 21.4286L18.5411 28.1111V28.2364C18.1663 26.6905 17.3101 25.3037 16.0959 24.2761C14.8816 23.2485 13.3723 22.6333 11.7857 22.5193V22.5H5.35714V37.5H11.7857V37.4797C13.372 37.3658 14.8812 36.7509 16.0953 35.7237C17.3095 34.6966 18.1659 33.3102 18.5411 31.7647V31.8932L26.9679 38.5714L35.3571 31.8932V37.5H45V34.2857H38.5714V22.5H35.3571V28.1068L27.1875 34.7893L25.4593 33.2304L29.3496 30.1125L33.4564 26.7739L31.08 24.7725L23.0829 31.2247L21.3546 29.6657L29.3496 23.43L26.9732 21.4286H26.9679ZM11.25 25.7143H8.57143V34.2857H11.25C12.3866 34.2857 13.4767 33.8342 14.2805 33.0305C15.0842 32.2267 15.5357 31.1367 15.5357 30C15.5357 28.8634 15.0842 27.7733 14.2805 26.9696C13.4767 26.1658 12.3866 25.7143 11.25 25.7143Z" fill="white"/>
</svg>
