<svg width="60" height="60" viewBox="0 0 60 60" fill="none" xmlns="http://www.w3.org/2000/svg">
<path fill-rule="evenodd" clip-rule="evenodd" d="M30 0C13.4315 0 0 13.4315 0 30C0 46.5685 13.4315 60 30 60C46.5685 60 60 46.5685 60 30C60 13.4315 46.5685 0 30 0ZM10.3189 39.5293C11.2179 40.2579 12.3675 40.65 13.7721 40.7068H13.7711C15.3343 40.7711 17.2661 40.4014 19.4239 39.6289C20.2682 39.3268 20.7482 39.1286 22.5429 38.3454C33.8786 33.3986 55.7164 23.865 55.7143 23.8629C55.7143 23.8607 48.0225 25.9468 38.6239 28.4979C29.2254 31.0489 21.4071 33.1671 21.2496 33.2046C18.9579 33.7425 17.0818 33.69 15.7993 33.0493C15.0675 32.6829 14.4161 32.0207 14.0368 31.2568C13.4861 30.1457 13.4325 28.7143 13.8782 27.0461C14.1568 26.0068 14.6668 24.8057 15.2636 23.7857C15.3321 23.6679 15.3879 23.5714 15.3846 23.5714C15.3782 23.5714 14.3721 24.7039 14.0346 25.0918C11.7396 27.7232 10.425 29.6229 9.57322 31.5396C8.57786 33.7768 8.31643 35.8168 8.82429 37.3704C8.99649 37.8884 9.25952 38.3716 9.60107 38.7975C9.82209 39.0587 10.062 39.3033 10.3189 39.5293Z" fill="white"/>
</svg>
