<svg width="60" height="60" viewBox="0 0 60 60" fill="none" xmlns="http://www.w3.org/2000/svg">
<path fill-rule="evenodd" clip-rule="evenodd" d="M30 0C13.4315 0 0 13.4315 0 30C0 46.5685 13.4315 60 30 60C46.5685 60 60 46.5685 60 30C60 13.4315 46.5685 0 30 0ZM43.3457 36.8357C43.5504 36.36 43.7443 35.8639 43.9286 35.3443C43.0836 34.9997 42.3076 34.5058 41.6379 33.8861C40.1336 32.5307 39.3686 30.8229 39.3461 28.7711C39.3225 26.1386 40.5525 24.0868 43.0404 22.6211C41.6496 20.7011 39.5604 19.6339 36.7779 19.4154C35.7504 19.3307 34.4968 19.5461 33.0118 20.0657C31.4421 20.6261 30.5154 20.9068 30.2421 20.9068C29.8757 20.9068 29.0421 20.6668 27.7436 20.1921C26.4407 19.7207 25.3929 19.4796 24.5936 19.4796C23.1627 19.494 21.7599 19.879 20.5221 20.5971C19.2798 21.3086 18.242 22.3286 17.5093 23.5586C16.5504 25.1154 16.0714 26.9732 16.0714 29.1268C16.0714 31.0071 16.4261 32.9496 17.1354 34.9554C17.7964 36.8132 18.6407 38.4439 19.6682 39.8475C20.6261 41.1621 21.4254 42.0911 22.0639 42.6332C23.0657 43.5386 24.0675 43.9682 25.0746 43.9264C25.7357 43.905 26.6014 43.6843 27.675 43.2621C28.7486 42.8411 29.7514 42.6332 30.6857 42.6332C31.5771 42.6332 32.5521 42.8411 33.6129 43.2621C34.6714 43.6843 35.5789 43.8921 36.3321 43.8921C37.3821 43.8696 38.3625 43.4507 39.2764 42.6321C39.8668 42.135 40.6329 41.2393 41.5661 39.9429C42.2648 38.9712 42.8611 37.93 43.3457 36.8357ZM36.9621 12.4286C36.9621 12.2154 36.9514 12 36.93 11.7857C36.0911 11.8286 35.1975 12.075 34.2525 12.5218C33.3096 12.975 32.5296 13.5439 31.9168 14.2275C30.6889 15.5775 29.9979 17.2296 29.9979 18.7725C29.9979 18.9763 30.0108 19.1799 30.0364 19.3821C31.9436 19.5321 33.7018 18.5786 35.1557 16.9264C36.3589 15.5379 36.9621 14.0357 36.9621 12.4286Z" fill="white"/>
</svg>
