<svg width="60" height="60" viewBox="0 0 60 60" fill="none" xmlns="http://www.w3.org/2000/svg">
<path fill-rule="evenodd" clip-rule="evenodd" d="M30 0C13.4315 0 0 13.4315 0 30C0 46.5685 13.4315 60 30 60C46.5685 60 60 46.5685 60 30C60 13.4315 46.5685 0 30 0ZM47.0968 35.7739L47.2564 35.6357C48.0696 34.6425 48.72 33.51 49.3478 32.415C49.3924 32.3382 49.4371 32.261 49.482 32.1835C49.761 31.7015 50.0472 31.2072 50.3453 30.7328C50.3657 30.694 50.3791 30.652 50.385 30.6085C50.385 30.5218 50.3207 30.4328 50.265 30.3825C50.0261 30.285 49.8 30.4093 49.59 30.5582C48.3697 31.516 47.5319 32.8905 46.8135 34.069L46.7775 34.1282L46.7132 34.2632L46.7102 34.2692C46.4583 34.7795 46.199 35.3047 46.2118 35.8703C46.2257 35.9496 46.2793 36.0503 46.3575 36.0782C46.6333 36.1824 46.8636 35.9794 47.085 35.7842L47.0968 35.7739ZM39.4843 31.8193C39.6461 32.581 40.485 32.8585 40.5321 32.8264C40.7957 32.3775 41.01 31.8739 41.1493 31.3617L41.1525 31.3296L41.1557 31.3046C41.1731 31.1688 41.1921 31.0207 41.1921 30.8764C41.1921 30.6278 41.1386 30.3953 40.9425 30.2668C40.8257 30.2325 40.7024 30.226 40.5827 30.2478C40.4629 30.2695 40.3498 30.3189 40.2525 30.3921C39.8068 30.6503 39.3471 31.1625 39.4843 31.8193ZM37.2128 35.5178C37.2097 35.6626 37.2504 35.8049 37.3296 35.926C38.0432 36.7392 39.7521 34.4035 40.2514 33.3139C39.8496 33.1425 39.1843 32.7375 38.8918 32.1053H38.8896C38.1889 32.9893 37.1968 34.6114 37.2128 35.5178ZM49.1175 35.8585C49.0307 36.1125 49.2632 36.1971 49.4293 36.0868C50.3472 35.5576 51.0835 34.4635 51.6687 33.594C51.6913 33.5603 51.7138 33.5269 51.7361 33.4939H52.2857C52.2301 33.5863 52.1512 33.7245 52.053 33.8964C51.4122 35.0189 49.951 37.5786 48.7821 38.2039C48.7292 38.2319 48.6774 38.2606 48.6261 38.2889C48.3126 38.4622 48.0204 38.6236 47.6475 38.5564C47.0143 38.4771 47.1053 36.7993 47.2211 36.36C47.1151 36.47 46.9627 36.6882 46.7824 36.946C46.3501 37.5645 45.7583 38.4113 45.2668 38.5414C44.6603 38.6582 43.9886 37.5289 44.2082 36.0225C44.1388 36.1079 44.0677 36.1961 43.9953 36.2859C43.0026 37.5174 41.7578 39.0617 41.0518 38.2039C40.5214 37.5535 40.9039 35.5607 41.4653 33.9439C41.4653 33.9439 41.6539 33.3889 41.6753 33.3203C41.6701 33.3166 41.6675 33.3154 41.6645 33.3151C41.6633 33.315 41.6619 33.315 41.6603 33.315C41.3508 33.3939 40.9559 33.416 40.8216 33.4235C40.7974 33.4249 40.7817 33.4257 40.7764 33.4264C40.6512 33.6418 40.5203 33.8752 40.3833 34.1195C39.5507 35.6039 38.4922 37.491 37.1121 38.205C36.8753 38.325 36.2732 38.5735 35.7943 38.3335C35.3282 38.0753 35.1921 36.8035 35.2821 36C35.4086 34.9735 35.8682 34.0778 36.3289 33.2421C37.1839 31.9253 38.3711 30.3267 39.9589 29.6796C40.3136 29.5232 40.8396 29.4257 41.2639 29.6335C41.6282 29.8928 41.7246 30.2668 41.7246 30.6643C41.7246 30.8485 41.7021 31.0382 41.6786 31.2235C41.5403 31.8696 41.2639 32.4664 41.0443 32.9089C41.1503 32.9785 41.7728 32.835 41.9336 32.715C44.1536 28.1603 46.695 24.825 49.7036 22.5107L49.7271 22.4967C49.8522 22.4128 49.9825 22.3151 50.1166 22.2147C50.6105 21.8445 51.1553 21.436 51.6803 21.5346C51.7812 21.5534 51.8738 21.6031 51.9452 21.6768C52.0166 21.7505 52.0633 21.8446 52.0789 21.946C52.1871 22.606 51.9193 23.37 51.6514 23.8639C51.42 23.9389 51.0696 24.0032 51.0696 24.0032L51.3182 23.5039C51.4939 23.1621 51.6482 22.861 51.6289 22.456C51.5775 22.3489 51.5175 22.3435 51.4703 22.3489C51.0311 22.4367 50.4675 22.9725 49.9221 23.4953L49.5707 23.8275C47.3336 26.0217 44.7043 30.6085 44.2971 31.5696C45.2153 31.1303 48.2453 28.1839 49.7261 26.1557C50.0293 26.146 50.2864 26.0957 50.2864 26.0957C50.0486 26.5521 48.4264 28.5985 46.5021 30.405C45.6537 31.2003 44.7453 31.9293 43.785 32.5853C43.3639 33.4778 42.9461 34.4614 42.7671 35.4964C42.7457 35.6389 42.6986 36.2539 43.1636 36.2175C43.7582 36.0878 44.8318 34.3467 44.8318 34.3467C44.9095 34.2272 44.9891 34.1039 45.0705 33.9778C46.0547 32.4527 47.3103 30.5072 48.9461 29.5671C49.3532 29.341 49.9436 29.2232 50.3464 29.4728C50.4396 29.5328 50.6678 29.8103 50.7428 29.9346C50.7428 29.9346 50.9111 29.6442 50.9893 29.5178H52.6361L50.1975 33.8935C50.1975 33.8935 49.335 35.2114 49.1175 35.8585ZM30.2046 27.1189L28.6393 27.0525L29.4964 25.6082H31.0393L30.2046 27.1189ZM49.4346 24.3621C50.9111 24.511 52.1303 24.0857 53.3068 23.43C54.7425 22.6307 55.7143 21.541 55.7143 21.541C55.7143 21.541 55.05 22.9318 53.7536 24.0353C52.5289 25.1303 50.3325 26.28 48.2603 25.7625C48.6278 25.2825 49.0253 24.8153 49.4346 24.3621ZM37.5632 27.3707C38.1032 27.241 40.1839 26.0035 40.4282 23.2414C40.4389 23.1396 40.4389 23.0657 40.4068 22.95C39.0589 23.6292 37.7078 24.7928 36.9728 26.3539C36.4736 27.5132 37.2353 27.435 37.5632 27.3707ZM35.1482 29.5178C35.5446 29.4953 35.9164 29.7085 36.0728 30.0407C36.4178 30.7521 36.195 31.6853 35.9946 32.3453C35.1653 34.5675 33.3943 37.3082 31.5407 38.2039C30.6857 38.5414 29.4739 38.745 28.5611 37.8075C27.4864 36.7028 27.7264 34.0317 28.1657 32.7653C28.7368 30.886 29.8082 28.9821 31.5353 26.7792C33.885 23.9657 36.2111 22.1989 38.5714 21.5346C39.2271 21.3771 40.1186 21.3214 40.6618 21.9042C40.6618 21.9042 40.9243 21.8164 41.2125 21.7146C41.9443 21.4553 43.2471 21.2678 45.0128 22.215L45.091 22.2572C45.8436 22.6635 46.6065 23.0753 47.3293 23.5082L47.7953 23.79C47.4728 24.09 46.9007 24.691 46.5514 25.0885C46.2621 24.9649 45.7583 24.657 45.195 24.3127C44.3669 23.8065 43.4103 23.2218 42.8186 23.0292C42.8186 23.0292 41.5457 22.456 40.9243 22.7796C40.9339 22.89 40.9393 23.0378 40.9393 23.1493C40.9393 24.0632 40.8439 24.7146 40.4475 25.5407C39.7607 26.6314 38.4589 27.9664 37.1593 28.2621C36.8764 28.2803 36.5261 28.2525 36.3289 27.901C35.9507 27.2271 36.285 26.326 36.555 25.7635C37.6146 23.5403 40.0843 22.5064 40.0843 22.5064C39.6975 22.3596 39.2486 22.4142 38.7664 22.6542C36.3964 23.805 34.5428 25.8 32.9464 27.901C31.3982 30.165 30.3171 32.1514 30.0664 34.485C30.0096 35.3068 30.2775 35.9442 30.8014 36.2496C31.6339 36.7478 32.5853 36.1007 33.2282 35.565C34.0117 34.8589 34.6607 34.0167 35.1439 33.0793C35.7793 31.8235 35.9464 30.526 35.4686 30.3685C34.9221 30.2164 34.4357 30.7885 34.1925 31.1443C33.5496 32.0046 33.4232 32.9689 33.4232 32.9689C32.4964 33.376 31.68 34.1196 31.2803 34.5717C31.4046 33.5646 31.5932 32.9325 31.9403 32.1653C32.6014 30.6728 33.8603 29.6335 35.1482 29.5178ZM15.2164 28.6082L15.5303 27.8978C15.6375 27.5839 15.7318 27.2453 15.7318 26.9453C15.7318 26.7235 15.6803 26.52 15.5443 26.3635C15.3236 26.1921 14.9432 26.28 14.6978 26.446C14.4428 26.6357 13.8643 27.1585 14.0057 27.8228C14.1075 28.1646 14.4396 28.4517 14.8789 28.5857L15.0182 28.6082C15.0234 28.6093 15.0286 28.6105 15.0337 28.6117C15.1086 28.6286 15.1733 28.6433 15.2164 28.6082ZM14.8393 29.2875C14.8468 29.2746 14.8607 29.2318 14.8607 29.2318C14.88 29.1889 14.8875 29.1718 14.8875 29.1578C14.8875 29.1493 14.8843 29.1439 14.8821 29.1439C14.4011 29.0057 13.7582 28.7057 13.4153 28.0585C13.4147 28.0523 13.4135 28.0501 13.4125 28.0481C13.4119 28.0471 13.4114 28.0461 13.4111 28.0446C13.4012 28.0459 13.3917 28.0492 13.3832 28.0543C12.8368 28.8257 12.2753 29.6571 11.9218 30.5989L11.8789 30.7382C11.7557 31.126 11.6036 31.606 11.8982 31.9532C12.0375 32.1246 12.3096 32.0817 12.5068 32.0175C13.1659 31.6831 13.6946 30.9914 14.12 30.4347L14.1321 30.4189L14.8393 29.2875ZM23.7501 28.4205C23.7321 28.4448 23.7154 28.4674 23.7 28.4882C22.4282 30.1693 22.0178 31.3853 21.9836 31.7817C21.9752 31.8404 21.9836 31.9003 22.0079 31.9543C22.0321 32.0084 22.0713 32.0544 22.1207 32.0871C22.2096 32.1514 22.3425 32.1418 22.4239 32.1193C22.9896 31.8096 23.3378 31.366 23.6828 30.8485C23.6828 30.8485 23.9282 30.4789 23.9271 30.4842C24.4901 29.5652 25.067 28.5366 25.6089 27.5703C25.8188 27.1961 26.0234 26.8312 26.22 26.4857C26.1943 26.2832 25.8921 25.996 25.1378 26.6475C24.9248 26.832 24.1025 27.9439 23.7501 28.4205ZM11.3614 28.3125C12.9321 26.2521 14.8918 25.051 15.8678 25.68H15.8668C16.7687 26.3243 16.0749 27.9473 15.8526 28.4672C15.8299 28.5204 15.8121 28.5621 15.8014 28.59C16.1518 28.6778 17.2468 27.826 17.8982 27.1189C18.4178 26.5553 19.4475 25.7635 20.0089 25.5557C20.4278 25.3564 21.075 25.2921 21.4993 25.5407C21.7843 25.7035 21.8325 26.1021 21.8518 26.4535C21.9086 27.4328 20.7718 29.1075 20.19 28.2943C20.07 27.9439 20.1771 27.5025 20.5543 27.1146C20.6472 27.0195 20.7598 26.9457 20.8841 26.8986C21.0085 26.8514 21.1416 26.8319 21.2743 26.8414C21.39 26.6614 21.36 26.3989 21.1778 26.2917C20.985 26.176 20.5982 26.2553 20.2436 26.5275C18.9825 27.5121 17.8971 29.2092 17.2543 31.006C17.1407 31.3435 17.0786 31.8568 17.28 32.2082C17.8328 33.0439 19.125 31.8803 19.125 31.8803C19.9971 31.1175 20.8382 30.0621 21.4993 29.1246C23.2157 26.686 25.4357 24.3932 26.4428 25.7603C26.45 25.7702 26.4588 25.7843 26.4675 25.7981C26.4795 25.8174 26.4912 25.8361 26.4975 25.8417C26.5114 25.8235 26.6893 25.5417 26.6893 25.5417H28.3136L24.9278 31.6007C24.8571 31.7432 24.8111 31.9457 24.9278 32.0421C25.0211 32.1064 25.185 32.025 25.185 32.025C25.9915 31.6401 27.1934 30.0022 27.42 29.6935C27.4438 29.661 27.4569 29.6432 27.4575 29.6432H28.0178C27.7788 29.9874 27.5429 30.3754 27.299 30.7766C26.6478 31.8481 25.9392 33.0139 24.9578 33.6921C24.5839 33.9375 23.9325 34.35 23.445 34.1785C22.9296 33.8603 22.9328 32.9185 22.9671 32.4385C22.9669 32.4385 22.9627 32.4447 22.9549 32.4562C22.8193 32.6556 21.5875 34.4672 20.5778 34.1785C20.2243 34.0682 19.6982 33.2464 20.1171 31.8139L20.1739 31.5878L19.905 31.8417C19.7208 32.0188 19.5317 32.217 19.3368 32.4212C18.4632 33.3361 17.474 34.3723 16.3028 34.1796C15.3564 33.8899 15.2784 32.6196 15.2476 32.1186C15.2435 32.0508 15.2402 31.997 15.2357 31.9617C15.122 31.0593 16.1406 29.304 16.2858 29.0538C16.2966 29.0351 16.3025 29.0249 16.3028 29.0239C16.0343 29.1014 15.7622 29.1661 15.4875 29.2178L15.0996 29.8468L15.0737 29.8889C14.6789 30.5317 14.2695 31.1982 13.7421 31.7539L13.6393 31.86C12.8475 32.7707 10.8353 34.861 9.83142 33.6921C9.15749 32.6989 9.9257 30.1607 11.3614 28.3125ZM15.3353 35.6764C19.5236 34.5353 22.1936 34.4657 24.1071 35.6764C24.7697 36.0963 25.2778 36.5444 25.7275 36.9409C25.9353 37.1241 26.1306 37.2962 26.3228 37.4496C25.0928 36.5635 23.5446 36.1993 22.4871 36.8496C21.4286 37.5 20.9239 38.5553 20.9239 38.5553C19.2107 35.4932 13.5246 36.7575 12.5068 36.9975C12.0569 37.1773 11.6178 37.4115 11.1819 37.6441C10.3998 38.0611 9.62809 38.4728 8.8232 38.5553C7.03713 38.7032 5.4782 37.1035 4.75713 35.7739C3.82606 33.856 4.44749 31.5 5.13535 29.8564C6.32785 27.1307 8.43535 24.6407 11.0689 22.8428C12.2732 22.1175 13.5793 21.4618 14.9807 21.541C15.39 21.615 15.7189 21.8314 15.9096 22.1453C16.365 23.0282 15.7864 23.9753 15.3953 24.4692C15.0321 24.9075 14.19 25.0746 14.2232 24.2753C14.2468 23.7535 14.6796 23.3657 14.8371 23.2446C15.0321 23.1203 15.2828 23.0978 15.4328 23.0978C15.5753 22.9682 15.6846 22.0628 14.5114 22.3585C12.9814 22.83 11.8221 24.0032 10.5728 25.3703C8.33356 27.9985 7.07356 30.3685 6.60642 32.8307C6.40606 34.3414 6.67499 35.3903 7.42606 36.0407C9.10214 37.1777 10.435 36.8551 13.5941 36.0906C14.1204 35.9633 14.6975 35.8236 15.3353 35.6764Z" fill="white"/>
</svg>
