<svg width="40" height="40" viewBox="0 0 40 40" fill="none" xmlns="http://www.w3.org/2000/svg">
<g clip-path="url(#clip0_19_812)">
<path d="M0 0H40V40H0V0Z" fill="url(#paint0_linear_19_812)"/>
<path d="M29.2857 23.5629C29.1629 23.9093 29.0336 24.24 28.8971 24.5572C28.5741 25.2867 28.1765 25.9809 27.7107 26.6286C27.0886 27.4929 26.5779 28.09 26.1843 28.4215C25.575 28.9672 24.9214 29.2465 24.2214 29.2615C23.7193 29.2615 23.1143 29.1229 22.4086 28.8415C21.7014 28.5607 21.0514 28.4222 20.4571 28.4222C19.8343 28.4222 19.1657 28.5607 18.45 28.8415C17.7343 29.1229 17.1571 29.27 16.7164 29.2843C16.045 29.3122 15.3771 29.0257 14.7093 28.4222C14.2836 28.0607 13.7507 27.4415 13.1121 26.565C12.4271 25.6293 11.8643 24.5422 11.4236 23.3036C10.9507 21.9665 10.7143 20.6715 10.7143 19.4179C10.7143 17.9822 11.0336 16.7436 11.6729 15.7057C12.1614 14.8858 12.8532 14.2058 13.6814 13.7315C14.5066 13.2527 15.4418 12.996 16.3957 12.9865C16.9286 12.9865 17.6271 13.1472 18.4957 13.4615C19.3614 13.7779 19.9171 13.9379 20.1614 13.9379C20.3436 13.9379 20.9614 13.7507 22.0079 13.3772C22.9979 13.0307 23.8336 12.8872 24.5186 12.9436C26.3736 13.0893 27.7664 13.8007 28.6936 15.0807C27.035 16.0579 26.215 17.4257 26.2307 19.1807C26.2457 20.5486 26.7557 21.6872 27.7586 22.5907C28.2051 23.0039 28.7224 23.3332 29.2857 23.5629ZM24.62 7.85718C24.6343 8.00003 24.6414 8.14361 24.6414 8.28575C24.6414 9.35718 24.2393 10.3586 23.4371 11.2843C22.4679 12.3857 21.2957 13.0215 20.0243 12.9215C20.0072 12.7867 19.9986 12.6509 19.9986 12.515C19.9986 11.4865 20.4593 10.385 21.2779 9.48504C21.6864 9.02932 22.2064 8.65004 22.835 8.34789C23.465 8.05004 24.0607 7.88575 24.62 7.85718Z" fill="white"/>
</g>
<defs>
<linearGradient id="paint0_linear_19_812" x1="7.44143" y1="6.93714" x2="48.6764" y2="54.2979" gradientUnits="userSpaceOnUse">
<stop stop-color="#1A1E21"/>
<stop offset="1" stop-color="#06060A"/>
</linearGradient>
<clipPath id="clip0_19_812">
<rect width="40" height="40" rx="20" fill="white"/>
</clipPath>
</defs>
</svg>
