<svg width="40" height="40" viewBox="0 0 40 40" fill="none" xmlns="http://www.w3.org/2000/svg">
<g clip-path="url(#clip0_19_786)">
<path d="M0 0H40V40H0V0Z" fill="#E82127"/>
<path d="M20 32.8571L23.2143 15C26.2621 15 27.21 15.0514 27.3486 16.4214C27.3486 16.4214 29.3936 15.6557 30.4243 14.1C26.4007 12.2285 22.3571 12.1428 22.3571 12.1428L20 15L17.6429 12.1428C17.6429 12.1428 13.6 12.2271 9.57643 14.1C10.6064 15.655 12.6521 16.4214 12.6521 16.4214C12.7914 15.05 13.7586 15.0021 16.7857 15L20 32.8571Z" fill="white"/>
<path d="M20 11.3907C23.2529 11.3657 26.9029 11.9029 30.7143 13.5714C31.2236 12.65 31.4286 12.1429 31.4286 12.1429C27.2621 10.4871 23.36 10.0143 20 10C16.6393 10.0143 12.7379 10.4871 8.57143 12.1429C8.57143 12.1429 8.83143 12.745 9.28571 13.5714C13.0964 11.9029 16.7471 11.3657 20 11.3907Z" fill="white"/>
</g>
<defs>
<clipPath id="clip0_19_786">
<rect width="40" height="40" rx="20" fill="white"/>
</clipPath>
</defs>
</svg>
