<svg width="60" height="60" viewBox="0 0 60 60" fill="none" xmlns="http://www.w3.org/2000/svg">
<path fill-rule="evenodd" clip-rule="evenodd" d="M30 0C13.4315 0 0 13.4315 0 30C0 46.5685 13.4315 60 30 60C46.5685 60 60 46.5685 60 30C60 13.4315 46.5685 0 30 0ZM30 47.1429C36.6771 47.1429 42.4618 43.3265 45.2925 37.755C44.8725 37.5493 44.4332 37.3468 43.9854 37.214C43.3157 37.0158 42.6289 37.005 41.9646 37.2279C41.3829 37.4236 40.8592 37.7544 40.3422 38.081L40.3307 38.0882L40.17 38.1911L40.1679 38.1922L40.1596 38.1974C39.0816 38.8754 37.8614 39.6429 36.3086 39.6429C34.0007 39.6429 32.3796 38.2618 31.8621 35.8522C31.4625 33.9858 30 26.7857 30 26.7857C29.3971 29.8115 28.7764 32.8337 28.1379 35.8522C27.6204 38.2607 26.0004 39.6429 23.6925 39.6429C22.1368 39.6429 20.9121 38.8725 19.8332 38.1911H19.8311L19.6693 38.0882C19.1496 37.7593 18.6214 37.425 18.0364 37.229C17.3805 37.0133 16.6736 37.008 16.0146 37.214C15.5668 37.3468 15.1275 37.5482 14.7075 37.755C17.5382 43.3254 23.3229 47.1429 30 47.1429ZM45.105 34.7454C45.5138 34.9105 45.9169 35.0896 46.3136 35.2822C46.8514 33.6182 47.1429 31.8429 47.1429 30C47.1429 20.5318 39.4682 12.8572 30 12.8572C20.5318 12.8572 12.8571 20.5318 12.8571 30C12.8554 31.7933 13.1352 33.5757 13.6864 35.2822C14.0754 35.0957 14.4825 34.9104 14.8961 34.7454C16.8557 33.9622 18.6514 34.2247 20.4504 35.3175C20.4504 35.3175 21.1071 35.7193 21.3032 35.8425L21.315 35.8511L21.322 35.8555C22.154 36.3778 22.9382 36.87 23.6925 36.87C24.4179 36.87 25.1314 36.675 25.4336 35.2682C25.905 33.074 27.0536 27.6815 27.555 25.0104C27.8486 23.4418 28.0104 22.5965 28.1786 22.0211C28.4721 21.0172 29.0089 20.4675 29.7696 20.3765C29.7696 20.3765 29.9036 20.3572 30 20.3572C30.0975 20.3572 30.2186 20.3743 30.2186 20.3743C30.9868 20.4622 31.5268 21.0107 31.8225 22.0211C31.9896 22.5954 32.1514 23.4418 32.4461 25.0115C32.9475 27.6825 34.0961 33.074 34.5675 35.2682C34.8696 36.675 35.5832 36.869 36.3086 36.869C37.065 36.869 37.8514 36.375 38.685 35.8511L38.6979 35.8425C38.8939 35.7193 39.5496 35.3175 39.5496 35.3175C41.3486 34.2247 43.1443 33.9622 45.105 34.7454Z" fill="white"/>
</svg>
