<svg width="60" height="60" viewBox="0 0 60 60" fill="none" xmlns="http://www.w3.org/2000/svg">
<path fill-rule="evenodd" clip-rule="evenodd" d="M30 0C13.4315 0 0 13.4315 0 30C0 46.5685 13.4315 60 30 60C46.5685 60 60 46.5685 60 30C60 13.4315 46.5685 0 30 0ZM19.3554 12.8797C24.7211 13.0993 33.4264 15.0118 40.9382 21.6279C44.8136 24.9365 47.2575 28.6125 47.1386 34.0533C47.0196 41.6261 40.2225 44.7879 33.1875 44.5672C31.7571 44.5672 29.9089 44.2736 28.0607 43.6843C27.8818 45.8165 27.5239 47.2136 26.7482 47.1397C25.9736 47.0668 25.6757 45.1554 25.5557 42.7286C21.3825 40.964 17.6271 37.95 17.8061 33.7597C17.985 32.3625 19.6543 29.2747 25.9136 28.5397C26.1525 25.0843 26.5104 22.0704 27.1061 22.0704C27.4639 22.0704 28.0007 24.2754 28.1796 28.3918C35.0357 28.245 38.1364 30.524 38.1954 31.6275C38.1954 32.73 36.765 34.2 35.7514 34.3468C34.8216 34.4825 34.8449 34.0609 34.855 33.8761C34.856 33.8595 34.8568 33.8448 34.8568 33.8325C34.8568 33.6118 35.9304 32.6561 36.0493 32.5833C36.1093 32.5093 36.2282 32.3625 35.9304 32.2897C35.9224 32.2872 35.9129 32.2841 35.9017 32.2805C35.5793 32.1762 33.8909 31.63 28.3586 31.7004H28.2386V33.9065C28.2386 36.6268 28.2386 39.2004 28.1786 41.3325C29.61 41.7729 31.1604 41.9936 32.7107 42.0675C40.2225 42.2143 43.86 37.8761 43.9189 33.3922C43.9779 25.5986 33.0686 15.9675 18.5207 14.865C14.1593 14.5055 14.1655 14.9871 14.1684 15.2158C14.1685 15.2215 14.1686 15.2271 14.1686 15.2325C14.1686 15.2795 14.2969 15.3491 14.4714 15.4438C14.8421 15.6448 15.4211 15.9588 15.4211 16.409C15.4211 16.7765 14.4075 16.5558 14.0496 16.335C13.7518 16.1883 12.8571 15.4522 12.8571 14.7172C12.8571 14.129 13.3939 12.659 19.3554 12.8797ZM25.7346 31.7743C21.6214 32.0679 19.2364 33.0236 19.1175 34.6415C18.9975 36.0386 21.6804 38.6122 25.5568 40.3758V40.3756C25.5568 38.7578 25.5568 37.0682 25.6168 35.5972C25.6168 34.56 25.6689 33.3276 25.7242 32.022C25.7277 31.9397 25.7311 31.8571 25.7346 31.7743Z" fill="white"/>
</svg>
