<svg width="40" height="40" viewBox="0 0 40 40" fill="none" xmlns="http://www.w3.org/2000/svg">
<g clip-path="url(#clip0_19_777)">
<path d="M0 0H40V40H0V0Z" fill="url(#paint0_linear_19_777)"/>
<path d="M8.63357 18.8086C8.63357 18.8086 11.2707 15.3807 16.4286 15.0229V13.5986C10.7157 14.0143 5.71429 18.5714 5.71429 18.5714C5.71429 18.5714 8.57 25.8893 16.4286 26.5622V25.2286C10.6621 24.5707 8.63357 18.8072 8.63357 18.8072V18.8086ZM16.4286 22.5786V23.7993C12.07 23.095 10.8064 18.9864 10.8064 18.9864C10.8064 18.9864 12.9529 16.7693 16.4286 16.4286V17.8822C16.4257 17.8822 16.4307 17.8822 16.4286 17.8822C14.6043 17.6836 13.1186 19.2293 13.1186 19.2293C13.1186 19.2293 13.9714 21.83 16.4286 22.5786ZM16.4286 11.4286V13.5986C16.5964 13.5864 16.71 13.5772 16.8786 13.5714C23.3736 13.3729 27.6057 18.5443 27.6057 18.5443C27.6057 18.5443 22.745 23.9036 17.6814 23.9036C17.2171 23.9036 16.8364 23.865 16.4286 23.7993V25.2286C16.7779 25.2686 17.0857 25.2936 17.4629 25.2936C22.175 25.2936 25.5829 23.1107 28.8829 20.5279C29.43 20.9257 31.67 21.8922 32.13 22.315C28.9929 24.6972 21.68 26.6172 17.535 26.6172C17.135 26.6172 16.8064 26.595 16.4286 26.5622V28.5714H34.2857V11.4286H16.4286ZM16.4286 16.4286V15.0236C16.5943 15.0129 16.7079 15.005 16.8786 15C21.5493 14.8672 24.6136 18.6107 24.6136 18.6107C24.6136 18.6107 21.4064 22.8572 17.8571 22.8572C17.3464 22.8572 16.8407 22.7043 16.4286 22.5786V17.8822C18.2471 18.0822 18.5586 18.8107 19.6521 20.4629L22.0829 18.6043C22.0829 18.6043 20.1357 16.4286 17.1429 16.4286C16.8179 16.4286 16.7343 16.3993 16.4286 16.4286Z" fill="#76B900"/>
</g>
<defs>
<linearGradient id="paint0_linear_19_777" x1="7.44143" y1="6.93714" x2="48.6764" y2="54.2979" gradientUnits="userSpaceOnUse">
<stop stop-color="#1A1E21"/>
<stop offset="1" stop-color="#06060A"/>
</linearGradient>
<clipPath id="clip0_19_777">
<rect width="40" height="40" rx="20" fill="white"/>
</clipPath>
</defs>
</svg>
