<svg width="152" height="143" viewBox="0 0 152 143" fill="none" xmlns="http://www.w3.org/2000/svg">
<g clip-path="url(#clip0_129_3638)">
<path d="M29 0H109V80H29V0Z" fill="#FF6600"/>
<path d="M47.7714 52.0715C47.4857 52 47.1 51.7857 46.7714 51.5286C43.9429 48.7572 47.5429 45.5286 51.7286 43.6429V38.3143C52.7286 38.9143 53.2143 38.9715 53.2857 39.0857L56.4571 35.8429L55.4 33.1286C64.7429 29.8143 68.5143 28.5572 76.1143 27.2429L74.7571 25.9857L77 24.6572C82.1143 26.4 86.8857 26.8429 86.0714 31.2C86.2857 28.2715 82.7 27.1429 77.1571 25.5429L76.1286 26.2L78.1571 27.9143C70.8836 29.1851 63.7402 31.112 56.8143 33.6714L57.7 36.0857L54.4 39.4143C54.9571 39.5715 60.7429 41.5714 66.8286 37.2572C66.8571 37.2143 66.9571 37.2 66.9571 37.1143C66.7429 36.8286 66.3571 36.5286 65.8571 36.0429C66.2592 36.0756 66.6502 36.1906 67.006 36.3808C67.3617 36.571 67.6746 36.8322 67.9251 37.1484C68.1756 37.4646 68.3584 37.8289 68.4623 38.2187C68.5661 38.6084 68.5886 39.0154 68.5286 39.4143H67.7286C67.8143 38.9 67.6857 38.3 67.4714 37.9143C65.4082 39.5107 62.9769 40.5632 60.4009 40.975C57.8249 41.3869 55.1867 41.145 52.7286 40.2715V44.4143C50.4429 45.2 46.4429 47.7429 46.4714 50.1857C46.6143 51.3286 47.2143 51.7572 47.7714 52.0715Z" fill="#010101"/>
<path d="M66.7571 51C61.7286 53.6286 56.9429 55.7 49.4714 56C39.8286 55.8 38.3286 49.2572 42.9143 42.4143C47.2143 35.5143 54.0714 29.2715 65 25.3429C68.9328 23.869 73.075 23.03 77.2714 22.8572C83.7286 22.8 89.9857 24.8572 89.5571 31.1286C89.3571 35.9572 82.5143 42.8 78.9571 47.6857C77.3857 49.8 77.1429 51.1715 79.7571 51.0857C89.2714 50.4429 94.9571 48.3715 102.929 44.8857C97.5714 48.6 72.4714 61.5143 72.3143 51.8143C72.3571 50.6143 72.9429 49.3143 73.8429 47.9429C74.8952 46.4306 76.0402 44.9849 77.2714 43.6143C79.1714 41.3857 83.9 36.0715 85.5 32.8429C88.1714 26.8143 82.1571 26.5 77 24.6143L74.7571 25.9429L76.1 27.2143C68.5286 28.5 64.7571 29.7857 55.4143 33.0715L56.4714 35.8143L53.3 39.0429C53.2429 38.9572 52.7429 38.8857 51.7286 38.2857V43.6143C47.5571 45.4857 43.9571 48.7429 46.7857 51.5C47.1 51.7572 47.5 51.9857 47.7857 52.0572H47.7571C52.9 55.0429 66.7857 51 66.7571 51Z" fill="white"/>
</g>
<g clip-path="url(#clip1_129_3638)">
<path d="M0 63H80V143H0V63Z" fill="url(#paint0_linear_129_3638)"/>
<path d="M58.5714 110.126C58.3257 110.819 58.0671 111.48 57.7943 112.114C57.1482 113.573 56.353 114.962 55.4214 116.257C54.1771 117.986 53.1557 119.18 52.3686 119.843C51.15 120.934 49.8429 121.493 48.4429 121.523C47.4386 121.523 46.2286 121.246 44.8171 120.683C43.4029 120.121 42.1029 119.844 40.9143 119.844C39.6686 119.844 38.3314 120.121 36.9 120.683C35.4686 121.246 34.3143 121.54 33.4329 121.569C32.09 121.624 30.7543 121.051 29.4186 119.844C28.5671 119.121 27.5014 117.883 26.2243 116.13C24.8543 114.259 23.7286 112.084 22.8471 109.607C21.9014 106.933 21.4286 104.343 21.4286 101.836C21.4286 98.9643 22.0671 96.4872 23.3457 94.4114C24.3227 92.7715 25.7064 91.4115 27.3629 90.4629C29.0132 89.5054 30.8835 88.992 32.7914 88.9729C33.8571 88.9729 35.2543 89.2943 36.9914 89.9229C38.7229 90.5557 39.8343 90.8757 40.3229 90.8757C40.6871 90.8757 41.9229 90.5014 44.0157 89.7543C45.9957 89.0614 47.6671 88.7743 49.0371 88.8872C52.7471 89.1786 55.5329 90.6014 57.3871 93.1614C54.07 95.1157 52.43 97.8514 52.4614 101.361C52.4914 104.097 53.5114 106.374 55.5171 108.181C56.4102 109.008 57.4448 109.666 58.5714 110.126ZM49.24 78.7143C49.2686 79 49.2829 79.2872 49.2829 79.5714C49.2829 81.7143 48.4786 83.7172 46.8743 85.5686C44.9357 87.7714 42.5914 89.0429 40.0486 88.8429C40.0144 88.5733 39.9972 88.3018 39.9971 88.03C39.9971 85.9729 40.9186 83.77 42.5557 81.97C43.3729 81.0586 44.4129 80.3 45.67 79.6957C46.93 79.1 48.1214 78.7714 49.24 78.7143Z" fill="white"/>
</g>
<g clip-path="url(#clip2_129_3638)">
<path d="M72 52H152V132H72V52Z" fill="#0071C5"/>
<path d="M100.671 89.5229L100.664 98.1271H98.0057L98.0129 87.0743L103.863 87.1171C106.44 87.1171 107.317 88.91 107.317 90.4114V98.1271H104.657V90.5229C104.657 89.8943 103.861 89.56 102.657 89.56L100.671 89.5229ZM120.209 89.2829C119.204 89.2829 118.556 89.7529 118.231 90.39C118.039 90.7729 117.973 91.0657 117.95 91.5343H122.341C122.284 90.3914 121.713 89.2829 120.209 89.2829ZM117.95 93.2329C117.95 94.5986 118.756 95.7243 120.423 95.7243C121.721 95.7243 122.03 95.3957 122.78 94.7171L124.594 96.2914C123.433 97.3343 122.571 98.1271 120.423 98.1271C117.611 98.1271 115.291 96.6843 115.291 92.62C115.291 89.1486 117.249 87.0743 120.334 87.0743C123.466 87.0743 124.596 89.2557 124.596 92.27V93.2329H117.95ZM112.419 98.1271C110.024 98.1271 108.647 96.6129 108.647 95.1171V84.0886H111.336V87.1129H113.963V89.56H111.304V94.61C111.304 95.2229 111.969 95.68 112.961 95.68H113.961V98.1271H112.419ZM95.3543 85.8886H92.6971L92.6886 83.4414H95.3471L95.3543 85.8886ZM95.3543 98.1271C93.14 97.9343 92.6929 96.4586 92.6929 95.0486L92.6886 87.1129H95.3543V98.1271ZM129.943 97.6871C127.731 97.4929 127.253 96.2729 127.253 94.8657V83.4414H129.943V97.6871ZM140.291 84.61C137.609 72.7157 111.72 71.9343 95.3543 80.9929V81.9929C111.704 74.3529 135.389 74.4271 137.501 85.3814C138.209 89.0043 136.579 92.9457 132.57 95.1171V97.9571C137.396 96.3514 141.729 90.9814 140.291 84.61ZM110.543 105.42C99.2471 106.369 87.4771 104.877 85.83 96.8529C85.0243 92.8957 87.41 89.1057 90.04 86.5014V85.1071C85.3057 88.8829 82.3329 93.2571 83.8114 98.9029C85.7 106.143 95.8014 110.246 111.221 108.883C117.321 108.341 125.691 106.406 131.243 103.636V99.7C126.206 102.427 117.486 104.834 110.543 105.42Z" fill="white"/>
</g>
<defs>
<linearGradient id="paint0_linear_129_3638" x1="14.8829" y1="76.8743" x2="97.3529" y2="171.596" gradientUnits="userSpaceOnUse">
<stop stop-color="#1A1E21"/>
<stop offset="1" stop-color="#06060A"/>
</linearGradient>
<clipPath id="clip0_129_3638">
<rect x="29" width="80" height="80" rx="40" fill="white"/>
</clipPath>
<clipPath id="clip1_129_3638">
<rect y="63" width="80" height="80" rx="40" fill="white"/>
</clipPath>
<clipPath id="clip2_129_3638">
<rect x="72" y="52" width="80" height="80" rx="40" fill="white"/>
</clipPath>
</defs>
</svg>
