<svg width="96" height="128" viewBox="0 0 96 128" fill="none" xmlns="http://www.w3.org/2000/svg">
<g clip-path="url(#clip0_129_3642)">
<path d="M0 48H80V128H0V48Z" fill="#F0F3FA"/>
<mask id="mask0_129_3642" style="mask-type:luminance" maskUnits="userSpaceOnUse" x="14" y="70" width="52" height="36">
<path d="M14.2857 70.8571H65.7143V105.143H14.2857V70.8571Z" fill="white"/>
</mask>
<g mask="url(#mask0_129_3642)">
<path fill-rule="evenodd" clip-rule="evenodd" d="M40.7086 78.0743C40.7038 78.0799 40.699 78.0856 40.6943 78.0914C36.5957 72.8528 33.1671 70.8571 29.0643 70.8571C20.6971 70.8571 14.2857 81.78 14.2857 93.3457C14.2857 100.58 17.7743 105.143 23.6186 105.143C27.8257 105.143 30.85 103.154 36.2286 93.7228C36.2286 93.7228 38.4586 89.7728 40 87.0371V86.9285L40.7086 78.0743ZM23.8286 99.56C26.2557 99.56 27.7657 98.0257 32.1271 91.1685C32.1271 91.1685 34.1086 88.0114 37.3786 82.97C33.9357 78.02 31.6829 76.46 28.99 76.46C24.0171 76.46 19.8443 85.0457 19.8443 93.4371C19.8443 97.36 21.33 99.5614 23.83 99.5614L23.8286 99.56Z" fill="url(#paint0_linear_129_3642)"/>
<path fill-rule="evenodd" clip-rule="evenodd" d="M40.0214 87.0314L40.7143 78.7143L40.6629 78.05L40.6957 78.0914C43.6814 74.0428 46.9771 70.8571 51.1943 70.8571C59.1557 70.8571 65.7114 81.0257 65.7143 93.1328C65.7143 100.519 62.5457 105.143 56.8529 105.143C51.8914 105.143 49.1529 102.346 44.2429 94.1L41.72 89.8443C41.1611 88.9015 40.5944 87.9634 40.02 87.03L40.0214 87.0314ZM45.5686 85.26L48.5829 90.3028C53.2986 97.9157 54.4843 99.56 56.9686 99.5643C59.56 99.5643 60.8114 97.34 60.8114 93.51C60.8114 83.46 56.3814 75.28 50.8414 75.28C48.1757 75.28 45.9343 77.3785 43.2171 81.5857C44.0254 82.7947 44.8093 84.0197 45.5686 85.26Z" fill="url(#paint1_linear_129_3642)"/>
<path d="M40.6957 78.0914C43.6814 74.0428 46.9771 70.8571 51.1943 70.8571C59.1557 70.8571 65.7114 81.0257 65.7143 93.1328L60.81 93.51C60.81 83.46 56.3814 75.28 50.8414 75.28C48.1757 75.28 45.9343 77.3785 43.2171 81.5857L40.0114 87.0157C38.7514 89.2519 37.4904 91.4876 36.2286 93.7228C30.85 103.154 27.8257 105.143 23.6186 105.143L23.83 99.5614C26.2571 99.5614 27.7671 98.0257 32.1286 91.1685C32.1286 91.1685 34.11 88.0114 37.38 82.97L40.6957 78.0914Z" fill="url(#paint2_linear_129_3642)"/>
<path d="M45.5686 85.26C39.0314 74.5943 34.6772 70.8571 29.0629 70.8571L28.9914 76.46C32.6686 76.46 35.5186 79.3671 41.7172 89.8414L42.0972 90.4785L45.5686 85.26Z" fill="#0466E0"/>
</g>
</g>
<g clip-path="url(#clip1_129_3642)">
<path d="M16 0H96V80H16V0Z" fill="url(#paint3_linear_129_3642)"/>
<path d="M40.2857 12.8571H50.2857V67.1428H40.2857V12.8571ZM61.7143 12.8571H71.7143V67.1428H61.7143V12.8571Z" fill="#DB0916"/>
<path d="M61.2386 67.1428H71.7143L50.7614 12.8571H40.2857L61.2386 67.1428Z" fill="#FF3540"/>
</g>
<defs>
<linearGradient id="paint0_linear_129_3642" x1="27.8571" y1="73.7143" x2="36.4286" y2="91.5714" gradientUnits="userSpaceOnUse">
<stop stop-color="#0064E0"/>
<stop offset="1" stop-color="#0082FB"/>
</linearGradient>
<linearGradient id="paint1_linear_129_3642" x1="60.7143" y1="93.7143" x2="45.7143" y2="88" gradientUnits="userSpaceOnUse">
<stop stop-color="#0181FA"/>
<stop offset="1" stop-color="#0967DF"/>
</linearGradient>
<linearGradient id="paint2_linear_129_3642" x1="32.1429" y1="89.4285" x2="70" y2="90.8571" gradientUnits="userSpaceOnUse">
<stop stop-color="#0082FB"/>
<stop offset="1" stop-color="#0180F9"/>
</linearGradient>
<linearGradient id="paint3_linear_129_3642" x1="30.8829" y1="13.8743" x2="113.353" y2="108.596" gradientUnits="userSpaceOnUse">
<stop stop-color="#1A1E21"/>
<stop offset="1" stop-color="#06060A"/>
</linearGradient>
<clipPath id="clip0_129_3642">
<rect y="48" width="80" height="80" rx="40" fill="white"/>
</clipPath>
<clipPath id="clip1_129_3642">
<rect x="16" width="80" height="80" rx="40" fill="white"/>
</clipPath>
</defs>
</svg>
