<svg width="167" height="161" viewBox="0 0 167 161" fill="none" xmlns="http://www.w3.org/2000/svg">
<mask id="mask0_39_1484" style="mask-type:alpha" maskUnits="userSpaceOnUse" x="0" y="0" width="167" height="161">
<rect width="167" height="161" rx="10" fill="#E08178"/>
</mask>
<g mask="url(#mask0_39_1484)">
<g clip-path="url(#clip0_39_1484)">
<path fill-rule="evenodd" clip-rule="evenodd" d="M23 113C6.43146 113 -7 126.431 -7 143C-7 159.569 6.43146 173 23 173C39.5685 173 53 159.569 53 143C53 126.431 39.5685 113 23 113ZM29.6032 132.374C33.5065 133.729 36.3404 135.725 35.7886 139.469V139.468H35.7704C35.3782 142.195 33.8632 143.533 31.849 143.978C34.6122 145.44 36.02 147.633 34.684 151.464C33.0254 156.225 29.0675 156.616 23.809 155.618L22.5436 160.734L19.4611 159.967L20.7254 154.923L18.2482 154.281L17 159.344L13.9165 158.578L15.2 153.462L13.0079 152.89L8.99753 151.893L10.5297 148.381C10.5297 148.381 12.7936 148.969 12.7582 148.915C13.6304 149.148 14.0236 148.578 14.1661 148.203L16.1804 140.128L16.519 140.199L16.1975 140.092L17.6247 134.317C17.66 133.675 17.4457 132.856 16.1975 132.534C16.234 132.517 13.9518 131.982 13.9518 131.982L14.7725 128.684L19.0325 129.754V129.771L20.9932 130.235L22.2586 125.173L25.3422 125.939L24.095 130.894L26.555 131.482L27.785 126.562L30.8675 127.329L29.6032 132.374ZM19.9419 150.763C22.4881 151.424 27.8889 152.825 28.7472 149.344V149.326C29.6383 145.779 24.3962 144.588 21.776 143.993C21.4601 143.921 21.1822 143.858 20.9579 143.8L19.265 150.591C19.4564 150.637 19.6846 150.696 19.9419 150.763ZM22.2297 140.83C24.322 141.385 28.9077 142.6 29.6922 139.415C30.5124 136.149 26.0305 135.163 23.8655 134.687C23.6323 134.636 23.426 134.59 23.2561 134.549L21.724 140.699C21.8686 140.734 22.0388 140.78 22.2297 140.83Z" fill="white"/>
</g>
<g clip-path="url(#clip1_39_1484)">
<path fill-rule="evenodd" clip-rule="evenodd" d="M31.5 62C19.6259 62 10 71.6259 10 83.5C10 95.3741 19.6259 105 31.5 105C43.3741 105 53 95.3741 53 83.5C53 71.6259 43.3741 62 31.5 62ZM26.1127 78.125H36.875V88.8873L43.7857 95.5807V71.2143H19.4201L26.1127 78.125ZM26.125 79.2499V88.875H35.7493L28.8586 95.7857H19.2143V86.1399L26.125 79.2499Z" fill="white"/>
</g>
<path fill-rule="evenodd" clip-rule="evenodd" d="M113.5 112C101.626 112 92 121.626 92 133.5C92 145.374 101.626 155 113.5 155C125.374 155 135 145.374 135 133.5C135 121.626 125.374 112 113.5 112ZM99.3952 140.329C100.039 140.851 100.863 141.133 101.87 141.173H101.869C102.99 141.219 104.374 140.954 105.92 140.401C106.526 140.184 106.87 140.042 108.156 139.481C116.28 135.936 131.93 129.103 131.929 129.102C131.929 129.1 126.416 130.595 119.68 132.423C112.945 134.252 107.342 135.77 107.229 135.797C105.586 136.182 104.242 136.145 103.323 135.685C102.798 135.423 102.332 134.948 102.06 134.401C101.665 133.604 101.627 132.579 101.946 131.383C102.146 130.638 102.511 129.777 102.939 129.046C102.988 128.962 103.028 128.893 103.026 128.893C103.021 128.893 102.3 129.704 102.058 129.982C100.413 131.868 99.4713 133.23 98.8608 134.603C98.1475 136.207 97.9601 137.669 98.3241 138.782C98.4475 139.153 98.636 139.5 98.8808 139.805C99.0392 139.992 99.2111 140.167 99.3952 140.329Z" fill="white"/>
<path fill-rule="evenodd" clip-rule="evenodd" d="M92 36C77.6406 36 66 47.6406 66 62C66 76.3594 77.6406 88 92 88C106.359 88 118 76.3594 118 62C118 47.6406 106.359 36 92 36ZM92 76.8572C97.7869 76.8572 102.8 73.5496 105.254 68.721C104.89 68.5427 104.509 68.3672 104.121 68.2521C103.54 68.0803 102.945 68.071 102.369 68.2642C101.865 68.4338 101.411 68.7205 100.963 69.0035L100.953 69.0098L100.814 69.099L100.812 69.0999L100.805 69.1044C99.8708 69.692 98.8132 70.3572 97.4675 70.3572C95.4673 70.3572 94.0624 69.1602 93.6139 67.0719C93.2675 65.4543 92 59.2143 92 59.2143C91.4776 61.8367 90.9396 64.4559 90.3862 67.0719C89.9377 69.1593 88.5337 70.3572 86.5335 70.3572C85.1853 70.3572 84.1239 69.6895 83.1888 69.099H83.187L83.0468 69.0098C82.5964 68.7247 82.1386 68.435 81.6316 68.2651C81.0632 68.0782 80.4505 68.0736 79.8794 68.2521C79.4913 68.3672 79.1105 68.5418 78.7465 68.721C81.1998 73.5487 86.2132 76.8572 92 76.8572ZM105.091 66.1127C105.445 66.2558 105.795 66.411 106.138 66.5779C106.605 65.1358 106.857 63.5972 106.857 62C106.857 53.7942 100.206 47.1429 92 47.1429C83.7943 47.1429 77.1429 53.7942 77.1429 62C77.1414 63.5542 77.3839 65.099 77.8616 66.5779C78.1987 66.4163 78.5515 66.2557 78.91 66.1127C80.6083 65.4339 82.1646 65.6614 83.7237 66.6085C83.7237 66.6085 84.2929 66.9567 84.4628 67.0635L84.473 67.071L84.4791 67.0748C85.2002 67.5274 85.8798 67.954 86.5335 67.954C87.1622 67.954 87.7806 67.785 88.0425 66.5658C88.451 64.6641 89.4465 59.9906 89.881 57.6757C90.1355 56.3162 90.2757 55.5836 90.4215 55.085C90.6759 54.2149 91.1411 53.7385 91.8004 53.6596C91.8004 53.6596 91.9165 53.6429 92 53.6429C92.0845 53.6429 92.1895 53.6577 92.1895 53.6577C92.8552 53.7339 93.3232 54.2093 93.5795 55.085C93.7244 55.5827 93.8646 56.3162 94.12 57.6766C94.5545 59.9915 95.55 64.6641 95.9585 66.5658C96.2204 67.785 96.8388 67.9531 97.4675 67.9531C98.123 67.9531 98.8046 67.525 99.527 67.071L99.5382 67.0635C99.7081 66.9567 100.276 66.6085 100.276 66.6085C101.835 65.6614 103.392 65.4339 105.091 66.1127Z" fill="white"/>
<path fill-rule="evenodd" clip-rule="evenodd" d="M142.5 70C132.835 70 125 77.835 125 87.5C125 97.165 132.835 105 142.5 105C152.165 105 160 97.165 160 87.5C160 77.835 152.165 70 142.5 70ZM136.291 77.5132C139.421 77.6413 144.499 78.7569 148.881 82.6163C151.141 84.5463 152.567 86.6907 152.498 89.8644C152.428 94.2819 148.463 96.1263 144.359 95.9975C143.525 95.9975 142.447 95.8263 141.369 95.4825C141.264 96.7263 141.056 97.5413 140.603 97.4982C140.151 97.4557 139.978 96.3407 139.908 94.925C137.473 93.8957 135.283 92.1375 135.387 89.6932C135.491 88.8782 136.465 87.0769 140.116 86.6482C140.256 84.6325 140.464 82.8744 140.812 82.8744C141.021 82.8744 141.334 84.1607 141.438 86.5619C145.438 86.4763 147.246 87.8057 147.281 88.4494C147.281 89.0925 146.446 89.95 145.855 90.0357C145.313 90.1148 145.326 89.8689 145.332 89.7611C145.333 89.7514 145.333 89.7428 145.333 89.7357C145.333 89.6069 145.959 89.0494 146.029 89.0069C146.064 88.9638 146.133 88.8782 145.959 88.8357C145.955 88.8342 145.949 88.8324 145.943 88.8303C145.755 88.7695 144.77 88.4508 141.543 88.4919H141.473V89.7788C141.473 91.3657 141.473 92.8669 141.438 94.1107C142.273 94.3675 143.177 94.4963 144.081 94.5394C148.463 94.625 150.585 92.0944 150.619 89.4788C150.654 84.9325 144.29 79.3144 135.804 78.6713C133.26 78.4616 133.263 78.7425 133.265 78.8759C133.265 78.8792 133.265 78.8825 133.265 78.8857C133.265 78.9131 133.34 78.9537 133.442 79.0089C133.658 79.1261 133.996 79.3093 133.996 79.5719C133.996 79.7863 133.404 79.6575 133.196 79.5288C133.022 79.4432 132.5 79.0138 132.5 78.585C132.5 78.2419 132.813 77.3844 136.291 77.5132ZM140.012 88.535C137.613 88.7063 136.221 89.2638 136.152 90.2075C136.082 91.0225 137.647 92.5238 139.908 93.5525C139.908 92.6088 139.908 91.6232 139.943 90.765C139.943 90.1601 139.974 89.4411 140.006 88.6796C140.008 88.6316 140.01 88.5834 140.012 88.535Z" fill="white"/>
<path fill-rule="evenodd" clip-rule="evenodd" d="M40 5C27.8497 5 18 14.8497 18 27C18 39.1503 27.8497 49 40 49C52.1503 49 62 39.1503 62 27C62 14.8497 52.1503 5 40 5ZM52.5377 31.2342L52.6548 31.1328C53.2511 30.4045 53.728 29.574 54.1885 28.771C54.2211 28.7147 54.2539 28.6581 54.2868 28.6013C54.4914 28.2478 54.7013 27.8853 54.92 27.5374C54.9349 27.5089 54.9447 27.4781 54.949 27.4463C54.949 27.3826 54.9019 27.3174 54.861 27.2805C54.6858 27.209 54.52 27.3001 54.366 27.4093C53.4712 28.1118 52.8568 29.1197 52.33 29.984L52.3035 30.0273L52.2564 30.1263L52.2542 30.1308C52.0695 30.5049 51.8793 30.8901 51.8887 31.3049C51.8989 31.363 51.9382 31.4369 51.9955 31.4573C52.1978 31.5338 52.3667 31.3849 52.5291 31.2418L52.5377 31.2342ZM46.9552 28.3341C47.0738 28.8928 47.689 29.0963 47.7236 29.0727C47.9169 28.7435 48.074 28.3742 48.1762 27.9986L48.1785 27.975L48.1809 27.9567C48.1937 27.8571 48.2076 27.7485 48.2076 27.6427C48.2076 27.4604 48.1683 27.2899 48.0245 27.1956C47.9389 27.1705 47.8485 27.1657 47.7607 27.1817C47.6728 27.1976 47.5899 27.2339 47.5185 27.2875C47.1917 27.4769 46.8546 27.8525 46.9552 28.3341ZM45.2895 31.0464C45.2872 31.1525 45.317 31.2569 45.3751 31.3458C45.8984 31.9421 47.1516 30.2293 47.5178 29.4302C47.2231 29.3045 46.7352 29.0075 46.5207 28.5439H46.5191C46.0053 29.1921 45.2777 30.3817 45.2895 31.0464ZM54.0195 31.2963C53.9559 31.4825 54.1264 31.5445 54.2482 31.4636C54.9214 31.0756 55.4613 30.2733 55.8904 29.6356C55.907 29.6109 55.9235 29.5864 55.9398 29.5622H56.3429C56.3021 29.6299 56.2442 29.7313 56.1722 29.8574C55.7023 30.6805 54.6307 32.5576 53.7736 33.0162C53.7348 33.0367 53.6968 33.0578 53.6592 33.0786C53.4293 33.2056 53.215 33.324 52.9415 33.2747C52.4772 33.2165 52.544 31.9861 52.6288 31.664C52.5511 31.7447 52.4393 31.9047 52.3072 32.0937C51.9902 32.5473 51.5561 33.1683 51.1957 33.2637C50.751 33.3493 50.2583 32.5212 50.4194 31.4165C50.3685 31.4791 50.3164 31.5438 50.2633 31.6097C49.5353 32.5127 48.6224 33.6452 48.1047 33.0162C47.7157 32.5393 47.9963 31.0778 48.408 29.8922C48.408 29.8922 48.5463 29.4852 48.562 29.4349C48.5565 29.431 48.5549 29.431 48.551 29.431C48.324 29.4889 48.0344 29.5051 47.9359 29.5106C47.9181 29.5116 47.9066 29.5122 47.9028 29.5127C47.8109 29.6707 47.7149 29.8418 47.6145 30.0209C47.0039 31.1095 46.2276 32.4934 45.2156 33.017C45.042 33.105 44.6004 33.2873 44.2492 33.1113C43.9074 32.9219 43.8076 31.9893 43.8736 31.4C43.9663 30.6473 44.3034 29.9904 44.6413 29.3775C45.2683 28.4119 46.1388 27.2396 47.3033 26.765C47.5633 26.6503 47.9491 26.5788 48.2603 26.7313C48.5274 26.9214 48.5981 27.1956 48.5981 27.4871C48.5981 27.6223 48.5816 27.7613 48.5643 27.8973C48.463 28.371 48.2603 28.8087 48.0992 29.1332C48.177 29.1843 48.6335 29.079 48.7513 28.991C50.3793 25.6509 52.243 23.205 54.4493 21.5078L54.4666 21.4976C54.5584 21.4361 54.6539 21.3644 54.7522 21.2907C55.1144 21.0193 55.514 20.7197 55.899 20.792C55.9729 20.8058 56.0408 20.8423 56.0932 20.8963C56.1455 20.9504 56.1798 21.0194 56.1912 21.0938C56.2706 21.5778 56.0742 22.138 55.8778 22.5002C55.708 22.5552 55.4511 22.6023 55.4511 22.6023L55.6334 22.2362C55.7623 21.9855 55.8754 21.7648 55.8613 21.4678C55.8235 21.3892 55.7795 21.3853 55.745 21.3892C55.4228 21.4536 55.0095 21.8465 54.6096 22.2299L54.3519 22.4735C52.7113 24.0826 50.7832 27.4463 50.4846 28.151C51.158 27.8289 53.38 25.6682 54.4658 24.1808C54.6882 24.1738 54.8768 24.1368 54.8768 24.1368C54.7023 24.4715 53.5128 25.9723 52.1016 27.297C51.4794 27.8802 50.8132 28.4148 50.109 28.8959C49.8003 29.5504 49.4938 30.2717 49.3626 31.0307C49.3469 31.1352 49.3123 31.5862 49.6533 31.5595C50.0894 31.4644 50.8767 30.1876 50.8767 30.1876C50.9337 30.0999 50.992 30.0095 51.0517 29.917C51.7735 28.7986 52.6943 27.372 53.8938 26.6825C54.1924 26.5168 54.6253 26.4303 54.9208 26.6134C54.9891 26.6574 55.1565 26.8609 55.2115 26.952C55.2115 26.952 55.3348 26.7391 55.3922 26.6464H56.5998L54.8115 29.8553C54.8115 29.8553 54.179 30.8217 54.0195 31.2963ZM40.1501 24.8872L39.0022 24.8385L39.6308 23.7793H40.7622L40.1501 24.8872ZM54.2521 22.8655C55.3348 22.9748 56.229 22.6628 57.0917 22.182C58.1445 21.5958 58.8572 20.7968 58.8572 20.7968C58.8572 20.7968 58.37 21.8166 57.4193 22.6259C56.5213 23.4289 54.9105 24.272 53.391 23.8925C53.6605 23.5405 53.952 23.1979 54.2521 22.8655ZM45.5464 25.0718C45.9424 24.9768 47.4683 24.0693 47.6474 22.0437C47.6553 21.969 47.6553 21.9148 47.6317 21.83C46.6433 22.3281 45.6525 23.1814 45.1135 24.3262C44.7473 25.1763 45.306 25.119 45.5464 25.0718ZM43.7754 26.6464C44.0661 26.6299 44.3387 26.7863 44.4535 27.0298C44.7065 27.5515 44.543 28.2359 44.3961 28.7199C43.788 30.3495 42.4892 32.3593 41.1299 33.0162C40.5029 33.2637 39.6143 33.413 38.9448 32.7255C38.1567 31.9154 38.3328 29.9566 38.6549 29.0279C39.0737 27.6498 39.8594 26.2535 41.126 24.6381C42.849 22.5748 44.5548 21.2792 46.2857 20.792C46.7666 20.6765 47.4203 20.6357 47.8187 21.0631C47.8187 21.0631 48.0112 20.9987 48.2225 20.924C48.7592 20.7339 49.7146 20.5964 51.0095 21.291L51.0668 21.3219C51.6187 21.6199 52.1781 21.9219 52.7082 22.2393L53.05 22.446C52.8135 22.666 52.3939 23.1068 52.1378 23.3983C51.9256 23.3076 51.5561 23.0818 51.1431 22.8293C50.5358 22.4581 49.8343 22.0293 49.4003 21.8881C49.4003 21.8881 48.4669 21.4678 48.0112 21.705C48.0183 21.786 48.0222 21.8944 48.0222 21.9761C48.0222 22.6463 47.9523 23.124 47.6615 23.7298C47.1579 24.5297 46.2032 25.5087 45.2502 25.7255C45.0427 25.7389 44.7858 25.7185 44.6413 25.4608C44.3639 24.9665 44.609 24.3058 44.807 23.8933C45.5841 22.2629 47.3952 21.5047 47.3952 21.5047C47.1115 21.397 46.7823 21.4371 46.4288 21.6131C44.6908 22.457 43.3315 23.92 42.1607 25.4608C41.0254 27.121 40.2326 28.5777 40.0487 30.289C40.0071 30.8916 40.2035 31.3591 40.5877 31.583C41.1982 31.9484 41.896 31.4738 42.3674 31.081C42.9419 30.5632 43.4179 29.9456 43.7722 29.2581C44.2382 28.3373 44.3608 27.3858 44.0103 27.2703C43.6096 27.1587 43.2529 27.5783 43.0745 27.8391C42.6031 28.47 42.5104 29.1772 42.5104 29.1772C41.8307 29.4758 41.232 30.021 40.939 30.3526C41.0301 29.614 41.1684 29.1505 41.423 28.5879C41.9078 27.4934 42.831 26.7313 43.7754 26.6464ZM29.1588 25.9793L29.389 25.4584C29.4675 25.2282 29.5367 24.9799 29.5367 24.7599C29.5367 24.5973 29.499 24.448 29.3992 24.3333C29.2373 24.2075 28.9584 24.272 28.7785 24.3938C28.5915 24.5328 28.1672 24.9163 28.2709 25.4034C28.3455 25.654 28.5891 25.8646 28.9113 25.9628L29.0134 25.9793C29.0172 25.9802 29.021 25.981 29.0247 25.9819C29.0797 25.9943 29.1271 26.0051 29.1588 25.9793ZM28.8822 26.4775C28.8877 26.468 28.8979 26.4366 28.8979 26.4366C28.912 26.4052 28.9175 26.3926 28.9175 26.3824C28.9175 26.3761 28.9152 26.3722 28.9136 26.3722C28.5608 26.2708 28.0894 26.0508 27.838 25.5763C27.8375 25.5717 27.8366 25.5701 27.8359 25.5686C27.8355 25.5679 27.8351 25.5671 27.8348 25.566C27.8276 25.567 27.8207 25.5694 27.8144 25.5731C27.4137 26.1388 27.002 26.7485 26.7427 27.4392L26.7113 27.5413C26.6209 27.8258 26.5093 28.1778 26.7254 28.4323C26.8275 28.558 27.0271 28.5266 27.1717 28.4795C27.655 28.2343 28.0427 27.727 28.3547 27.3188L28.3636 27.3072L28.8822 26.4775ZM35.4167 25.8417C35.4036 25.8595 35.3913 25.8761 35.38 25.8913C34.4474 27.1241 34.1465 28.0159 34.1213 28.3066C34.1152 28.3496 34.1213 28.3935 34.1391 28.4332C34.1569 28.4728 34.1856 28.5066 34.2219 28.5305C34.2871 28.5777 34.3845 28.5706 34.4443 28.5541C34.8591 28.327 35.1145 28.0018 35.3675 27.6223C35.3675 27.6223 35.5474 27.3512 35.5466 27.3551C35.9595 26.6812 36.3825 25.9268 36.7799 25.2183C36.9338 24.9438 37.0839 24.6762 37.228 24.4228C37.2092 24.2743 36.9876 24.0638 36.4345 24.5415C36.2782 24.6768 35.6752 25.4922 35.4167 25.8417ZM26.3318 25.7625C27.4836 24.2515 28.9207 23.3708 29.6365 23.832H29.6357C30.2971 24.3045 29.7883 25.4947 29.6253 25.876C29.6086 25.915 29.5956 25.9455 29.5878 25.966C29.8447 26.0304 30.6477 25.4058 31.1254 24.8872C31.5065 24.4739 32.2615 23.8933 32.6733 23.7408C32.9805 23.5947 33.455 23.5475 33.7662 23.7298C33.9752 23.8493 34.0105 24.1415 34.0247 24.3993C34.0663 25.1174 33.2327 26.3455 32.806 25.7491C32.718 25.4922 32.7966 25.1685 33.0732 24.884C33.1413 24.8143 33.2239 24.7602 33.3151 24.7256C33.4063 24.691 33.5039 24.6767 33.6012 24.6837C33.686 24.5517 33.664 24.3592 33.5305 24.2806C33.389 24.1958 33.1054 24.2539 32.8453 24.4535C31.9205 25.1755 31.1246 26.4201 30.6532 27.7378C30.5699 27.9853 30.5243 28.3616 30.672 28.6193C31.0775 29.2322 32.025 28.3789 32.025 28.3789C32.6646 27.8195 33.2814 27.0455 33.7662 26.358C35.0249 24.5698 36.6529 22.8883 37.3915 23.8909C37.3967 23.8981 37.4032 23.9085 37.4095 23.9186C37.4184 23.9328 37.427 23.9465 37.4315 23.9506C37.4418 23.9373 37.5722 23.7306 37.5722 23.7306H38.7633L36.2805 28.1738C36.2286 28.2783 36.1948 28.4268 36.2805 28.4975C36.3488 28.5447 36.469 28.485 36.469 28.485C37.0605 28.2028 37.9419 27.0016 38.108 26.7752C38.1255 26.7514 38.1351 26.7383 38.1355 26.7383H38.5465C38.3711 26.9907 38.1982 27.2753 38.0193 27.5695C37.5418 28.3552 37.0222 29.2102 36.3025 29.7075C36.0283 29.8875 35.5505 30.19 35.193 30.0643C34.8151 29.8309 34.8175 29.1403 34.8426 28.7883C34.8424 28.7883 34.8394 28.7928 34.8336 28.8012C34.7342 28.9474 33.8309 30.2759 33.0905 30.0643C32.8312 29.9833 32.4454 29.3807 32.7526 28.3302L32.7943 28.1644L32.597 28.3506C32.462 28.4805 32.3233 28.6258 32.1803 28.7755C31.5398 29.4465 30.8143 30.2064 29.9555 30.065C29.2614 29.8526 29.2042 28.921 29.1816 28.5537C29.1786 28.5039 29.1762 28.4645 29.1729 28.4386C29.0895 27.7768 29.8365 26.4896 29.9429 26.3061C29.9509 26.2924 29.9552 26.2849 29.9555 26.2842C29.7585 26.341 29.559 26.3885 29.3575 26.4264L29.0731 26.8876L29.0541 26.9186C28.7646 27.3899 28.4644 27.8787 28.0776 28.2862L28.0022 28.364C27.4215 29.0318 25.946 30.5648 25.2098 29.7075C24.7155 28.9792 25.2789 27.1178 26.3318 25.7625ZM29.246 31.1627C32.3173 30.3259 34.2753 30.2748 35.6786 31.1627C36.1645 31.4706 36.5371 31.7992 36.8669 32.09C37.0192 32.2243 37.1625 32.3506 37.3035 32.463C36.4015 31.8133 35.2661 31.5461 34.4906 32.023C33.7143 32.5 33.3443 33.2739 33.3443 33.2739C32.0879 31.0283 27.9181 31.9555 27.1717 32.1315C26.8418 32.2634 26.5198 32.4351 26.2001 32.6056C25.6266 32.9115 25.0606 33.2134 24.4704 33.2739C23.1606 33.3823 22.0174 32.2093 21.4886 31.2342C20.8058 29.8278 21.2615 28.1 21.766 26.8947C22.6405 24.8958 24.186 23.0698 26.1173 21.7514C27.0004 21.2195 27.9582 20.7386 28.9859 20.7968C29.286 20.851 29.5273 21.0097 29.6671 21.2399C30.001 21.8873 29.5768 22.5819 29.29 22.9441C29.0236 23.2655 28.406 23.388 28.4304 22.8019C28.4477 22.4193 28.7651 22.1348 28.8806 22.046C29.0236 21.9549 29.2075 21.9384 29.3175 21.9384C29.422 21.8433 29.5021 21.1794 28.6418 21.3963C27.5198 21.742 26.6696 22.6023 25.7535 23.6049C24.1113 25.5323 23.1873 27.2703 22.8448 29.0758C22.6978 30.1837 22.895 30.9529 23.4458 31.4298C24.6749 32.2636 25.6524 32.0271 27.969 31.4665C28.355 31.3731 28.7782 31.2706 29.246 31.1627Z" fill="white"/>
<path fill-rule="evenodd" clip-rule="evenodd" d="M70 100C60.6112 100 53 107.611 53 117C53 126.389 60.6112 134 70 134C79.3888 134 87 126.389 87 117C87 107.611 79.3888 100 70 100ZM77.5626 120.874C77.6785 120.604 77.7884 120.323 77.8929 120.028C77.414 119.833 76.9743 119.553 76.5948 119.202C75.7424 118.434 75.3089 117.466 75.2961 116.304C75.2827 114.812 75.9798 113.649 77.3895 112.819C76.6015 111.731 75.4175 111.126 73.8408 111.002C73.2585 110.954 72.5482 111.076 71.7067 111.371C70.8172 111.688 70.292 111.847 70.1372 111.847C69.9296 111.847 69.4572 111.711 68.7214 111.442C67.9831 111.175 67.3893 111.038 66.9364 111.038C66.1255 111.047 65.3306 111.265 64.6292 111.672C63.9252 112.075 63.3372 112.653 62.9219 113.35C62.3785 114.232 62.1071 115.285 62.1071 116.505C62.1071 117.571 62.3081 118.671 62.71 119.808C63.0846 120.861 63.5631 121.785 64.1453 122.58C64.6881 123.325 65.141 123.852 65.5029 124.159C66.0706 124.672 66.6382 124.915 67.209 124.892C67.5836 124.88 68.0741 124.754 68.6825 124.515C69.2909 124.277 69.8591 124.159 70.3886 124.159C70.8937 124.159 71.4462 124.277 72.0473 124.515C72.6471 124.754 73.1614 124.872 73.5882 124.872C74.1832 124.859 74.7388 124.622 75.2566 124.158C75.5912 123.877 76.0253 123.369 76.5541 122.634C76.95 122.084 77.288 121.494 77.5626 120.874ZM73.9452 107.043C73.9452 106.922 73.9391 106.8 73.927 106.679C73.4516 106.703 72.9452 106.843 72.4097 107.096C71.8755 107.352 71.4335 107.675 71.0862 108.062C70.3904 108.827 69.9988 109.763 69.9988 110.638C69.9988 110.753 70.0061 110.869 70.0206 110.983C71.1014 111.068 72.0977 110.528 72.9216 109.592C73.6034 108.805 73.9452 107.954 73.9452 107.043Z" fill="white"/>
</g>
<defs>
<clipPath id="clip0_39_1484">
<rect width="60" height="60" fill="white" transform="translate(-7 113)"/>
</clipPath>
<clipPath id="clip1_39_1484">
<rect x="10" y="62" width="43" height="43" rx="21.5" fill="white"/>
</clipPath>
</defs>
</svg>
