<svg width="318" height="62" viewBox="0 0 318 62" fill="none" xmlns="http://www.w3.org/2000/svg">
<g clip-path="url(#clip0_149_4334)">
<path d="M0.5 56.9426L6.31035 62L20.1858 46.5306L22.6955 44.2062L16.1221 40.5522L11.0426 45.0175L7.07335 49.8727L0.5 56.9426Z" fill="white"/>
<path d="M34.792 56.2872L40.8874 50.762L52.8896 39.1488L60.1295 32.4983L62.2256 30.3446L60.511 27.9086L72.7982 25.9426L69.369 38.0235L67.2751 35.9647L62.0348 41.1149L53.0803 49.4512L44.0637 58.0383L34.792 56.2872Z" fill="white"/>
<path d="M16.5979 39.0771C19.6456 36.7128 22.6933 38.8201 24.0993 39.9201C26.444 41.7576 29.0974 43.7742 33.5296 48.9813C35.3835 51.1602 37.0167 53.2253 39.9594 54.6709C41.9376 55.6424 43.2557 55.7246 44.158 55.6318C46.4598 55.4085 47.8679 53.9566 48.033 54.1568C48.0801 54.2158 48.0951 54.496 43.1035 58.8707C41.4896 60.2889 40.9881 60.6977 40.0879 60.9948C37.9704 61.6902 36.0158 60.9738 35.3878 60.7441C34.0633 60.2594 33.3217 59.5492 31.3885 57.5832C28.9023 55.0692 26.7119 52.747 25.6403 51.6196C23.2827 49.1478 22.314 48.2079 21.0045 47.1564C18.8269 45.4053 17.6674 44.9016 16.6558 44.6277C15.2734 44.2526 13.7924 43.8501 12.4636 44.5013C11.9984 44.6982 11.521 44.8657 11.0341 45.0028C11.0341 45.0028 13.6317 41.3783 16.5979 39.0771Z" fill="white"/>
<path d="M7.93066 18.3564H15.7407V36.4325L8.50077 42.6131L7.93066 18.3564Z" fill="white"/>
<path d="M23.9321 7.86642H31.3628V41.9915L23.9321 35.9647V7.86642Z" fill="white"/>
<path d="M39.46 0H46.8885V40.5522L39.46 47.7654V0Z" fill="white"/>
</g>
<g clip-path="url(#clip1_149_4334)">
<path d="M122.884 19.8355H112.416V47.7845H105.372V19.8355H95.0439V14.2404H122.884V19.8355Z" fill="white"/>
<path d="M139.207 29.0903C138.398 28.9766 137.583 28.915 136.766 28.9058C134.2 28.9058 132.517 29.7565 131.718 31.4581V47.7634H124.922V22.8783H131.33L131.519 25.8472C132.884 23.5585 134.77 22.4142 137.175 22.4142C137.891 22.4089 138.603 22.5103 139.288 22.7148L139.207 29.0903Z" fill="white"/>
<path d="M156.471 47.7634C156.127 47.0578 155.898 46.3032 155.794 45.5275C154.993 46.4108 154.003 47.1101 152.896 47.5759C151.788 48.0416 150.589 48.2623 149.385 48.2222C147.125 48.305 144.917 47.5522 143.197 46.1129C142.409 45.4573 141.78 44.6377 141.355 43.7135C140.931 42.7894 140.723 41.7841 140.745 40.7709C140.745 38.1342 141.743 36.1092 143.74 34.696C145.736 33.2827 148.62 32.569 152.39 32.555H155.509V31.1259C155.56 30.1277 155.239 29.1455 154.606 28.3626C154.003 27.6595 153.054 27.3079 151.756 27.3079C150.791 27.2532 149.838 27.5374 149.068 28.1095C148.744 28.3815 148.488 28.7225 148.32 29.1063C148.151 29.4902 148.074 29.9068 148.095 30.3243H141.309C141.309 28.8792 141.786 27.4728 142.67 26.3165C143.659 25.026 144.991 24.0265 146.519 23.4267C148.289 22.706 150.19 22.3471 152.106 22.372C155.235 22.372 157.719 23.1437 159.557 24.687C161.396 26.2304 162.319 28.403 162.326 31.205V42.0049C162.326 44.3674 162.663 46.1551 163.337 47.3679V47.7634H156.471ZM150.864 43.1334C151.827 43.1432 152.779 42.9185 153.632 42.4795C154.424 42.0911 155.078 41.4772 155.509 40.7182V36.4362H152.977C149.579 36.4362 147.77 37.5858 147.552 39.885V40.2805C147.539 40.6647 147.613 41.047 147.767 41.4004C147.921 41.7538 148.152 42.07 148.444 42.3266C149.116 42.8887 149.982 43.1774 150.864 43.1334Z" fill="white"/>
<path d="M166.472 35.1231C166.472 31.2348 167.368 28.1411 169.16 25.8419C169.995 24.727 171.095 23.8294 172.365 23.2273C173.635 22.6252 175.036 22.337 176.445 22.3878C177.609 22.3626 178.765 22.594 179.825 23.0649C180.886 23.5359 181.826 24.2344 182.575 25.1089V12.4H189.381V47.7634H183.252L182.924 45.1267C182.164 46.1122 181.177 46.9073 180.043 47.4471C178.91 47.9869 177.662 48.2561 176.402 48.2328C175.006 48.2694 173.622 47.9733 172.368 47.3699C171.114 46.7664 170.028 45.8737 169.203 44.7682C167.382 42.4514 166.472 39.2364 166.472 35.1231ZM173.257 35.6188C173.257 37.9532 173.671 39.7426 174.499 40.9871C174.879 41.5858 175.414 42.0747 176.05 42.4037C176.686 42.7326 177.399 42.8898 178.117 42.8592C180.214 42.8592 181.693 41.9908 182.553 40.2541V30.4034C181.707 28.6702 180.243 27.8019 178.16 27.7983C174.891 27.7983 173.257 30.4052 173.257 35.6188Z" fill="white"/>
<path d="M206.307 48.2222C202.583 48.2222 199.55 47.1007 197.21 44.8578C194.869 42.6148 193.701 39.6266 193.704 35.893V35.2496C193.661 32.9299 194.167 30.6321 195.183 28.5366C196.091 26.6469 197.548 25.062 199.371 23.9804C201.243 22.9013 203.384 22.3536 205.554 22.3984C209.027 22.3984 211.762 23.4741 213.759 25.6257C215.755 27.7772 216.754 30.8235 216.754 34.7645V37.4803H200.581C200.729 38.9794 201.436 40.3723 202.565 41.3932C203.715 42.3957 205.215 42.9245 206.753 42.8697C209.366 42.8697 211.407 41.9398 212.877 40.0801L216.211 43.7398C215.158 45.1824 213.733 46.3237 212.081 47.0462C210.268 47.8495 208.296 48.251 206.307 48.2222ZM205.533 27.7561C204.921 27.7337 204.311 27.8418 203.745 28.073C203.18 28.3043 202.673 28.6532 202.258 29.0956C201.332 30.1829 200.769 31.5231 200.645 32.9346H210.081V32.4073C210.132 31.1527 209.696 29.926 208.861 28.9743C208.424 28.5538 207.902 28.2281 207.329 28.0182C206.755 27.8084 206.143 27.7191 205.533 27.7561Z" fill="white"/>
<path d="M248.088 43.5236C246.647 45.1319 244.789 46.3288 242.712 46.9882C240.238 47.8371 237.633 48.2547 235.012 48.2222C232.293 48.2809 229.607 47.6254 227.232 46.3238C224.984 45.0378 223.185 43.115 222.071 40.8078C220.799 38.1518 220.161 35.2464 220.205 32.3124V30.0343C220.132 27.0495 220.719 24.0847 221.926 21.3437C222.966 19.018 224.702 17.0574 226.905 15.7222C229.209 14.3886 231.848 13.7146 234.523 13.7764C238.577 13.7764 241.746 14.7256 244.029 16.624C246.312 18.5224 247.665 21.2804 248.088 24.898H241.233C240.921 22.9784 240.23 21.5722 239.158 20.6792C238.082 19.788 236.609 19.3451 234.733 19.3451C232.338 19.3451 230.516 20.224 229.265 21.9818C228.014 23.7396 227.387 26.3693 227.383 29.8708V32.0118C227.383 35.5274 228.064 38.1834 229.426 39.9799C230.788 41.7764 232.783 42.6746 235.41 42.6746C238.056 42.6746 239.943 42.1209 241.072 41.0135V35.2391H234.641V30.1503H248.083L248.088 43.5236Z" fill="white"/>
<path d="M268.068 47.7634C267.719 47.0591 267.488 46.304 267.385 45.5275C266.584 46.4108 265.594 47.1101 264.487 47.5759C263.379 48.0416 262.18 48.2623 260.976 48.2222C258.718 48.3047 256.511 47.5518 254.793 46.1129C254.005 45.4573 253.376 44.6377 252.952 43.7135C252.528 42.7894 252.319 41.7841 252.341 40.7709C252.341 38.1342 253.338 36.1092 255.331 34.696C257.323 33.2827 260.207 32.569 263.981 32.555H267.105V31.1259C267.156 30.1277 266.835 29.1455 266.202 28.3626C265.6 27.6595 264.648 27.3079 263.347 27.3079C262.382 27.2541 261.43 27.5382 260.659 28.1095C260.335 28.3815 260.079 28.7225 259.911 29.1063C259.742 29.4902 259.665 29.9068 259.686 30.3243H252.9C252.901 28.8786 253.381 27.4724 254.266 26.3165C255.253 25.0237 256.585 24.0237 258.116 23.4267C259.885 22.705 261.786 22.3461 263.702 22.372C266.831 22.372 269.315 23.1437 271.154 24.687C272.993 26.2304 273.912 28.3978 273.912 31.1891V41.9891C273.912 44.3516 274.249 46.1392 274.923 47.3521V47.7476L268.068 47.7634ZM262.455 43.1334C263.418 43.1432 264.37 42.9185 265.223 42.4795C266.017 42.0911 266.673 41.4773 267.105 40.7182V36.4362H264.568C261.17 36.4362 259.363 37.5858 259.148 39.885V40.2805C259.136 40.6647 259.209 41.047 259.363 41.4004C259.517 41.7539 259.749 42.07 260.04 42.3266C260.711 42.8865 261.575 43.175 262.455 43.1334Z" fill="white"/>
<path d="M287.246 16.7242V22.8783H291.585V27.7562H287.246V40.1908C287.18 40.8918 287.37 41.5929 287.784 42.1684C288.142 42.5691 288.83 42.7695 289.848 42.7695C290.517 42.7776 291.185 42.7229 291.843 42.6061V47.6474C290.512 48.0485 289.127 48.2511 287.735 48.2486C282.979 48.2486 280.554 45.8931 280.461 41.1822V27.7298H276.751V22.8783H280.461V16.7242H287.246Z" fill="white"/>
<path d="M307.053 48.2222C303.333 48.2222 300.3 47.1007 297.956 44.8578C295.612 42.6148 294.443 39.6266 294.451 35.893V35.2497C294.41 32.9302 294.916 30.6329 295.929 28.5366C296.838 26.6469 298.295 25.062 300.118 23.9804C301.991 22.9011 304.134 22.3534 306.306 22.3984C309.779 22.3984 312.512 23.4741 314.505 25.6257C316.498 27.7772 317.496 30.8235 317.5 34.7645V37.4803H301.327C301.481 38.978 302.186 40.3694 303.311 41.3932C304.462 42.3957 305.962 42.9245 307.5 42.8697C308.675 42.9217 309.845 42.6953 310.912 42.2097C311.979 41.7242 312.911 40.9937 313.629 40.0801L316.962 43.7398C315.907 45.1817 314.48 46.3227 312.828 47.0462C311.014 47.8495 309.043 48.251 307.053 48.2222ZM306.279 27.7561C305.667 27.7337 305.057 27.8418 304.492 28.073C303.927 28.3043 303.419 28.6532 303.005 29.0956C302.081 30.1842 301.518 31.5237 301.392 32.9346H310.828V32.4073C310.881 31.1523 310.445 29.9246 309.607 28.9743C309.171 28.5533 308.649 28.2272 308.076 28.0173C307.502 27.8074 306.89 27.7184 306.279 27.7561Z" fill="white"/>
</g>
<defs>
<clipPath id="clip0_149_4334">
<rect width="72.2982" height="62" fill="white" transform="translate(0.5)"/>
</clipPath>
<clipPath id="clip1_149_4334">
<rect width="222.456" height="35.8222" fill="white" transform="translate(95.0439 12.4)"/>
</clipPath>
</defs>
</svg>
