<svg width="370" height="12" fill="none" xmlns="http://www.w3.org/2000/svg"><path d="M370 6L360 .226v11.547L370 6zM0 7h2.01V5H0v2zm6.033 0h4.021V5H6.033v2zm8.043 0h4.022V5h-4.022v2zm8.044 0h4.021V5H22.12v2zm8.043 0h4.022V5h-4.022v2zm8.043 0h4.022V5h-4.022v2zm8.044 0h4.022V5H46.25v2zm8.044 0h4.021V5h-4.021v2zm8.043 0h4.022V5h-4.022v2zm8.043 0h4.022V5H70.38v2zm8.044 0h4.022V5h-4.022v2zm8.043 0h4.022V5h-4.022v2zm8.044 0h4.022V5H94.51v2zm8.043 0h4.022V5h-4.022v2zm8.044 0h4.022V5h-4.022v2zm8.043 0h4.022V5h-4.022v2zm8.044 0h4.021V5h-4.021v2zm8.043 0h4.022V5h-4.022v2zm8.044 0h4.021V5h-4.021v2zm8.043 0h4.022V5h-4.022v2zm8.044 0h4.021V5h-4.021v2zm8.043 0h4.022V5h-4.022v2zm8.044 0h4.021V5h-4.021v2zm8.043 0h4.022V5h-4.022v2zm8.044 0h4.021V5h-4.021v2zm8.043 0h4.022V5h-4.022v2zm8.044 0h4.021V5h-4.021v2zm8.043 0h4.022V5h-4.022v2zm8.044 0h4.021V5h-4.021v2zm8.043 0h4.022V5h-4.022v2zm8.044 0h4.021V5h-4.021v2zm8.043 0h4.022V5h-4.022v2zm8.044 0h4.021V5h-4.021v2zm8.043 0h4.022V5h-4.022v2zm8.043 0h4.022V5h-4.022v2zm8.044 0h4.022V5h-4.022v2zm8.043 0h4.022V5h-4.022v2zm8.044 0h4.022V5h-4.022v2zm8.043 0h4.022V5h-4.022v2zm8.044 0h4.021V5h-4.021v2zm8.043 0h4.022V5h-4.022v2zm8.044 0h4.021V5h-4.021v2zm8.043 0h4.022V5h-4.022v2zm8.044 0h4.021V5h-4.021v2zm8.043 0h4.022V5h-4.022v2zm8.043 0h4.022V5h-4.022v2zM370 6L360 .226v11.547L370 6zM0 7h2.01V5H0v2zm6.033 0h4.021V5H6.033v2zm8.043 0h4.022V5h-4.022v2zm8.044 0h4.021V5H22.12v2zm8.043 0h4.022V5h-4.022v2zm8.043 0h4.022V5h-4.022v2zm8.044 0h4.022V5H46.25v2zm8.044 0h4.021V5h-4.021v2zm8.043 0h4.022V5h-4.022v2zm8.043 0h4.022V5H70.38v2zm8.044 0h4.022V5h-4.022v2zm8.043 0h4.022V5h-4.022v2zm8.044 0h4.022V5H94.51v2zm8.043 0h4.022V5h-4.022v2zm8.044 0h4.022V5h-4.022v2zm8.043 0h4.022V5h-4.022v2zm8.044 0h4.021V5h-4.021v2zm8.043 0h4.022V5h-4.022v2zm8.044 0h4.021V5h-4.021v2zm8.043 0h4.022V5h-4.022v2zm8.044 0h4.021V5h-4.021v2zm8.043 0h4.022V5h-4.022v2zm8.044 0h4.021V5h-4.021v2zm8.043 0h4.022V5h-4.022v2zm8.044 0h4.021V5h-4.021v2zm8.043 0h4.022V5h-4.022v2zm8.044 0h4.021V5h-4.021v2zm8.043 0h4.022V5h-4.022v2zm8.044 0h4.021V5h-4.021v2zm8.043 0h4.022V5h-4.022v2zm8.044 0h4.021V5h-4.021v2zm8.043 0h4.022V5h-4.022v2zm8.044 0h4.021V5h-4.021v2zm8.043 0h4.022V5h-4.022v2zm8.043 0h4.022V5h-4.022v2zm8.044 0h4.022V5h-4.022v2zm8.043 0h4.022V5h-4.022v2zm8.044 0h4.022V5h-4.022v2zm8.043 0h4.022V5h-4.022v2zm8.044 0h4.021V5h-4.021v2zm8.043 0h4.022V5h-4.022v2zm8.044 0h4.021V5h-4.021v2zm8.043 0h4.022V5h-4.022v2zm8.044 0h4.021V5h-4.021v2zm8.043 0h4.022V5h-4.022v2zm8.043 0h4.022V5h-4.022v2z" fill="#E08178"/></svg>