<svg width="351" height="400" fill="none" xmlns="http://www.w3.org/2000/svg"><g clip-path="url(#clip0_27_447)"><path fill-rule="evenodd" clip-rule="evenodd" d="M176 323c-33.137 0-60 26.863-60 60s26.863 60 60 60 60-26.863 60-60-26.863-60-60-60zm-15.034 45H191v30.034l19.286 18.68v-68h-67.997L160.966 368zm.034 3.139V398h26.859l-19.23 19.286h-26.915v-26.919L161 371.139z" fill="#fff"/></g><path fill-rule="evenodd" clip-rule="evenodd" d="M116-22C78.445-22 48 8.445 48 46s30.445 68 68 68 68-30.445 68-68-30.445-68-68-68zm30.25 83.494a54.873 54.873 0 001.321-3.38 17.216 17.216 0 01-5.192-3.306c-3.41-3.072-5.144-6.943-5.195-11.594-.053-5.967 2.735-10.617 8.374-13.94-3.152-4.352-7.888-6.77-14.195-7.266-2.329-.192-5.17.296-8.536 1.474-3.558 1.27-5.659 1.907-6.278 1.907-.831 0-2.72-.544-5.664-1.62-2.953-1.069-5.328-1.615-7.14-1.615a18.764 18.764 0 00-9.228 2.533 18.857 18.857 0 00-6.83 6.712c-2.173 3.53-3.258 7.74-3.258 12.622 0 4.262.803 8.665 2.411 13.211 1.499 4.211 3.412 7.908 5.741 11.089 2.171 2.98 3.983 5.085 5.43 6.314 2.271 2.052 4.542 3.026 6.825 2.932 1.498-.049 3.461-.55 5.894-1.506 2.433-.955 4.707-1.426 6.824-1.426 2.021 0 4.231.471 6.635 1.426 2.4.957 4.457 1.428 6.164 1.428 2.38-.051 4.602-1 6.674-2.856 1.338-1.127 3.074-3.157 5.189-6.096a39.323 39.323 0 004.034-7.043zM131.781 6.171c0-.483-.024-.971-.073-1.457-1.902.097-3.927.656-6.069 1.669-2.137 1.027-3.905 2.317-5.294 3.866-2.783 3.06-4.35 6.805-4.35 10.302 0 .462.03.924.088 1.382 4.322.34 8.308-1.822 11.603-5.566 2.728-3.148 4.095-6.553 4.095-10.196zM276.5 97c-25.681 0-46.5 20.819-46.5 46.5s20.819 46.5 46.5 46.5 46.5-20.819 46.5-46.5S302.181 97 276.5 97zm-30.506 61.27c1.394 1.13 3.176 1.738 5.353 1.826h-.002c2.423.099 5.417-.474 8.762-1.671 1.309-.468 2.053-.776 4.834-1.99 17.571-7.667 51.419-22.444 51.416-22.448 0-.003-11.922 3.231-26.49 7.185a14298.57 14298.57 0 01-26.93 7.295c-3.552.834-6.46.753-8.448-.241-1.134-.568-2.144-1.594-2.732-2.778-.854-1.722-.937-3.941-.246-6.527.432-1.61 1.223-3.472 2.148-5.053.106-.183.192-.332.187-.332-.01 0-1.569 1.755-2.092 2.356-3.558 4.079-5.595 7.023-6.916 9.994-1.542 3.468-1.948 6.63-1.16 9.038a7.118 7.118 0 001.204 2.212c.342.405.714.784 1.112 1.134zM167 194c-16.569 0-30 13.431-30 30 0 16.569 13.431 30 30 30 16.569 0 30-13.431 30-30 0-16.569-13.431-30-30-30zm3.824 31.209c-1.484-.69-3.452-1.852-3.424-3.933.022-2.812 2.741-4.776 6.609-4.776 1.248.003 2.487.22 3.661.642l-.687 3.063c-1.752-.771-3.298-.717-3.858-.646-1.131.14-1.648.692-1.66 1.208-.015.685.869 1.129 1.932 1.662 1.583.794 3.561 1.787 3.551 4.068-.015 3.005-2.703 4.943-6.812 4.943-1.751-.015-3.439-.365-4.35-.767l.707-3.166.071.031c.897.402 2.032.91 3.947.882 1.127-.016 2.331-.445 2.342-1.415.007-.633-.506-1.087-2.029-1.796zm11.79-7.648c.283-.643.915-1.061 1.665-1.061h3.341l2.951 15h-3.618l-.268-2.443h-5.017l-1.024 2.443h-4.106l6.076-13.939zm3.424 8.534l-1.185-5.427-2.06 5.427h3.245zm-27.061 5.405l3.444-15h3.912l-3.443 15h-3.913zm-6.418-4.9l4.074-10.1h4.109l-6.547 15h-4.134l-2.915-12.081c-.189-.71-.353-.971-.929-1.27-.94-.49-2.493-.946-3.86-1.229l.093-.42h6.658c.848 0 1.612.54 1.804 1.472l1.647 8.628zM323 230c-35.899 0-65 29.101-65 65s29.101 65 65 65 65-29.101 65-65-29.101-65-65-65zm0 102.143c14.467 0 27-8.269 33.134-20.34-.91-.446-1.862-.885-2.832-1.173-1.451-.429-2.939-.452-4.379.03-1.26.424-2.395 1.141-3.515 1.849l-.025.016-.348.222-.005.003-.018.011c-2.335 1.469-4.979 3.132-8.343 3.132-5.001 0-8.513-2.992-9.634-8.213-.866-4.044-4.035-19.644-4.035-19.644a1683.625 1683.625 0 01-4.035 19.644c-1.121 5.218-4.631 8.213-9.631 8.213-3.371 0-6.024-1.669-8.362-3.146h-.005l-.35-.222c-1.126-.713-2.271-1.437-3.538-1.862a7.171 7.171 0 00-4.381-.033c-.97.288-1.922.725-2.832 1.173 6.133 12.069 18.667 20.34 33.134 20.34zm32.727-26.861c.886.358 1.76.745 2.619 1.163A37.162 37.162 0 00360.143 295c0-20.514-16.629-37.143-37.143-37.143-20.515 0-37.143 16.629-37.143 37.143a37.125 37.125 0 001.797 11.445 42.53 42.53 0 012.621-1.163c4.246-1.697 8.136-1.129 12.034 1.239 0 0 1.423.871 1.848 1.138l.025.018.016.01c1.802 1.132 3.501 2.198 5.136 2.198 1.571 0 3.117-.422 3.772-3.47 1.021-4.755 3.51-16.438 4.596-22.226.637-3.398.987-5.23 1.352-6.477.636-2.175 1.799-3.366 3.447-3.563 0 0 .29-.042.499-.042.211 0 .474.037.474.037 1.664.191 2.834 1.379 3.475 3.568.362 1.245.712 3.079 1.351 6.48 1.086 5.787 3.575 17.468 4.596 22.223.655 3.048 2.201 3.468 3.773 3.468 1.638 0 3.342-1.07 5.148-2.206l.028-.018a357.13 357.13 0 011.846-1.138c3.898-2.368 7.788-2.936 12.036-1.239zM48 144c-16.569 0-30 13.431-30 30 0 16.569 13.431 30 30 30 16.569 0 30-13.431 30-30 0-16.569-13.431-30-30-30zm-10.645 12.88c5.366.219 14.071 2.132 21.583 8.748 3.876 3.308 6.32 6.985 6.2 12.425-.118 7.573-6.916 10.735-13.95 10.514-1.43 0-3.28-.293-5.127-.883-.18 2.132-.537 3.53-1.313 3.456-.774-.073-1.072-1.985-1.192-4.411-4.173-1.765-7.929-4.779-7.75-8.969.179-1.397 1.848-4.485 8.108-5.22.239-3.456.596-6.47 1.192-6.47.358 0 .895 2.205 1.074 6.322 6.856-.147 9.956 2.132 10.015 3.236 0 1.102-1.43 2.572-2.444 2.719-.93.135-.906-.286-.896-.471a.776.776 0 00.002-.043c0-.221 1.073-1.177 1.192-1.25.06-.074.18-.22-.119-.293l-.028-.01c-.323-.104-2.011-.65-7.543-.58h-.12v2.206c0 2.721 0 5.294-.06 7.427 1.431.44 2.981.661 4.532.735 7.511.146 11.149-4.192 11.208-8.676.059-7.793-10.85-17.424-25.398-18.527-4.362-.359-4.355.122-4.353.351v.017c0 .047.129.116.303.211.371.201.95.515.95.965 0 .367-1.014.147-1.371-.074-.298-.147-1.193-.883-1.193-1.618 0-.588.537-2.058 6.498-1.837zm6.38 18.894c-4.114.294-6.499 1.25-6.617 2.867-.12 1.398 2.562 3.971 6.439 5.735 0-1.618 0-3.308.06-4.779 0-1.037.052-2.269.107-3.575l.01-.248zM0 289.5C0 263.266 21.267 242 47.5 242c26.234 0 47.5 21.266 47.5 47.5S73.734 337 47.5 337C21.267 337 0 315.734 0 289.5zm88.214 11.875v-5.089H78.036v-18.661h-5.09v23.75h15.268zM42.7 275.929l-13.342 10.58v.199a11.882 11.882 0 00-10.696-9.052v-.031H8.482v23.75h10.179v-.032a11.882 11.882 0 0010.696-9.049v.204l13.342 10.573 13.283-10.573v8.877H71.25v-5.089H61.071v-18.661h-5.089v8.877l-12.935 10.581-2.736-2.468 6.16-4.937 6.502-5.286-3.763-3.169-12.662 10.216-2.736-2.468 12.658-9.873-3.762-3.169h-.009zm-24.886 6.785H13.57v13.572h4.242a6.785 6.785 0 004.798-11.584 6.785 6.785 0 00-4.799-1.988z" fill="#fff"/><defs><clipPath id="clip0_27_447"><rect x="116" y="323" width="120" height="120" rx="50" fill="#fff"/></clipPath></defs></svg>