<svg width="321" height="400" fill="none" xmlns="http://www.w3.org/2000/svg"><path fill-rule="evenodd" clip-rule="evenodd" d="M85.5 308C48.22 308 18 338.221 18 375.5c0 37.279 30.22 67.5 67.5 67.5 37.279 0 67.5-30.221 67.5-67.5 0-37.279-30.221-67.5-67.5-67.5zm-38.571 28.929H75.29l-28.362 77.143v-77.143zm77.143 0H95.709l28.363 77.143v-77.143zM73.02 398.643l12.48-33.429 18.15 48.853H91.172l-4.537-15.424H73.02zM259.5-26C225.534-26 198 1.534 198 35.5S225.534 97 259.5 97 321 69.466 321 35.5 293.466-26 259.5-26zm35.048 73.337l.328-.284c1.667-2.036 3-4.358 4.287-6.602l.275-.475a96.35 96.35 0 011.77-2.974.764.764 0 00.081-.255c0-.177-.132-.36-.246-.463-.49-.2-.953.055-1.384.36-2.501 1.964-4.219 4.782-5.691 7.198l-.074.12-.132.277-.006.013c-.516 1.046-1.048 2.123-1.022 3.282.029.163.139.37.299.426.565.214 1.037-.202 1.491-.602l.024-.021zm-15.605-8.108c.331 1.562 2.051 2.131 2.148 2.065.54-.92.979-1.952 1.265-3.002l.007-.066.006-.051c.036-.279.075-.582.075-.878 0-.51-.11-.987-.512-1.25a1.604 1.604 0 00-1.414.257c-.914.53-1.856 1.58-1.575 2.925zm-4.657 7.583a1.47 1.47 0 00.24.836c1.463 1.667 4.966-3.12 5.989-5.355-.823-.35-2.187-1.181-2.787-2.477h-.004c-1.437 1.812-3.471 5.137-3.438 6.995zm24.405.698c-.178.52.299.694.639.468 1.882-1.085 3.391-3.328 4.591-5.11l.138-.206h1.127c-.114.19-.276.473-.477.826-1.314 2.3-4.31 7.548-6.706 8.83-.108.057-.214.116-.32.174-.642.355-1.241.686-2.006.549-1.298-.163-1.111-3.602-.874-4.503-.217.226-.53.673-.899 1.201-.886 1.268-2.099 3.004-3.107 3.27-1.243.24-2.62-2.075-2.17-5.163-.143.175-.288.356-.437.54-2.035 2.525-4.587 5.69-6.034 3.932-1.087-1.333-.303-5.419.848-8.733 0 0 .387-1.138.43-1.278-.015-.011-.019-.011-.03-.011-.635.162-1.444.207-1.72.222l-.092.006c-.257.442-.525.92-.806 1.42-1.707 3.044-3.877 6.913-6.706 8.376-.486.246-1.72.756-2.702.264-.955-.53-1.234-3.137-1.05-4.784.26-2.104 1.202-3.94 2.146-5.654 1.753-2.7 4.187-5.976 7.442-7.303.727-.32 1.805-.52 2.675-.094.747.531.944 1.298.944 2.113 0 .377-.046.766-.094 1.146-.283 1.325-.85 2.548-1.3 3.455.217.143 1.493-.151 1.823-.397 4.551-9.337 9.761-16.175 15.928-20.92l.049-.028c.256-.172.523-.372.798-.578 1.012-.759 2.129-1.596 3.206-1.394a1.017 1.017 0 01.817.843c.222 1.353-.327 2.92-.877 3.932-.474.154-1.192.285-1.192.285l.509-1.023c.361-.7.677-1.318.637-2.148-.105-.22-.228-.23-.325-.22-.9.18-2.056 1.279-3.174 2.35l-.72.681c-4.586 4.499-9.976 13.902-10.811 15.872 1.882-.9 8.094-6.941 11.129-11.099.622-.02 1.149-.123 1.149-.123-.487.936-3.813 5.131-7.758 8.834a46.431 46.431 0 01-5.57 4.47c-.863 1.83-1.72 3.846-2.086 5.968-.044.292-.141 1.553.812 1.478 1.219-.266 3.42-3.835 3.42-3.835.16-.245.323-.498.489-.757 2.018-3.126 4.592-7.114 7.945-9.041.835-.464 2.045-.706 2.871-.194.191.123.659.692.813.947 0 0 .345-.595.505-.855h3.376l-4.999 8.97s-1.768 2.702-2.214 4.029zm-38.772-17.916l-3.208-.136 1.757-2.961h3.163l-1.712 3.097zm39.422-5.652c3.027.306 5.526-.566 7.938-1.91 2.943-1.64 4.935-3.873 4.935-3.873s-1.362 2.851-4.019 5.113c-2.511 2.245-7.013 4.602-11.261 3.541a46.26 46.26 0 012.407-2.87zm-24.336 6.168c1.107-.266 5.372-2.803 5.873-8.465a1.41 1.41 0 00-.044-.598c-2.763 1.393-5.533 3.778-7.04 6.979-1.023 2.376.538 2.216 1.211 2.084zm-4.951 4.401c.812-.046 1.575.392 1.895 1.072.708 1.459.251 3.372-.16 4.725-1.7 4.555-5.331 10.174-9.131 12.01-1.752.692-4.236 1.11-6.108-.813-2.203-2.264-1.711-7.74-.81-10.336 1.17-3.853 3.367-7.756 6.907-12.271 4.817-5.768 9.586-9.39 14.424-10.752 1.345-.323 3.172-.437 4.286.758 0 0 .538-.18 1.129-.39 1.5-.53 4.171-.915 7.79 1.027l.161.086c1.542.833 3.106 1.677 4.588 2.565l.955.577c-.661.615-1.834 1.848-2.55 2.663-.593-.254-1.626-.885-2.78-1.591-1.698-1.038-3.659-2.236-4.872-2.631 0 0-2.609-1.175-3.883-.512.02.226.031.53.031.758 0 1.873-.196 3.209-1.009 4.902-1.408 2.236-4.076 4.973-6.74 5.58-.58.037-1.299-.02-1.703-.74-.775-1.382-.09-3.23.464-4.383 2.172-4.557 7.235-6.677 7.235-6.677-.793-.3-1.713-.189-2.702.303-4.858 2.36-8.658 6.449-11.931 10.756-3.174 4.641-5.39 8.713-5.904 13.497-.116 1.685.433 2.992 1.507 3.618 1.707 1.021 3.657-.306 4.975-1.404a17.909 17.909 0 003.927-5.096c1.303-2.574 1.645-5.234.666-5.556-1.121-.312-2.118.86-2.616 1.59-1.318 1.763-1.577 3.74-1.577 3.74-1.9.835-3.574 2.36-4.393 3.286.254-2.065.641-3.36 1.353-4.933 1.355-3.06 3.936-5.19 6.576-5.428zm-40.86-1.864l.643-1.456c.22-.644.413-1.338.413-1.953 0-.455-.105-.872-.384-1.193-.453-.351-1.232-.171-1.735.17-.523.388-1.709 1.46-1.419 2.822.208.7.889 1.29 1.79 1.564l.285.046.032.007c.154.035.286.065.375-.007zm-.773 1.392c.015-.026.043-.114.043-.114.04-.088.055-.123.055-.151 0-.018-.006-.029-.011-.029-.986-.283-2.304-.898-3.007-2.225a.05.05 0 00-.005-.021.01.01 0 01-.003-.008.143.143 0 00-.057.02c-1.121 1.582-2.272 3.286-2.996 5.217l-.088.285c-.253.795-.565 1.78.039 2.491.286.351.844.264 1.248.132 1.351-.686 2.435-2.104 3.307-3.245l.025-.032 1.45-2.32zm18.267-1.777l-.103.139c-2.607 3.446-3.448 5.939-3.519 6.752a.641.641 0 00.281.626c.183.131.455.112.622.065 1.16-.634 1.874-1.544 2.581-2.605 0 0 .503-.757.501-.746 1.154-1.884 2.336-3.993 3.447-5.974.431-.767.85-1.515 1.253-2.223-.053-.415-.672-1.004-2.218.331-.437.379-2.123 2.658-2.845 3.635zm-25.397-.221c3.22-4.224 7.237-6.686 9.238-5.397h-.002c1.849 1.32.426 4.648-.029 5.714a8.03 8.03 0 00-.105.251c.718.18 2.963-1.566 4.298-3.015 1.066-1.156 3.176-2.779 4.327-3.205.859-.408 2.186-.54 3.056-.03.584.333.683 1.15.722 1.87.117 2.008-2.214 5.441-3.407 3.774-.246-.718-.026-1.623.747-2.418a1.886 1.886 0 011.476-.56c.237-.37.176-.907-.197-1.127-.396-.237-1.189-.075-1.916.483-2.585 2.019-4.81 5.498-6.128 9.181-.233.692-.36 1.744.053 2.465 1.133 1.713 3.782-.672 3.782-.672 1.788-1.564 3.512-3.728 4.868-5.65 3.518-4.999 8.069-9.699 10.134-6.896.015.02.033.049.05.077.025.04.049.078.062.09.028-.038.393-.615.393-.615h3.33l-6.941 12.42c-.145.293-.239.708 0 .905.191.132.527-.035.527-.035 1.653-.789 4.118-4.147 4.582-4.78l.077-.102h1.149c-.491.705-.974 1.5-1.474 2.323-1.335 2.197-2.788 4.587-4.799 5.977-.767.503-2.102 1.348-3.102.997-1.056-.652-1.05-2.583-.979-3.567l-.026.036c-.277.409-2.803 4.123-4.872 3.531-.725-.226-1.804-1.91-.945-4.848l.117-.463-.552.52c-.377.364-.765.77-1.165 1.188-1.79 1.876-3.818 4-6.219 3.605-1.94-.594-2.1-3.198-2.163-4.225-.009-.139-.016-.25-.025-.321-.233-1.85 1.855-5.449 2.153-5.962l.035-.061c-.551.159-1.109.291-1.672.398l-.795 1.289-.053.086c-.809 1.318-1.648 2.684-2.73 3.824l-.21.217c-1.624 1.867-5.749 6.152-7.807 3.756-1.381-2.036.194-7.24 3.137-11.028zm8.146 15.096c8.586-2.34 14.06-2.482 17.983 0 1.358.86 2.399 1.779 3.321 2.592.426.375.827.728 1.221 1.043-2.522-1.817-5.696-2.563-7.863-1.23-2.17 1.333-3.205 3.496-3.205 3.496-3.512-6.277-15.169-3.685-17.255-3.193-.922.369-1.822.849-2.716 1.325-1.603.855-3.185 1.7-4.835 1.868-3.662.304-6.858-2.976-8.336-5.701-1.909-3.932-.635-8.762.775-12.131 2.445-5.588 6.765-10.693 12.164-14.378 2.469-1.487 5.147-2.831 8.019-2.669.839.152 1.514.595 1.905 1.239.933 1.81-.253 3.751-1.055 4.764-.744.898-2.471 1.24-2.402-.398.048-1.07.935-1.864 1.258-2.113.4-.254.914-.3 1.221-.3.292-.266.516-2.122-1.889-1.516-3.136.966-5.513 3.371-8.074 6.174-4.59 5.388-7.173 10.246-8.131 15.294-.411 3.097.141 5.247 1.68 6.58 3.436 2.331 6.169 1.67 12.645.103 1.079-.261 2.262-.548 3.569-.85z" fill="#fff"/><g clip-path="url(#clip0_27_446)"><path fill-rule="evenodd" clip-rule="evenodd" d="M224.5 259c-26.786 0-48.5 21.714-48.5 48.5s21.714 48.5 48.5 48.5 48.5-21.714 48.5-48.5-21.714-48.5-48.5-48.5zm10.675 31.321c6.31 2.191 10.892 5.418 10 11.47v-.002h-.03c-.634 4.41-3.083 6.572-6.339 7.293 4.467 2.362 6.743 5.908 4.583 12.102-2.681 7.696-9.08 8.328-17.581 6.716l-2.046 8.271-4.983-1.241 2.044-8.155-4.005-1.037-2.018 8.184-4.985-1.238 2.075-8.271-3.544-.923-6.483-1.613 2.477-5.678s3.66.951 3.602.864c1.41.376 2.046-.545 2.277-1.152l3.256-13.055.547.116-.519-.173 2.307-9.336c.057-1.038-.289-2.363-2.307-2.882.059-.028-3.631-.894-3.631-.894l1.327-5.332 6.887 1.731v.027l3.17.75 2.045-8.184 4.986 1.239-2.017 8.011 3.977.951 1.989-7.954 4.983 1.24-2.044 8.155zm-15.619 29.729c4.116 1.068 12.848 3.333 14.235-2.294v-.029c1.441-5.735-7.034-7.66-11.27-8.622-.511-.116-.96-.218-1.322-.311l-2.737 10.978c.309.074.678.17 1.094.278zm3.699-16.058c3.382.897 10.796 2.862 12.064-2.288 1.326-5.28-5.92-6.874-9.42-7.643-.377-.083-.71-.157-.985-.224l-2.477 9.942c.234.058.509.131.818.213z" fill="#fff"/></g><g clip-path="url(#clip1_27_446)"><path fill-rule="evenodd" clip-rule="evenodd" d="M39 46c-31.48 0-57 25.52-57 57s25.52 57 57 57 57-25.52 57-57-25.52-57-57-57zm-2.038 53.328v-1.661c0-1.33-1.215-2.014-1.822-2.187L6.956 83.27c-.99-.56-3.037-1.073-4.027 0-1.24 1.348-.191 3.12.574 3.848C7.324 90.95 15.21 98.843 16.206 99.755c.998.912 2.142 1.173 2.59 1.189 5.095.016 15.587.037 16.776 0 1.187-.039 1.42-1.093 1.39-1.616zm4.076 0v-1.661c0-1.33 1.215-2.014 1.822-2.187l28.184-12.21c.99-.56 3.037-1.073 4.027 0 1.24 1.348.191 3.12-.574 3.848-3.821 3.833-11.706 11.725-12.703 12.637-.998.912-2.142 1.173-2.59 1.189-5.095.016-15.587.037-16.776 0-1.187-.039-1.42-1.093-1.39-1.616zm-4.074 9v-1.664c.03-.523-.201-1.575-1.39-1.616-1.189-.037-11.681-.014-16.778 0-.446.016-1.588.277-2.586 1.189-.997.912-8.884 8.804-12.703 12.638-.767.728-1.816 2.5-.576 3.847.99 1.075 3.037.56 4.027 0l28.184-12.21c.607-.173 1.822-.855 1.822-2.184zm4.076-1.655v1.661c0 1.329 1.215 2.013 1.822 2.186l28.184 12.21c.99.56 3.037 1.073 4.027 0 1.24-1.347.191-3.12-.574-3.847-3.821-3.833-11.706-11.726-12.703-12.638-.998-.912-2.142-1.172-2.59-1.189-5.095-.016-15.587-.036-16.776 0-1.187.039-1.42 1.093-1.39 1.617z" fill="#fff"/></g><g clip-path="url(#clip2_27_446)"><path fill-rule="evenodd" clip-rule="evenodd" d="M117 182c-19.882 0-36 16.118-36 36s16.118 36 36 36 36-16.118 36-36-16.118-36-36-36zm-6.04 25.088c.793-5.797 8.447-8.653 14.226-6.531 6.553 3.08 11.1 9.722 11.1 17.443 0 10.65-8.633 19.286-19.286 19.286-10.651 0-19.286-8.636-19.286-19.286 0-10.651 8.635-19.286 19.286-19.286.71.003 1.419.044 2.124.124-7.503-.017-14.786 4.363-16.233 13.24-1.412 8.731 4.034 15.678 11.273 17.558 3.583 1.238 8.089.904 11.029-2.534 1.833-2.142 2.667-8.513-4.624-9.953-7.029-1.39-10.364-4.519-9.609-10.061z" fill="#fff"/></g><g clip-path="url(#clip3_27_446)"><path fill-rule="evenodd" clip-rule="evenodd" d="M229 140c-16.569 0-30 13.431-30 30 0 16.569 13.431 30 30 30 16.569 0 30-13.431 30-30 0-16.569-13.431-30-30-30zm8.389 42.278a14.839 14.839 0 01-8.443 2.615l.011.01a14.882 14.882 0 01-11.987-6.061 14.889 14.889 0 017.106-22.9 14.886 14.886 0 0113.313 1.79 6.656 6.656 0 011.854-1.393 17.096 17.096 0 00-24.834 4.657 17.098 17.098 0 006.912 24.302 17.096 17.096 0 0017.922-1.648 6.652 6.652 0 01-1.854-1.372zm2.931-21.142c.145-.069.305-.105.466-.104.251.003.494.094.685.257a1.072 1.072 0 11-1.734.573 1.072 1.072 0 01.583-.726zm-2.449 2.339a3.23 3.23 0 01.347-3.297 3.21 3.21 0 015.278.206 3.214 3.214 0 01-4.06 4.644l-2.904 1.758h-13.961a1.07 1.07 0 010-2.143h13.372l1.928-1.168zm5.037 3.752a3.215 3.215 0 00-1.404 1.701h-21.075a1.07 1.07 0 100 2.143h21.075a3.213 3.213 0 101.404-3.844zm-2.963 9.995a1.062 1.062 0 00-.209.471h-.011a1.07 1.07 0 001.714 1.039 1.067 1.067 0 00.272-1.401 1.074 1.074 0 00-1.766-.109zm-2.375.903a3.196 3.196 0 01.291-1.568l-1.961-1.2h-13.329a1.07 1.07 0 010-2.143H236.5l2.904 1.768a3.222 3.222 0 012.773.03 3.223 3.223 0 011.716 3.599 3.219 3.219 0 01-3.107 2.5 3.203 3.203 0 01-3.216-2.986zm7.726-7.375a1.061 1.061 0 10-1.5-1.501 1.061 1.061 0 001.5 1.501z" fill="#fff"/></g><defs><clipPath id="clip0_27_446"><path fill="#fff" transform="translate(176 259)" d="M0 0h97v97H0z"/></clipPath><clipPath id="clip1_27_446"><path fill="#fff" transform="translate(-18 46)" d="M0 0h114v114H0z"/></clipPath><clipPath id="clip2_27_446"><path fill="#fff" transform="translate(81 182)" d="M0 0h72v72H0z"/></clipPath><clipPath id="clip3_27_446"><path fill="#fff" transform="translate(199 140)" d="M0 0h60v60H0z"/></clipPath></defs></svg>