<svg width="228" height="45" fill="none" xmlns="http://www.w3.org/2000/svg"><g clip-path="url(#clip0_204_345)"><path d="M0 41.33L4.18 45l9.979-11.228 1.805-1.687-4.728-2.652-3.653 3.241-2.855 3.524L0 41.329z" fill="url(#paint0_linear_204_345)"/><path d="M24.664 40.854l4.384-4.01 8.633-8.43 5.207-4.827 1.508-1.563-1.233-1.768L52 18.83l-2.466 8.769-1.506-1.494-3.77 3.738-6.44 6.05-6.485 6.233-6.669-1.271z" fill="url(#paint1_linear_204_345)"/><path d="M11.578 28.363c2.192-1.716 4.384-.187 5.396.611 1.686 1.334 3.594 2.798 6.782 6.577 1.334 1.581 2.508 3.08 4.625 4.13 1.423.705 2.37.764 3.02.697 1.655-.162 2.668-1.216 2.787-1.07.034.042.044.246-3.546 3.42-1.16 1.03-1.521 1.327-2.169 1.543-1.523.504-2.928-.016-3.38-.182-.953-.352-1.486-.868-2.877-2.295-1.788-1.824-3.363-3.51-4.134-4.328-1.696-1.794-2.393-2.476-3.334-3.24-1.566-1.27-2.4-1.636-3.128-1.835-.994-.272-2.06-.564-3.015-.092a8.571 8.571 0 01-1.028.364s1.868-2.63 4.001-4.3z" fill="url(#paint2_linear_204_345)"/><path d="M5.344 13.323h5.618v13.12l-5.208 4.486-.41-17.606zM16.853 5.71h5.345v24.768l-5.345-4.375V5.71zM28.022 0h5.343v29.433l-5.343 5.235V0z" fill="#E08178"/></g><g clip-path="url(#clip1_204_345)" fill="#E08178"><path d="M88.024 14.397h-7.53v20.285H75.43V14.397H68v-4.061h20.024v4.06zm11.74 6.717a13.588 13.588 0 00-1.755-.134c-1.846 0-3.057.618-3.632 1.853v11.834H89.49V16.605h4.61l.135 2.155c.982-1.661 2.339-2.492 4.068-2.492a5.133 5.133 0 011.52.219l-.058 4.627zm12.417 13.553a5.342 5.342 0 01-.487-1.623 5.903 5.903 0 01-2.084 1.487 5.956 5.956 0 01-2.526.469 6.529 6.529 0 01-4.451-1.531 4.959 4.959 0 01-1.324-1.742 4.901 4.901 0 01-.439-2.135c0-1.914.718-3.384 2.154-4.41 1.436-1.025 3.51-1.543 6.222-1.553h2.243V22.59a2.962 2.962 0 00-.65-2.005c-.433-.51-1.116-.766-2.049-.766a2.945 2.945 0 00-1.934.582 1.988 1.988 0 00-.7 1.607h-4.88c0-1.048.343-2.07.978-2.908a6.47 6.47 0 012.769-2.098 10.22 10.22 0 014.018-.765c2.251 0 4.037.56 5.36 1.68 1.322 1.12 1.986 2.697 1.991 4.73v7.84c0 1.714.243 3.012.728 3.892v.287h-4.939zm-4.033-3.36a4.228 4.228 0 001.991-.475 3.15 3.15 0 001.35-1.279v-3.108h-1.821c-2.444 0-3.745.835-3.902 2.504v.287a1.892 1.892 0 00.642 1.485 2.502 2.502 0 001.74.585zm11.226-5.814c0-2.823.645-5.068 1.934-6.737a6.214 6.214 0 012.305-1.898 6.272 6.272 0 012.934-.609 5.646 5.646 0 012.432.492 5.592 5.592 0 011.977 1.483V9h4.896v25.667h-4.409l-.236-1.914a5.737 5.737 0 01-2.072 1.684 5.794 5.794 0 01-2.619.57 6.263 6.263 0 01-2.901-.626 6.203 6.203 0 01-2.277-1.888c-1.309-1.682-1.964-4.015-1.964-7zm4.88.36c0 1.694.298 2.992.894 3.896.273.434.658.79 1.115 1.028a2.94 2.94 0 001.487.33c1.508 0 2.572-.63 3.19-1.89v-7.15c-.608-1.258-1.661-1.888-3.159-1.89-2.351 0-3.527 1.891-3.527 5.675zM148.025 35c-2.678 0-4.859-.814-6.543-2.442-1.683-1.628-2.524-3.797-2.521-6.506v-.468a10.798 10.798 0 011.063-4.872 7.74 7.74 0 013.013-3.307 8.494 8.494 0 014.447-1.148c2.498 0 4.465.78 5.901 2.342s2.154 3.773 2.154 6.633v1.971h-11.632a4.432 4.432 0 001.427 2.84 4.326 4.326 0 003.012 1.072c1.879 0 3.348-.675 4.405-2.024l2.397 2.656a7.303 7.303 0 01-2.97 2.4 9.826 9.826 0 01-4.153.853zm-.557-14.854a3.068 3.068 0 00-2.355.972 4.99 4.99 0 00-1.16 2.786h6.787v-.383c.036-.91-.277-1.8-.878-2.491a3.147 3.147 0 00-2.394-.884zm30.608 11.444a8.736 8.736 0 01-3.867 2.514c-1.779.616-3.653.92-5.538.896a11.064 11.064 0 01-5.595-1.378 9.228 9.228 0 01-3.713-4.003 13.918 13.918 0 01-1.342-6.166v-1.654a14.878 14.878 0 011.238-6.308 9.116 9.116 0 013.581-4.08A10.387 10.387 0 01168.319 10c2.916 0 5.195.689 6.837 2.067 1.643 1.378 2.616 3.38 2.92 6.005h-4.93c-.225-1.393-.722-2.414-1.493-3.062-.774-.647-1.833-.968-3.183-.968-1.722 0-3.033.638-3.933 1.913-.899 1.276-1.35 3.185-1.353 5.726v1.554c0 2.552.49 4.48 1.47 5.784.979 1.303 2.414 1.956 4.304 1.956 1.902 0 3.259-.402 4.072-1.206v-4.191h-4.625v-3.694h9.667l.004 9.707zm14.37 3.077a5.225 5.225 0 01-.491-1.623 5.903 5.903 0 01-2.084 1.487 5.956 5.956 0 01-2.525.469 6.521 6.521 0 01-4.448-1.531 4.958 4.958 0 01-1.324-1.741 4.901 4.901 0 01-.439-2.136c0-1.914.717-3.384 2.15-4.41 1.433-1.025 3.508-1.543 6.222-1.553h2.247V22.59a2.962 2.962 0 00-.65-2.005c-.433-.51-1.117-.766-2.053-.766a2.954 2.954 0 00-1.934.582 1.988 1.988 0 00-.7 1.607h-4.88a4.819 4.819 0 01.982-2.908 6.423 6.423 0 012.769-2.098 10.194 10.194 0 014.018-.765c2.251 0 4.037.56 5.36 1.68 1.322 1.12 1.984 2.693 1.984 4.72v7.838c0 1.715.242 3.012.727 3.892v.288l-4.931.011zm-4.037-3.36a4.236 4.236 0 001.992-.475 3.163 3.163 0 001.353-1.279v-3.107h-1.825c-2.444 0-3.744.834-3.898 2.503v.287a1.893 1.893 0 00.642 1.485 2.509 2.509 0 001.736.585zm17.831-19.169v4.467h3.121v3.54h-3.121v9.026a2.126 2.126 0 00.387 1.435c.258.29.753.436 1.485.436.481.006.961-.034 1.434-.118v3.659a10.12 10.12 0 01-2.954.436c-3.421 0-5.165-1.71-5.232-5.129v-9.764h-2.669v-3.52h2.669v-4.468h4.88zM220.486 35c-2.676 0-4.857-.814-6.543-2.442-1.686-1.628-2.526-3.797-2.521-6.506v-.468a10.853 10.853 0 011.063-4.872 7.74 7.74 0 013.013-3.307 8.503 8.503 0 014.451-1.148c2.498 0 4.464.78 5.897 2.342 1.433 1.562 2.151 3.773 2.154 6.633v1.971h-11.632a4.468 4.468 0 001.427 2.84 4.325 4.325 0 003.012 1.072 5.32 5.32 0 002.455-.479 5.263 5.263 0 001.954-1.546l2.397 2.657a7.334 7.334 0 01-2.973 2.4 9.833 9.833 0 01-4.154.853zm-.557-14.854a3.07 3.07 0 00-2.355.972 5.022 5.022 0 00-1.16 2.786h6.787v-.383a3.563 3.563 0 00-.878-2.491 3.142 3.142 0 00-2.394-.884z"/></g><defs><linearGradient id="paint0_linear_204_345" x1="13.774" y1="30.495" x2=".911" y2="42.454" gradientUnits="userSpaceOnUse"><stop stop-color="#E08178"/><stop offset="1" stop-color="#EEE2E1"/></linearGradient><linearGradient id="paint1_linear_204_345" x1="48.249" y1="20.418" x2="28.987" y2="40.911" gradientUnits="userSpaceOnUse"><stop stop-color="#E08178"/><stop offset="1" stop-color="#EEE2E1"/></linearGradient><linearGradient id="paint2_linear_204_345" x1="14.336" y1="26.23" x2="20.794" y2="44.518" gradientUnits="userSpaceOnUse"><stop stop-color="#E08178"/><stop offset="1" stop-color="#7A507A"/></linearGradient><clipPath id="clip0_204_345"><path fill="#fff" d="M0 0h52v45H0z"/></clipPath><clipPath id="clip1_204_345"><path fill="#fff" transform="translate(68 9)" d="M0 0h160v26H0z"/></clipPath></defs></svg>