<svg width="40" height="40" fill="none" xmlns="http://www.w3.org/2000/svg"><g clip-path="url(#clip0_19_812)"><path d="M0 0h40v40H0V0z" fill="url(#paint0_linear_19_812)"/><path d="M29.286 23.563a11.573 11.573 0 01-1.575 3.066c-.622.864-1.133 1.461-1.527 1.793-.609.545-1.263.825-1.963.84-.502 0-1.107-.14-1.812-.42-.708-.281-1.358-.42-1.952-.42-.623 0-1.291.139-2.007.42-.716.28-1.293.428-1.734.442-.671.028-1.339-.258-2.007-.862-.425-.361-.958-.98-1.597-1.857-.685-.936-1.248-2.023-1.688-3.261-.473-1.337-.71-2.632-.71-3.886 0-1.436.32-2.674.959-3.712a5.54 5.54 0 012.008-1.974 5.518 5.518 0 012.715-.745c.533 0 1.231.16 2.1.474.865.317 1.421.477 1.665.477.183 0 .8-.187 1.847-.56.99-.347 1.826-.49 2.51-.434 1.856.145 3.248.857 4.176 2.137-1.659.977-2.479 2.345-2.463 4.1.015 1.368.525 2.506 1.528 3.41.446.413.963.742 1.527.972zM24.62 7.857c.014.143.021.287.021.429 0 1.071-.402 2.073-1.204 2.998-.97 1.102-2.141 1.737-3.413 1.637a3.23 3.23 0 01-.025-.406c0-1.029.46-2.13 1.279-3.03.408-.456.928-.835 1.557-1.137.63-.298 1.226-.462 1.785-.49z" fill="#fff"/></g><defs><linearGradient id="paint0_linear_19_812" x1="7.441" y1="6.937" x2="48.676" y2="54.298" gradientUnits="userSpaceOnUse"><stop stop-color="#1A1E21"/><stop offset="1" stop-color="#06060A"/></linearGradient><clipPath id="clip0_19_812"><rect width="40" height="40" rx="20" fill="#fff"/></clipPath></defs></svg>