<svg width="255" height="100" fill="none" xmlns="http://www.w3.org/2000/svg"><g filter="url(#filter0_d_174_1045)"><rect x="8.5" y="12" width="43.5" height="30" rx="6" fill="#fff" shape-rendering="crispEdges"/><rect x="9" y="12.5" width="42.5" height="29" rx="5.5" stroke="#F2F4F7" shape-rendering="crispEdges"/><path fill-rule="evenodd" clip-rule="evenodd" d="M21.938 31.823h-2.575l-1.93-7.582c-.092-.35-.287-.658-.573-.803a8.217 8.217 0 00-2.36-.802v-.292h4.148c.572 0 1.001.438 1.073.947l1.002 5.47 2.573-6.417H25.8l-3.861 9.479zm5.292 0H24.8l2.002-9.48h2.432l-2.003 9.48zm5.148-6.853c.072-.51.501-.803 1.002-.803a4.418 4.418 0 012.36.437l.43-2.04a6.002 6.002 0 00-2.217-.439c-2.36 0-4.078 1.313-4.078 3.135 0 1.387 1.217 2.114 2.075 2.553.93.437 1.287.73 1.216 1.166 0 .656-.716.948-1.43.948-.859 0-1.718-.218-2.503-.584l-.43 2.043c.859.364 1.788.51 2.646.51 2.647.072 4.291-1.24 4.291-3.209 0-2.479-3.362-2.624-3.362-3.717zm11.872 6.853l-1.93-9.48h-2.075c-.429 0-.858.293-1.001.73l-3.575 8.75h2.503l.5-1.385h3.075l.286 1.385h2.217zm-3.647-6.927l.715 3.573h-2.003l1.288-3.573z" fill="#172B85"/></g><g filter="url(#filter1_d_174_1045)"><rect x="72" y="12" width="43.5" height="30" rx="6" fill="#fff" shape-rendering="crispEdges"/><rect x="72.5" y="12.5" width="42.5" height="29" rx="5.5" stroke="#F2F4F7" shape-rendering="crispEdges"/><path fill-rule="evenodd" clip-rule="evenodd" d="M93.474 33.037c-1.48 1.247-3.4 2-5.498 2-4.681 0-8.476-3.75-8.476-8.374 0-4.626 3.795-8.375 8.476-8.375 2.098 0 4.018.753 5.498 2 1.48-1.247 3.4-2 5.498-2 4.681 0 8.475 3.75 8.475 8.375s-3.794 8.375-8.475 8.375a8.503 8.503 0 01-5.498-2.001z" fill="#ED0006"/><path fill-rule="evenodd" clip-rule="evenodd" d="M93.474 33.037a8.316 8.316 0 002.978-6.374 8.316 8.316 0 00-2.978-6.375c1.48-1.247 3.4-2 5.498-2 4.681 0 8.476 3.75 8.476 8.375s-3.795 8.375-8.476 8.375a8.503 8.503 0 01-5.498-2.001z" fill="#F9A000"/><path fill-rule="evenodd" clip-rule="evenodd" d="M93.474 33.037a8.316 8.316 0 002.978-6.374 8.316 8.316 0 00-2.978-6.375 8.316 8.316 0 00-2.978 6.375 8.316 8.316 0 002.978 6.374z" fill="#FF5E00"/></g><g filter="url(#filter2_d_174_1045)"><rect x="135.5" y="12" width="43.5" height="30" rx="6" fill="#fff" shape-rendering="crispEdges"/><rect x="136" y="12.5" width="42.5" height="29" rx="5.5" stroke="#F2F4F7" shape-rendering="crispEdges"/><path fill-rule="evenodd" clip-rule="evenodd" d="M153.768 35.06l.276-1.811-.615-.015h-2.935l2.04-13.367a.177.177 0 01.057-.105.162.162 0 01.108-.041h4.949c1.643 0 2.777.353 3.369 1.05.277.328.454.67.54 1.046.089.395.091.867.003 1.442l-.006.042v.369l.278.162c.233.128.419.275.561.443.238.28.391.635.456 1.056.067.434.045.95-.065 1.534-.126.672-.331 1.257-.608 1.736a3.531 3.531 0 01-.962 1.09c-.368.27-.804.474-1.297.605a6.272 6.272 0 01-1.621.194h-.385c-.275 0-.543.102-.753.286-.21.188-.35.444-.392.724l-.029.163-.488 3.193-.022.117c-.006.037-.016.056-.031.068a.08.08 0 01-.05.02h-2.378z" fill="#28356A"/><path fill-rule="evenodd" clip-rule="evenodd" d="M162.095 23.343a9.874 9.874 0 01-.051.3c-.653 3.463-2.885 4.66-5.737 4.66h-1.452a.712.712 0 00-.697.617l-.954 6.254a.38.38 0 00.367.444h2.575a.626.626 0 00.612-.54l.025-.135.485-3.18.031-.175a.627.627 0 01.612-.54h.385c2.495 0 4.449-1.047 5.02-4.077.238-1.266.115-2.323-.516-3.066a2.474 2.474 0 00-.705-.562z" fill="#298FC2"/><path fill-rule="evenodd" clip-rule="evenodd" d="M161.412 23.062a5.042 5.042 0 00-.635-.146 7.833 7.833 0 00-1.28-.096h-3.879a.594.594 0 00-.267.063.637.637 0 00-.344.478l-.826 5.402-.023.157a.712.712 0 01.697-.617h1.452c2.851 0 5.084-1.197 5.737-4.66.019-.102.035-.202.05-.3a3.424 3.424 0 00-.682-.281z" fill="#22284F"/><path fill-rule="evenodd" clip-rule="evenodd" d="M155.007 23.36a.635.635 0 01.344-.477.6.6 0 01.267-.063h3.879c.46 0 .889.032 1.28.097a5.207 5.207 0 01.781.192c.193.066.372.144.537.234.194-1.28-.002-2.15-.671-2.94-.738-.869-2.07-1.24-3.775-1.24H152.7a.715.715 0 00-.699.617l-2.061 13.505a.435.435 0 00.419.508h3.055l1.593-10.432z" fill="#28356A"/></g><g filter="url(#filter3_d_174_1045)"><rect x="199" y="12" width="43.5" height="30" rx="6" fill="#fff" shape-rendering="crispEdges"/><rect x="199.5" y="12.5" width="42.5" height="29" rx="5.5" stroke="#F2F4F7" shape-rendering="crispEdges"/><path fill-rule="evenodd" clip-rule="evenodd" d="M230.087 26.919c0 5.478-4.44 9.918-9.918 9.918-5.478 0-9.919-4.44-9.919-9.918 0-5.478 4.441-9.919 9.919-9.919 5.478 0 9.918 4.44 9.918 9.919zm-7.535-3.685c1.379.473 2.389 1.183 2.191 2.503-.144.967-.682 1.435-1.397 1.598.981.509 1.315 1.474 1.004 2.64-.589 1.68-1.991 1.822-3.855 1.47l-.452 1.806-1.093-.272.446-1.78c-.283-.07-.573-.146-.871-.226l-.448 1.79-1.092-.272.452-1.809-2.201-.553.543-1.246s.806.212.795.197c.309.076.447-.125.501-.258l1.227-4.9c.013-.231-.067-.523-.51-.633.017-.012-.793-.197-.793-.197l.29-1.163 2.204.544.449-1.788 1.092.271-.439 1.754c.294.066.589.133.876.205l.436-1.742 1.092.271-.447 1.79zm-2.615 2.983c.744.197 2.364.627 2.646-.5.288-1.151-1.285-1.499-2.056-1.67l-.227-.051-.544 2.174.181.047zm-.843 3.5c.891.236 2.841.75 3.151-.491.318-1.269-1.573-1.691-2.495-1.898a11.7 11.7 0 01-.268-.062l-.601 2.397.213.055z" fill="#F7931A"/></g><g filter="url(#filter4_d_174_1045)"><rect x="8.5" y="62" width="43.5" height="30" rx="6" fill="#fff" shape-rendering="crispEdges"/><rect x="9" y="62.5" width="42.5" height="29" rx="5.5" stroke="#F2F4F7" shape-rendering="crispEdges"/><path fill-rule="evenodd" clip-rule="evenodd" d="M20.506 72.429c-.37.44-.96.787-1.55.737-.075-.595.215-1.227.553-1.617.37-.452 1.015-.774 1.538-.799.062.62-.178 1.227-.541 1.679zm.535.855c-.52-.03-.995.157-1.379.31-.247.097-.456.18-.615.18-.178 0-.396-.088-.64-.186-.32-.127-.686-.274-1.07-.267-.88.013-1.698.514-2.148 1.314-.922 1.598-.24 3.965.653 5.266.437.644.96 1.35 1.649 1.325.303-.011.52-.104.747-.2.26-.112.53-.227.95-.227.408 0 .666.112.914.22.235.103.462.201.797.195.714-.012 1.163-.644 1.6-1.289a5.643 5.643 0 00.71-1.468l.004-.012-.017-.008c-.158-.073-1.362-.628-1.374-2.117-.011-1.25.956-1.883 1.108-1.983a.337.337 0 00.018-.012c-.615-.917-1.575-1.016-1.907-1.041zm4.94 7.862v-9.659h3.6c1.859 0 3.157 1.289 3.157 3.172 0 1.884-1.323 3.185-3.206 3.185h-2.061v3.302h-1.49zm1.49-8.395h1.716c1.293 0 2.031.694 2.031 1.914 0 1.221-.738 1.921-2.037 1.921h-1.71v-3.835zm10.183 7.236c-.394.756-1.261 1.233-2.196 1.233-1.385 0-2.35-.83-2.35-2.082 0-1.239.934-1.951 2.663-2.056l1.859-.112v-.533c0-.787-.511-1.214-1.422-1.214-.75 0-1.298.39-1.409.985h-1.341c.043-1.251 1.212-2.162 2.793-2.162 1.705 0 2.812.898 2.812 2.292v4.808h-1.378v-1.159h-.03zm-1.797.087c-.793 0-1.298-.384-1.298-.973 0-.607.486-.96 1.415-1.016l1.656-.105v.545c0 .905-.763 1.549-1.773 1.549zm7.778 1.45c-.597 1.691-1.28 2.249-2.732 2.249-.11 0-.48-.013-.566-.037v-1.159c.092.012.32.025.437.025.658 0 1.027-.279 1.255-1.004l.135-.427-2.522-7.032h1.556l1.754 5.706h.03l1.754-5.706h1.514l-2.615 7.385z" fill="#000"/></g><g filter="url(#filter5_d_174_1045)"><rect x="72" y="62" width="43.5" height="30" rx="6" fill="#fff" shape-rendering="crispEdges"/><rect x="72.5" y="62.5" width="42.5" height="29" rx="5.5" stroke="#F2F4F7" shape-rendering="crispEdges"/><circle cx="93.169" cy="76.919" fill="#6481E7" r="9.919"/><path fill-rule="evenodd" clip-rule="evenodd" d="M88.835 77.322l4.45 2.63V69.94l-4.45 7.382z" fill="#fff"/><path fill-rule="evenodd" clip-rule="evenodd" d="M93.285 69.94v10.013l4.45-2.63-4.45-7.383z" fill="#C1CCF5"/><path fill-rule="evenodd" clip-rule="evenodd" d="M93.285 75.3l-4.45 2.022 4.45 2.63 4.45-2.63-4.45-2.022z" fill="#8299EC"/><path fill-rule="evenodd" clip-rule="evenodd" d="M93.285 75.3l-4.45 2.022 4.45 2.63V75.3z" fill="#C1CCF5"/><path fill-rule="evenodd" clip-rule="evenodd" d="M88.835 78.166l4.45 6.27v-3.641l-4.45-2.629z" fill="#fff"/><path fill-rule="evenodd" clip-rule="evenodd" d="M93.285 80.795v3.641l4.452-6.27-4.452 2.629z" fill="#C1CCF5"/></g><g filter="url(#filter6_d_174_1045)"><rect x="135.5" y="62" width="43.5" height="30" rx="6" fill="#fff" shape-rendering="crispEdges"/><rect x="136" y="62.5" width="42.5" height="29" rx="5.5" stroke="#F2F4F7" shape-rendering="crispEdges"/><path d="M162.977 76.943c.664.014 1.332-.03 1.994.023.669.125.831 1.139.236 1.47-.406.22-.889.082-1.329.12h-.901v-1.613zm2.378-1.827c.147.52-.355.989-.856.917h-1.522c.011-.491-.021-1.024.016-1.49.609.017 1.224-.035 1.83.028.26.065.478.279.532.545zm3.661-7.723c.028.995.004 2.042.012 3.057-.002 4.125.004 8.25-.003 12.376-.027 1.546-1.397 2.89-2.933 2.92-1.537.007-3.074.002-4.611.003v-6.237c1.675-.008 3.351.018 5.025-.013.776-.048 1.627-.56 1.663-1.415.091-.859-.718-1.453-1.486-1.546-.295-.008-.287-.086 0-.12.733-.159 1.308-.917 1.093-1.677-.184-.799-1.067-1.108-1.802-1.106-1.497-.01-2.995-.002-4.493-.005.01-1.164-.02-2.33.017-3.493.118-1.519 1.523-2.77 3.037-2.743h4.481z" fill="url(#paint0_linear_174_1045)"/><path d="M144.558 70.294c.038-1.544 1.414-2.876 2.948-2.899 1.531-.005 3.063 0 4.594-.002-.004 5.165.008 10.33-.006 15.495-.059 1.525-1.421 2.832-2.937 2.859-1.534.005-3.069 0-4.603.002v-6.447c1.49.352 3.053.502 4.573.268.909-.146 1.903-.592 2.211-1.535.226-.806.099-1.655.133-2.483V73.63h-2.631c-.012 1.271.024 2.545-.019 3.815-.071.78-.844 1.276-1.58 1.25-.913.01-2.722-.662-2.722-.662-.005-2.382.026-5.365.039-7.739z" fill="url(#paint1_linear_174_1045)"/><path d="M153.081 74.406c-.139.029-.028-.472-.063-.662.009-1.202-.02-2.406.016-3.607.118-1.524 1.534-2.78 3.054-2.744h4.476c-.004 5.165.008 10.33-.006 15.495-.06 1.525-1.421 2.832-2.938 2.86-1.534.005-3.068 0-4.602.001v-7.063c1.048.86 2.472.993 3.777.996.984 0 1.963-.153 2.918-.38v-1.294c-1.077.537-2.343.878-3.537.57-.833-.207-1.437-1.012-1.424-1.872-.096-.894.428-1.837 1.306-2.103 1.091-.342 2.279-.08 3.302.363.219.115.441.257.353-.109V73.84c-1.709-.407-3.529-.556-5.247-.114-.497.14-.981.353-1.385.68z" fill="url(#paint2_linear_174_1045)"/></g><g filter="url(#filter7_d_174_1045)"><rect x="199" y="62" width="43.5" height="30" rx="6" fill="#fff" shape-rendering="crispEdges"/><rect x="199.5" y="62.5" width="42.5" height="29" rx="5.5" stroke="#F2F4F7" shape-rendering="crispEdges"/><path fill-rule="evenodd" clip-rule="evenodd" d="M221.835 72.177l-2.159.477v-1.801l2.159-.469v1.793zm4.49.998c-.843 0-1.385.407-1.686.69l-.112-.548h-1.892v10.299l2.15-.469.009-2.5c.31.23.765.557 1.522.557 1.54 0 2.942-1.272 2.942-4.072-.009-2.561-1.428-3.957-2.933-3.957zm-.516 6.086c-.508 0-.809-.185-1.015-.415l-.009-3.277c.224-.256.534-.433 1.024-.433.783 0 1.324.901 1.324 2.058 0 1.184-.533 2.067-1.324 2.067zm10.227-2.04c0-2.261-1.067-4.046-3.105-4.046-2.047 0-3.286 1.785-3.286 4.028 0 2.659 1.462 4.001 3.561 4.001 1.024 0 1.798-.238 2.383-.574v-1.766c-.585.3-1.256.485-2.108.485-.834 0-1.574-.3-1.668-1.342h4.206c0-.049.003-.16.006-.287.005-.173.011-.377.011-.5zm-4.249-.84c0-.997.593-1.412 1.135-1.412.525 0 1.084.415 1.084 1.413h-2.219zm-12.111-3.055h2.159v7.728h-2.159v-7.728zm-2.451 0l.138.653c.507-.954 1.514-.76 1.789-.653v2.031c-.267-.097-1.127-.22-1.634.46v5.237h-2.151v-7.728h1.858zm-4.163-1.917l-2.099.46-.008 7.074c0 1.307.954 2.27 2.227 2.27.706 0 1.222-.132 1.506-.291v-1.793c-.276.114-1.635.52-1.635-.787v-3.135h1.635v-1.881h-1.635l.009-1.917zm-5.083 3.683c-.456 0-.731.133-.731.477 0 .376.473.542 1.061.747.958.334 2.219.775 2.224 2.406 0 1.581-1.23 2.491-3.019 2.491a5.83 5.83 0 01-2.348-.503v-2.102c.723.406 1.634.706 2.348.706.482 0 .826-.132.826-.539 0-.416-.513-.607-1.133-.837-.945-.35-2.135-.791-2.135-2.263 0-1.563 1.161-2.5 2.907-2.5a5.54 5.54 0 012.133.407v2.075c-.654-.362-1.48-.565-2.133-.565z" fill="#6461FC"/></g><defs><filter id="filter0_d_174_1045" x=".5" y="0" width="63.5" height="50" filterUnits="userSpaceOnUse" color-interpolation-filters="sRGB"><feFlood flood-opacity="0" result="BackgroundImageFix"/><feColorMatrix in="SourceAlpha" values="0 0 0 0 0 0 0 0 0 0 0 0 0 0 0 0 0 0 127 0" result="hardAlpha"/><feOffset dx="2" dy="-2"/><feGaussianBlur stdDeviation="5"/><feComposite in2="hardAlpha" operator="out"/><feColorMatrix values="0 0 0 0 0 0 0 0 0 0 0 0 0 0 0 0 0 0 0.1 0"/><feBlend in2="BackgroundImageFix" result="effect1_dropShadow_174_1045"/><feBlend in="SourceGraphic" in2="effect1_dropShadow_174_1045" result="shape"/></filter><filter id="filter1_d_174_1045" x="64" y="0" width="63.5" height="50" filterUnits="userSpaceOnUse" color-interpolation-filters="sRGB"><feFlood flood-opacity="0" result="BackgroundImageFix"/><feColorMatrix in="SourceAlpha" values="0 0 0 0 0 0 0 0 0 0 0 0 0 0 0 0 0 0 127 0" result="hardAlpha"/><feOffset dx="2" dy="-2"/><feGaussianBlur stdDeviation="5"/><feComposite in2="hardAlpha" operator="out"/><feColorMatrix values="0 0 0 0 0 0 0 0 0 0 0 0 0 0 0 0 0 0 0.1 0"/><feBlend in2="BackgroundImageFix" result="effect1_dropShadow_174_1045"/><feBlend in="SourceGraphic" in2="effect1_dropShadow_174_1045" result="shape"/></filter><filter id="filter2_d_174_1045" x="127.5" y="0" width="63.5" height="50" filterUnits="userSpaceOnUse" color-interpolation-filters="sRGB"><feFlood flood-opacity="0" result="BackgroundImageFix"/><feColorMatrix in="SourceAlpha" values="0 0 0 0 0 0 0 0 0 0 0 0 0 0 0 0 0 0 127 0" result="hardAlpha"/><feOffset dx="2" dy="-2"/><feGaussianBlur stdDeviation="5"/><feComposite in2="hardAlpha" operator="out"/><feColorMatrix values="0 0 0 0 0 0 0 0 0 0 0 0 0 0 0 0 0 0 0.1 0"/><feBlend in2="BackgroundImageFix" result="effect1_dropShadow_174_1045"/><feBlend in="SourceGraphic" in2="effect1_dropShadow_174_1045" result="shape"/></filter><filter id="filter3_d_174_1045" x="191" y="0" width="63.5" height="50" filterUnits="userSpaceOnUse" color-interpolation-filters="sRGB"><feFlood flood-opacity="0" result="BackgroundImageFix"/><feColorMatrix in="SourceAlpha" values="0 0 0 0 0 0 0 0 0 0 0 0 0 0 0 0 0 0 127 0" result="hardAlpha"/><feOffset dx="2" dy="-2"/><feGaussianBlur stdDeviation="5"/><feComposite in2="hardAlpha" operator="out"/><feColorMatrix values="0 0 0 0 0 0 0 0 0 0 0 0 0 0 0 0 0 0 0.1 0"/><feBlend in2="BackgroundImageFix" result="effect1_dropShadow_174_1045"/><feBlend in="SourceGraphic" in2="effect1_dropShadow_174_1045" result="shape"/></filter><filter id="filter4_d_174_1045" x=".5" y="50" width="63.5" height="50" filterUnits="userSpaceOnUse" color-interpolation-filters="sRGB"><feFlood flood-opacity="0" result="BackgroundImageFix"/><feColorMatrix in="SourceAlpha" values="0 0 0 0 0 0 0 0 0 0 0 0 0 0 0 0 0 0 127 0" result="hardAlpha"/><feOffset dx="2" dy="-2"/><feGaussianBlur stdDeviation="5"/><feComposite in2="hardAlpha" operator="out"/><feColorMatrix values="0 0 0 0 0 0 0 0 0 0 0 0 0 0 0 0 0 0 0.1 0"/><feBlend in2="BackgroundImageFix" result="effect1_dropShadow_174_1045"/><feBlend in="SourceGraphic" in2="effect1_dropShadow_174_1045" result="shape"/></filter><filter id="filter5_d_174_1045" x="64" y="50" width="63.5" height="50" filterUnits="userSpaceOnUse" color-interpolation-filters="sRGB"><feFlood flood-opacity="0" result="BackgroundImageFix"/><feColorMatrix in="SourceAlpha" values="0 0 0 0 0 0 0 0 0 0 0 0 0 0 0 0 0 0 127 0" result="hardAlpha"/><feOffset dx="2" dy="-2"/><feGaussianBlur stdDeviation="5"/><feComposite in2="hardAlpha" operator="out"/><feColorMatrix values="0 0 0 0 0 0 0 0 0 0 0 0 0 0 0 0 0 0 0.1 0"/><feBlend in2="BackgroundImageFix" result="effect1_dropShadow_174_1045"/><feBlend in="SourceGraphic" in2="effect1_dropShadow_174_1045" result="shape"/></filter><filter id="filter6_d_174_1045" x="127.5" y="50" width="63.5" height="50" filterUnits="userSpaceOnUse" color-interpolation-filters="sRGB"><feFlood flood-opacity="0" result="BackgroundImageFix"/><feColorMatrix in="SourceAlpha" values="0 0 0 0 0 0 0 0 0 0 0 0 0 0 0 0 0 0 127 0" result="hardAlpha"/><feOffset dx="2" dy="-2"/><feGaussianBlur stdDeviation="5"/><feComposite in2="hardAlpha" operator="out"/><feColorMatrix values="0 0 0 0 0 0 0 0 0 0 0 0 0 0 0 0 0 0 0.1 0"/><feBlend in2="BackgroundImageFix" result="effect1_dropShadow_174_1045"/><feBlend in="SourceGraphic" in2="effect1_dropShadow_174_1045" result="shape"/></filter><filter id="filter7_d_174_1045" x="191" y="50" width="63.5" height="50" filterUnits="userSpaceOnUse" color-interpolation-filters="sRGB"><feFlood flood-opacity="0" result="BackgroundImageFix"/><feColorMatrix in="SourceAlpha" values="0 0 0 0 0 0 0 0 0 0 0 0 0 0 0 0 0 0 127 0" result="hardAlpha"/><feOffset dx="2" dy="-2"/><feGaussianBlur stdDeviation="5"/><feComposite in2="hardAlpha" operator="out"/><feColorMatrix values="0 0 0 0 0 0 0 0 0 0 0 0 0 0 0 0 0 0 0.1 0"/><feBlend in2="BackgroundImageFix" result="effect1_dropShadow_174_1045"/><feBlend in="SourceGraphic" in2="effect1_dropShadow_174_1045" result="shape"/></filter><linearGradient id="paint0_linear_174_1045" x1="161.43" y1="76.179" x2="168.98" y2="76.179" gradientUnits="userSpaceOnUse"><stop stop-color="#58B03A"/><stop offset="1" stop-color="#55B330"/></linearGradient><linearGradient id="paint1_linear_174_1045" x1="144.394" y1="76.747" x2="151.976" y2="76.747" gradientUnits="userSpaceOnUse"><stop stop-color="#0F6EB6"/><stop offset="1" stop-color="#006DBA"/></linearGradient><linearGradient id="paint2_linear_174_1045" x1="153.007" y1="76.357" x2="160.562" y2="76.357" gradientUnits="userSpaceOnUse"><stop stop-color="#DE0D3D"/><stop offset="1" stop-color="#E30138"/></linearGradient></defs></svg>