<svg width="60" height="60" fill="none" xmlns="http://www.w3.org/2000/svg"><path fill-rule="evenodd" clip-rule="evenodd" d="M30 0C13.431 0 0 13.431 0 30c0 16.569 13.431 30 30 30 16.569 0 30-13.431 30-30C60 13.431 46.569 0 30 0zm3.824 31.209c-1.484-.69-3.452-1.852-3.424-3.933.022-2.812 2.741-4.776 6.61-4.776 1.247.003 2.486.22 3.66.642l-.688 3.063c-1.751-.771-3.297-.717-3.857-.646-1.131.14-1.648.692-1.66 1.208-.015.685.87 1.13 1.932 1.662 1.583.794 3.56 1.787 3.551 4.069-.015 3.004-2.703 4.942-6.812 4.942-1.75-.015-3.44-.365-4.35-.767l.707-3.166.07.031c.898.402 2.033.91 3.948.882 1.127-.016 2.331-.445 2.342-1.415.007-.633-.506-1.087-2.03-1.796zm11.79-7.648c.283-.643.915-1.061 1.665-1.061h3.34l2.952 15h-3.618l-.268-2.443h-5.017L43.644 37.5h-4.106l6.076-13.94zm3.424 8.534l-1.185-5.427-2.06 5.427h3.245zM21.978 37.5l3.443-15h3.912l-3.443 15h-3.913zm-6.419-4.9l4.074-10.1h4.109l-6.547 15h-4.134l-2.915-12.081c-.19-.71-.353-.971-.929-1.27-.94-.49-2.493-.946-3.86-1.229l.093-.42h6.658c.848 0 1.612.54 1.804 1.472L15.56 32.6z" fill="#fff"/></svg>