<svg width="60" height="60" fill="none" xmlns="http://www.w3.org/2000/svg"><path fill-rule="evenodd" clip-rule="evenodd" d="M0 30C0 13.431 13.431 0 30 0c16.569 0 30 13.431 30 30 0 16.569-13.431 30-30 30C13.431 60 0 46.569 0 30zm55.714 7.5v-3.214h-6.428V22.5H46.07v15h9.643zM26.968 21.429L18.54 28.11v.125a7.505 7.505 0 00-6.755-5.717V22.5H5.357v15h6.429v-.02a7.504 7.504 0 006.755-5.715v.128l8.427 6.678 8.39-6.678V37.5H45v-3.214h-6.429V22.5h-3.214v5.607l-8.17 6.682-1.728-1.559 3.89-3.117 4.107-3.34-2.376-2-7.997 6.452-1.728-1.56 7.995-6.235-2.377-2.001h-.005zM11.25 25.714H8.571v8.572h2.679a4.286 4.286 0 000-8.572z" fill="#fff"/></svg>