<svg width="40" height="40" fill="none" xmlns="http://www.w3.org/2000/svg"><g clip-path="url(#clip0_19_786)"><path d="M0 0h40v40H0V0z" fill="#E82127"/><path d="M20 32.857L23.214 15c3.048 0 3.996.051 4.135 1.421 0 0 2.045-.765 3.075-2.321-4.023-1.871-8.067-1.957-8.067-1.957L20 15l-2.357-2.857s-4.043.084-8.067 1.957c1.03 1.555 3.076 2.321 3.076 2.321.14-1.371 1.107-1.419 4.134-1.421L20 32.857z" fill="#fff"/><path d="M20 11.39c3.253-.024 6.903.513 10.714 2.181.51-.921.715-1.428.715-1.428C27.262 10.487 23.36 10.014 20 10c-3.36.014-7.262.487-11.429 2.143 0 0 .26.602.715 1.428 3.81-1.668 7.461-2.205 10.714-2.18z" fill="#fff"/></g><defs><clipPath id="clip0_19_786"><rect width="40" height="40" rx="20" fill="#fff"/></clipPath></defs></svg>