<svg width="60" height="60" fill="none" xmlns="http://www.w3.org/2000/svg"><path fill-rule="evenodd" clip-rule="evenodd" d="M30 0C13.431 0 0 13.431 0 30c0 16.569 13.431 30 30 30 16.569 0 30-13.431 30-30C60 13.431 46.569 0 30 0zm13.346 36.836c.204-.476.398-.972.583-1.492a7.596 7.596 0 01-2.291-1.458c-1.504-1.355-2.27-3.063-2.292-5.115-.023-2.632 1.207-4.684 3.694-6.15-1.39-1.92-3.48-2.987-6.262-3.206-1.028-.084-2.281.131-3.766.65-1.57.561-2.497.842-2.77.842-.366 0-1.2-.24-2.498-.715-1.303-.471-2.351-.712-3.15-.712a8.28 8.28 0 00-4.072 1.117 8.32 8.32 0 00-3.013 2.962c-.959 1.556-1.438 3.414-1.438 5.568 0 1.88.355 3.823 1.064 5.828.661 1.858 1.506 3.489 2.533 4.892.958 1.315 1.757 2.244 2.396 2.786 1.002.906 2.003 1.335 3.01 1.293.662-.021 1.527-.242 2.601-.664 1.074-.42 2.076-.629 3.01-.629.892 0 1.867.208 2.928.63 1.058.421 1.966.63 2.72.63 1.05-.023 2.03-.442 2.943-1.26.59-.498 1.357-1.394 2.29-2.69a17.37 17.37 0 001.78-3.107zm-6.384-24.407c0-.214-.01-.429-.032-.643-.839.043-1.733.289-2.678.736-.942.453-1.722 1.022-2.335 1.705-1.228 1.35-1.92 3.003-1.92 4.546 0 .203.014.407.04.61 1.907.15 3.665-.804 5.119-2.457 1.203-1.388 1.806-2.89 1.806-4.497z" fill="#fff"/></svg>