<svg width="40" height="40" fill="none" xmlns="http://www.w3.org/2000/svg"><g clip-path="url(#clip0_19_831)"><path d="M0 0h40v40H0V0z" fill="#F60"/><path d="M9.386 26.036a1.516 1.516 0 01-.5-.272c-1.415-1.385.385-3 2.478-3.942v-2.665c.5.3.743.329.779.386l1.586-1.621-.529-1.358c4.671-1.657 6.557-2.285 10.357-2.943l-.678-.628L24 12.329c2.557.871 4.943 1.092 4.536 3.271.107-1.464-1.686-2.028-4.457-2.829l-.515.329 1.015.857a61.14 61.14 0 00-10.672 2.879l.443 1.207-1.65 1.664c.279.079 3.171 1.079 6.214-1.078.015-.022.065-.029.065-.072-.108-.143-.3-.293-.55-.535a1.47 1.47 0 011.335 1.685h-.4a1.244 1.244 0 00-.128-.75 7.785 7.785 0 01-7.372 1.179v2.071c-1.143.393-3.143 1.665-3.128 2.886.071.571.371.786.65.943z" fill="#010101"/><path d="M18.879 25.5c-2.515 1.314-4.908 2.35-8.643 2.5-4.822-.1-5.572-3.371-3.279-6.793 2.15-3.45 5.579-6.571 11.043-8.536a19.807 19.807 0 016.136-1.242c3.228-.029 6.357 1 6.143 4.135-.1 2.415-3.522 5.836-5.3 8.279-.786 1.057-.908 1.743.4 1.7 4.757-.322 7.6-1.357 11.585-3.1-2.678 1.857-15.228 8.314-15.307 3.464.022-.6.314-1.25.764-1.936a22.291 22.291 0 011.715-2.164c.95-1.114 3.314-3.771 4.114-5.386 1.336-3.014-1.671-3.171-4.25-4.114l-1.121.664.671.636c-3.786.643-5.671 1.286-10.343 2.929l.529 1.371-1.586 1.614c-.029-.042-.279-.078-.786-.378v2.664c-2.085.936-3.885 2.564-2.471 3.943.157.129.357.243.5.279h-.014c2.571 1.492 9.514-.529 9.5-.529z" fill="#fff"/></g><defs><clipPath id="clip0_19_831"><rect width="40" height="40" rx="20" fill="#fff"/></clipPath></defs></svg>