<svg width="60" height="60" fill="none" xmlns="http://www.w3.org/2000/svg"><path fill-rule="evenodd" clip-rule="evenodd" d="M30 0C13.431 0 0 13.431 0 30c0 16.569 13.431 30 30 30 16.569 0 30-13.431 30-30C60 13.431 46.569 0 30 0zm17.097 35.774l.16-.138c.813-.994 1.463-2.126 2.09-3.221l.135-.231c.279-.482.565-.977.863-1.451a.375.375 0 00.04-.125c0-.086-.064-.175-.12-.226-.239-.097-.465.027-.675.176-1.22.958-2.058 2.333-2.777 3.511l-.035.06-.065.134-.003.006c-.252.51-.511 1.036-.498 1.601.014.08.067.18.145.208.276.104.507-.099.728-.294l.012-.01zm-7.613-3.955c.162.762 1.001 1.04 1.048 1.007a6.05 6.05 0 00.617-1.464l.004-.032.003-.025c.017-.136.036-.284.036-.429 0-.248-.053-.48-.25-.61a.78.78 0 00-.69.126c-.445.258-.905.77-.768 1.427zm-2.271 3.699a.718.718 0 00.117.408c.713.813 2.422-1.523 2.921-2.612-.401-.172-1.067-.577-1.36-1.209h-.001c-.701.884-1.693 2.506-1.677 3.413zm11.904.34c-.086.255.146.34.312.229.918-.53 1.654-1.623 2.24-2.493l.067-.1h.55c-.056.092-.135.23-.233.402-.64 1.123-2.102 3.683-3.27 4.308-.054.028-.106.057-.157.085-.313.173-.606.335-.978.267-.634-.079-.543-1.757-.427-2.196-.106.11-.258.328-.439.586-.432.619-1.024 1.465-1.515 1.595-.607.117-1.278-1.012-1.059-2.518l-.213.263c-.992 1.231-2.237 2.776-2.943 1.918-.53-.65-.148-2.643.413-4.26 0 0 .189-.555.21-.624l-.01-.005h-.005c-.31.079-.704.101-.838.108l-.046.003c-.125.216-.256.45-.393.694-.832 1.484-1.89 3.371-3.27 4.085-.238.12-.84.369-1.319.129-.466-.259-.602-1.53-.512-2.334.127-1.026.586-1.922 1.047-2.758.855-1.317 2.042-2.915 3.63-3.562.355-.157.88-.254 1.305-.046.364.259.46.633.46 1.03 0 .184-.022.374-.045.56-.139.646-.415 1.242-.635 1.685.106.07.729-.074.89-.194 2.22-4.555 4.761-7.89 7.77-10.204l.023-.014c.125-.084.256-.182.39-.282.494-.37 1.038-.779 1.563-.68a.495.495 0 01.399.411c.108.66-.16 1.424-.428 1.918-.231.075-.581.14-.581.14l.248-.5c.176-.342.33-.643.31-1.048-.05-.107-.11-.113-.158-.107-.439.088-1.002.623-1.548 1.146l-.351.332c-2.237 2.195-4.867 6.781-5.274 7.743.918-.44 3.948-3.386 5.43-5.414.302-.01.56-.06.56-.06-.238.456-1.86 2.503-3.785 4.309a22.674 22.674 0 01-2.717 2.18c-.421.893-.839 1.876-1.018 2.911-.021.143-.068.758.397.721.594-.13 1.668-1.87 1.668-1.87l.239-.37c.984-1.524 2.24-3.47 3.875-4.41.407-.226.998-.344 1.4-.094.094.06.322.337.397.462 0 0 .168-.29.246-.417h1.647l-2.439 4.376s-.862 1.317-1.08 1.965zm-18.912-8.74l-1.566-.066.857-1.444h1.543l-.834 1.51zm19.23-2.756c1.476.149 2.695-.276 3.872-.932a10.274 10.274 0 002.407-1.889s-.664 1.39-1.96 2.494c-1.225 1.095-3.421 2.245-5.494 1.727.368-.48.765-.947 1.175-1.4zm-11.872 3.009c.54-.13 2.62-1.367 2.865-4.13a.69.69 0 00-.021-.291c-1.348.68-2.7 1.843-3.434 3.404-.5 1.16.262 1.081.59 1.017zm-2.415 2.147c.397-.023.768.19.925.523.345.711.122 1.644-.078 2.304-.83 2.223-2.6 4.963-4.454 5.859-.855.337-2.067.541-2.98-.397-1.075-1.104-.835-3.775-.395-5.042.57-1.879 1.642-3.783 3.37-5.986 2.349-2.813 4.675-4.58 7.035-5.244.656-.158 1.548-.214 2.09.37 0 0 .263-.089.551-.19.732-.26 2.035-.447 3.8.5l.079.042a57.36 57.36 0 012.238 1.251l.466.282c-.322.3-.894.901-1.244 1.299-.289-.124-.793-.432-1.356-.776-.828-.506-1.785-1.091-2.376-1.284 0 0-1.273-.573-1.895-.25.01.111.015.259.015.37 0 .914-.095 1.566-.492 2.392-.686 1.09-1.988 2.425-3.288 2.721-.283.018-.633-.01-.83-.361-.378-.674-.044-1.575.226-2.137 1.06-2.224 3.53-3.258 3.53-3.258-.388-.146-.836-.092-1.319.148-2.37 1.151-4.223 3.146-5.82 5.247-1.548 2.264-2.629 4.25-2.88 6.584-.056.822.212 1.46.735 1.765.833.498 1.784-.15 2.427-.685a8.732 8.732 0 001.916-2.486c.635-1.256.802-2.553.325-2.71-.547-.153-1.033.42-1.276.775a4.34 4.34 0 00-.77 1.825c-.927.407-1.743 1.15-2.143 1.603.125-1.007.313-1.64.66-2.407.661-1.492 1.92-2.531 3.208-2.647zm-19.932-.91l.314-.71c.107-.314.202-.653.202-.953 0-.221-.052-.425-.188-.582-.22-.17-.6-.083-.846.083-.255.19-.834.712-.692 1.377.101.342.434.629.873.763l.14.022.015.004c.075.017.14.031.182-.004zm-.377.68c.008-.013.022-.056.022-.056a.225.225 0 00.026-.074c0-.009-.003-.014-.005-.014-.48-.138-1.124-.438-1.467-1.085 0-.007-.001-.009-.002-.01a.01.01 0 01-.002-.004.073.073 0 00-.028.01c-.546.77-1.108 1.602-1.461 2.544l-.043.14c-.123.387-.275.867.02 1.214.139.172.41.129.608.064.659-.334 1.188-1.026 1.613-1.582l.012-.016.707-1.131zm8.911-.867l-.05.067c-1.272 1.681-1.682 2.897-1.716 3.294a.313.313 0 00.137.305c.089.064.222.055.303.032.566-.31.914-.753 1.259-1.27 0 0 .245-.37.244-.365a90.013 90.013 0 001.682-2.914c.21-.374.414-.739.611-1.084-.026-.203-.328-.49-1.082.162-.213.184-1.036 1.296-1.388 1.773zm-12.389-.108c1.571-2.06 3.53-3.262 4.507-2.633h-.001c.902.644.208 2.267-.014 2.787l-.052.123c.35.088 1.446-.764 2.097-1.471.52-.564 1.55-1.355 2.11-1.563.42-.2 1.067-.264 1.491-.015.285.162.334.561.353.912.057.98-1.08 2.655-1.662 1.841-.12-.35-.013-.791.364-1.18a.914.914 0 01.72-.273c.116-.18.086-.442-.096-.55-.193-.115-.58-.036-.934.236-1.261.985-2.347 2.682-2.99 4.479-.113.337-.175.85.026 1.202.553.836 1.845-.328 1.845-.328.872-.762 1.713-1.818 2.374-2.755 1.717-2.439 3.937-4.732 4.944-3.365l.024.038c.013.02.024.038.03.044.014-.018.192-.3.192-.3h1.625L24.928 31.6c-.07.142-.117.345 0 .441.093.064.257-.017.257-.017.806-.385 2.008-2.023 2.235-2.331l.037-.05h.56c-.238.343-.474.731-.718 1.133-.651 1.071-1.36 2.237-2.341 2.915-.374.245-1.025.658-1.513.486-.515-.318-.512-1.26-.478-1.74l-.012.018c-.136.2-1.367 2.011-2.377 1.722-.354-.11-.88-.932-.46-2.364l.056-.226-.269.254c-.184.177-.373.375-.568.58-.874.914-1.863 1.95-3.034 1.758-.947-.29-1.025-1.56-1.055-2.061a2.82 2.82 0 00-.012-.157c-.114-.903.905-2.658 1.05-2.908l.017-.03c-.269.077-.54.142-.816.194l-.387.629-.026.042c-.395.643-.804 1.31-1.332 1.865l-.103.106c-.791.91-2.804 3.001-3.808 1.832-.674-.993.095-3.531 1.53-5.38zm3.974 7.363c4.189-1.14 6.859-1.21 8.772 0 .663.42 1.17.868 1.62 1.265.208.183.404.355.596.509-1.23-.887-2.778-1.25-3.836-.6-1.058.65-1.563 1.705-1.563 1.705-1.713-3.062-7.4-1.797-8.417-1.557-.45.18-.89.413-1.325.646-.782.417-1.554.829-2.359.911-1.786.148-3.345-1.452-4.066-2.781-.93-1.918-.31-4.274.378-5.918 1.193-2.725 3.3-5.215 5.934-7.013 1.204-.726 2.51-1.381 3.912-1.302.409.074.738.29.929.604.455.883-.124 1.83-.515 2.324-.363.438-1.205.606-1.172-.194.024-.521.457-.91.614-1.03.195-.125.446-.147.596-.147.142-.13.252-1.035-.922-.74-1.53.472-2.689 1.645-3.938 3.012-2.24 2.628-3.5 4.998-3.967 7.46-.2 1.511.069 2.56.82 3.21 1.676 1.138 3.009.815 6.168.05.526-.127 1.104-.266 1.741-.414z" fill="#fff"/></svg>