<svg width="60" height="60" fill="none" xmlns="http://www.w3.org/2000/svg"><path fill-rule="evenodd" clip-rule="evenodd" d="M30 0C13.431 0 0 13.431 0 30c0 16.569 13.431 30 30 30 16.569 0 30-13.431 30-30C60 13.431 46.569 0 30 0zM19.355 12.88c5.366.22 14.071 2.132 21.583 8.748 3.876 3.308 6.32 6.985 6.2 12.425-.118 7.573-6.916 10.735-13.95 10.514-1.43 0-3.28-.293-5.127-.883-.18 2.133-.537 3.53-1.313 3.456-.774-.073-1.072-1.985-1.192-4.411-4.174-1.765-7.929-4.779-7.75-8.97.179-1.397 1.848-4.484 8.108-5.22.238-3.455.596-6.469 1.192-6.469.358 0 .895 2.205 1.074 6.322 6.856-.147 9.956 2.132 10.015 3.236 0 1.102-1.43 2.572-2.444 2.719-.93.136-.906-.286-.896-.47a.768.768 0 00.002-.044c0-.221 1.073-1.177 1.192-1.25.06-.074.18-.22-.119-.293l-.028-.01c-.323-.104-2.011-.65-7.543-.58h-.12v2.207c0 2.72 0 5.293-.06 7.426 1.431.44 2.981.66 4.532.735 7.511.146 11.149-4.192 11.208-8.676.059-7.793-10.85-17.425-25.398-18.527-4.362-.36-4.356.122-4.353.35v.018c0 .046.129.116.303.21.371.202.95.516.95.966 0 .367-1.013.147-1.371-.074-.298-.147-1.193-.883-1.193-1.618 0-.588.537-2.058 6.498-1.837zm6.38 18.894c-4.114.294-6.499 1.25-6.617 2.867-.12 1.398 2.562 3.971 6.439 5.735 0-1.618 0-3.308.06-4.779 0-1.037.052-2.27.107-3.575l.01-.248z" fill="#fff"/></svg>