<svg width="40" height="40" fill="none" xmlns="http://www.w3.org/2000/svg"><g clip-path="url(#clip0_19_777)"><path d="M0 0h40v40H0V0z" fill="url(#paint0_linear_19_777)"/><path d="M8.634 18.809s2.637-3.428 7.795-3.786v-1.424c-5.713.415-10.715 4.972-10.715 4.972S8.57 25.89 16.43 26.562V25.23c-5.767-.658-7.795-6.422-7.795-6.422v.002zm7.795 3.77v1.22c-4.359-.704-5.623-4.813-5.623-4.813s2.147-2.217 5.623-2.557v1.453c-.003 0 .002 0 0 0-1.825-.198-3.31 1.347-3.31 1.347s.852 2.601 3.31 3.35zm0-11.15v2.17c.167-.013.281-.022.45-.028 6.495-.198 10.727 4.973 10.727 4.973s-4.861 5.36-9.925 5.36c-.464 0-.845-.039-1.252-.105v1.43c.349.04.657.065 1.034.065 4.712 0 8.12-2.183 11.42-4.766.547.398 2.787 1.364 3.247 1.787-3.137 2.382-10.45 4.302-14.595 4.302-.4 0-.729-.022-1.106-.055v2.01h17.857V11.428H16.429zm0 5v-1.405c.165-.011.279-.019.45-.024 4.67-.133 7.735 3.61 7.735 3.61s-3.208 4.247-6.757 4.247c-.51 0-1.016-.153-1.428-.278v-4.697c1.818.2 2.13.929 3.223 2.58l2.43-1.858s-1.946-2.175-4.94-2.175c-.324 0-.408-.03-.713 0z" fill="#76B900"/></g><defs><linearGradient id="paint0_linear_19_777" x1="7.441" y1="6.937" x2="48.676" y2="54.298" gradientUnits="userSpaceOnUse"><stop stop-color="#1A1E21"/><stop offset="1" stop-color="#06060A"/></linearGradient><clipPath id="clip0_19_777"><rect width="40" height="40" rx="20" fill="#fff"/></clipPath></defs></svg>