<svg width="40" height="40" fill="none" xmlns="http://www.w3.org/2000/svg"><g clip-path="url(#clip0_19_841)"><path d="M0 0h40v40H0V0z" fill="#0071C5"/><path d="M14.336 18.762l-.004 4.302h-1.33l.004-5.527 2.925.022c1.289 0 1.728.896 1.728 1.647v3.858h-1.33v-3.802c0-.315-.398-.482-1-.482l-.993-.018zm9.768-.12c-.502 0-.826.235-.988.553-.097.192-.13.338-.141.572h2.196c-.029-.571-.315-1.125-1.067-1.125zm-1.129 1.974c0 .683.403 1.246 1.236 1.246.65 0 .804-.164 1.179-.503l.907.787c-.58.521-1.011.918-2.086.918-1.405 0-2.565-.722-2.565-2.754 0-1.736.978-2.773 2.521-2.773 1.566 0 2.13 1.09 2.13 2.598v.481h-3.322zm-2.766 2.448c-1.197 0-1.885-.758-1.885-1.505v-5.515h1.344v1.512h1.313v1.224h-1.329v2.525c0 .306.332.535.829.535h.5v1.224h-.772zm-8.532-6.12H10.35l-.005-1.223h1.33l.003 1.223zm0 6.12c-1.107-.097-1.33-.835-1.33-1.54l-.003-3.968h1.333v5.508zm17.294-.22c-1.105-.098-1.345-.707-1.345-1.411V15.72h1.345v7.123zm5.175-6.539c-1.342-5.947-14.286-6.338-22.469-1.809v.5c8.175-3.82 20.017-3.782 21.074 1.695.353 1.811-.462 3.782-2.466 4.868v1.42c2.413-.803 4.58-3.488 3.86-6.674zM19.27 26.71c-5.647.474-11.532-.271-12.356-4.284-.403-1.978.79-3.873 2.105-5.175v-.697c-2.367 1.888-3.854 4.075-3.114 6.898.944 3.62 5.995 5.67 13.705 4.99 3.05-.271 7.235-1.24 10.01-2.624V23.85c-2.518 1.364-6.878 2.567-10.35 2.86z" fill="#fff"/></g><defs><clipPath id="clip0_19_841"><rect width="40" height="40" rx="20" fill="#fff"/></clipPath></defs></svg>