<svg width="40" height="40" fill="none" xmlns="http://www.w3.org/2000/svg"><g clip-path="url(#clip0_19_796)"><path d="M0 0h40v40H0V0z" fill="#F0F3FA"/><mask id="a" style="mask-type:luminance" maskUnits="userSpaceOnUse" x="7" y="11" width="26" height="18"><path d="M7.143 11.429h25.714V28.57H7.143V11.43z" fill="#fff"/></mask><g mask="url(#a)"><path fill-rule="evenodd" clip-rule="evenodd" d="M20.354 15.037l-.007.009c-2.05-2.62-3.763-3.617-5.815-3.617-4.183 0-7.39 5.461-7.39 11.244 0 3.617 1.745 5.898 4.667 5.898 2.104 0 3.616-.994 6.305-5.71L20 19.52v-.055l.354-4.427zm-8.44 10.743c1.214 0 1.969-.767 4.15-4.196 0 0 .99-1.578 2.625-4.099-1.721-2.475-2.848-3.255-4.194-3.255-2.486 0-4.573 4.293-4.573 8.489 0 1.961.743 3.062 1.993 3.062v-.001z" fill="url(#paint0_linear_19_796)"/><path fill-rule="evenodd" clip-rule="evenodd" d="M20.01 19.516l.347-4.159-.026-.332.017.02c1.493-2.024 3.14-3.616 5.25-3.616 3.98 0 7.258 5.084 7.26 11.137 0 3.693-1.585 6.005-4.432 6.005-2.48 0-3.85-1.398-6.305-5.521l-1.261-2.128a98.93 98.93 0 00-.85-1.407zm2.774-.886l1.507 2.521c2.358 3.807 2.951 4.629 4.193 4.631 1.296 0 1.922-1.112 1.922-3.027 0-5.025-2.215-9.115-4.985-9.115-1.333 0-2.454 1.05-3.812 3.153.404.604.796 1.217 1.175 1.837z" fill="url(#paint1_linear_19_796)"/><path d="M20.348 15.046c1.493-2.025 3.14-3.617 5.25-3.617 3.98 0 7.258 5.084 7.26 11.137l-2.453.189c0-5.025-2.214-9.115-4.984-9.115-1.333 0-2.454 1.05-3.812 3.153l-1.603 2.715c-.63 1.118-1.26 2.236-1.892 3.353-2.689 4.716-4.201 5.71-6.305 5.71l.106-2.79c1.214 0 1.969-.768 4.15-4.197 0 0 .99-1.578 2.625-4.099l1.658-2.44z" fill="url(#paint2_linear_19_796)"/><path d="M22.784 18.63c-3.268-5.333-5.445-7.201-8.253-7.201l-.035 2.801c1.838 0 3.263 1.454 6.363 6.69l.19.32 1.735-2.61z" fill="#0466E0"/></g></g><defs><linearGradient id="paint0_linear_19_796" x1="13.929" y1="12.857" x2="18.214" y2="21.786" gradientUnits="userSpaceOnUse"><stop stop-color="#0064E0"/><stop offset="1" stop-color="#0082FB"/></linearGradient><linearGradient id="paint1_linear_19_796" x1="30.357" y1="22.857" x2="22.857" y2="20" gradientUnits="userSpaceOnUse"><stop stop-color="#0181FA"/><stop offset="1" stop-color="#0967DF"/></linearGradient><linearGradient id="paint2_linear_19_796" x1="16.071" y1="20.714" x2="35" y2="21.429" gradientUnits="userSpaceOnUse"><stop stop-color="#0082FB"/><stop offset="1" stop-color="#0180F9"/></linearGradient><clipPath id="clip0_19_796"><rect width="40" height="40" rx="20" fill="#fff"/></clipPath></defs></svg>