<svg width="60" height="60" fill="none" xmlns="http://www.w3.org/2000/svg"><path fill-rule="evenodd" clip-rule="evenodd" d="M30 0C13.431 0 0 13.431 0 30c0 16.569 13.431 30 30 30 16.569 0 30-13.431 30-30C60 13.431 46.569 0 30 0zM10.319 39.53c.899.728 2.048 1.12 3.453 1.177 1.562.064 3.494-.306 5.652-1.078.844-.302 1.324-.5 3.119-1.284 11.336-4.946 33.173-14.48 33.171-14.482 0-.002-7.691 2.084-17.09 4.635a9304.154 9304.154 0 01-17.374 4.707c-2.292.538-4.168.485-5.45-.156-.732-.366-1.384-1.028-1.763-1.792-.55-1.111-.605-2.543-.159-4.21.279-1.04.789-2.241 1.386-3.261.068-.118.124-.215.12-.215-.006 0-1.012 1.133-1.35 1.52-2.294 2.632-3.609 4.532-4.46 6.449-.996 2.237-1.258 4.277-.75 5.83.172.518.436 1.002.777 1.428.221.26.461.505.718.731z" fill="#fff"/></svg>