<svg width="60" height="60" fill="none" xmlns="http://www.w3.org/2000/svg"><path fill-rule="evenodd" clip-rule="evenodd" d="M30 0C13.431 0 0 13.431 0 30c0 16.569 13.431 30 30 30 16.569 0 30-13.431 30-30C60 13.431 46.569 0 30 0zm0 47.143c6.677 0 12.462-3.816 15.292-9.388-.42-.206-.859-.408-1.307-.541-.67-.198-1.356-.209-2.02.014-.582.196-1.106.526-1.623.853l-.011.007-.161.103-.002.001-.008.005c-1.078.678-2.299 1.446-3.851 1.446-2.308 0-3.93-1.381-4.447-3.79-.4-1.867-1.862-9.067-1.862-9.067a785.8 785.8 0 01-1.862 9.066c-.518 2.409-2.138 3.79-4.446 3.79-1.555 0-2.78-.77-3.859-1.45h-.002l-.162-.104c-.52-.329-1.048-.663-1.633-.859a3.31 3.31 0 00-2.021-.015c-.448.133-.888.334-1.308.541 2.831 5.57 8.616 9.388 15.293 9.388zm15.105-12.398c.409.166.812.345 1.209.537.537-1.664.829-3.44.829-5.282 0-9.468-7.675-17.143-17.143-17.143S12.857 20.532 12.857 30a17.132 17.132 0 00.83 5.282c.388-.186.796-.372 1.21-.537 1.959-.783 3.754-.52 5.553.573 0 0 .657.401.853.525l.012.008.007.005c.832.522 1.616 1.014 2.37 1.014.726 0 1.44-.195 1.742-1.602.471-2.194 1.62-7.587 2.121-10.258.294-1.568.455-2.414.624-2.989.293-1.004.83-1.553 1.59-1.645 0 0 .135-.019.231-.019.098 0 .219.017.219.017.768.088 1.308.637 1.604 1.647.167.574.328 1.42.623 2.99.502 2.672 1.65 8.063 2.122 10.257.302 1.407 1.015 1.601 1.74 1.601.757 0 1.543-.494 2.377-1.018l.013-.008c.196-.124.852-.526.852-.526 1.799-1.092 3.594-1.355 5.555-.572z" fill="#fff"/></svg>