<svg width="152" height="143" fill="none" xmlns="http://www.w3.org/2000/svg"><g clip-path="url(#clip0_129_3638)"><path d="M29 0h80v80H29V0z" fill="#F60"/><path d="M47.771 52.072c-.285-.072-.671-.286-1-.543-2.828-2.772.772-6 4.958-7.886v-5.329c1 .6 1.485.657 1.557.772l3.171-3.243-1.057-2.714c9.343-3.315 13.114-4.572 20.714-5.886l-1.357-1.257L77 24.657c5.114 1.743 9.886 2.186 9.071 6.543.215-2.928-3.371-4.057-8.914-5.657l-1.028.657 2.028 1.714a122.294 122.294 0 00-21.343 5.757l.886 2.415-3.3 3.328c.557.157 6.343 2.157 12.429-2.157.028-.043.128-.057.128-.143-.214-.285-.6-.585-1.1-1.071a2.943 2.943 0 012.672 3.371h-.8a2.489 2.489 0 00-.258-1.5 15.57 15.57 0 01-14.742 2.358v4.142c-2.286.786-6.286 3.329-6.258 5.772.143 1.143.743 1.571 1.3 1.886z" fill="#010101"/><path d="M66.757 51c-5.028 2.629-9.814 4.7-17.286 5-9.642-.2-11.142-6.743-6.557-13.586 4.3-6.9 11.157-13.143 22.086-17.071a39.612 39.612 0 0112.271-2.486c6.458-.057 12.715 2 12.286 8.272-.2 4.828-7.043 11.671-10.6 16.557-1.571 2.114-1.814 3.486.8 3.4 9.514-.643 15.2-2.715 23.172-6.2-5.358 3.714-30.458 16.628-30.615 6.928.043-1.2.629-2.5 1.529-3.871a44.578 44.578 0 013.428-4.329c1.9-2.228 6.629-7.542 8.229-10.771 2.671-6.029-3.343-6.343-8.5-8.229l-2.243 1.329 1.343 1.271c-7.571 1.286-11.343 2.572-20.686 5.858l1.057 2.742-3.171 3.229c-.057-.086-.557-.157-1.571-.757v5.328c-4.172 1.872-7.772 5.129-4.943 7.886.314.257.714.486 1 .557h-.029C52.9 55.043 66.786 51 66.757 51z" fill="#fff"/></g><g clip-path="url(#clip1_129_3638)"><path d="M0 63h80v80H0V63z" fill="url(#paint0_linear_129_3638)"/><path d="M58.571 110.126a32.506 32.506 0 01-.777 1.988 23.14 23.14 0 01-2.373 4.143c-1.244 1.729-2.265 2.923-3.052 3.586-1.219 1.091-2.526 1.65-3.926 1.68-1.004 0-2.214-.277-3.626-.84-1.414-.562-2.714-.839-3.903-.839-1.245 0-2.583.277-4.014.839-1.431.563-2.586.857-3.467.886-1.343.055-2.679-.518-4.014-1.725-.852-.723-1.918-1.961-3.195-3.714-1.37-1.871-2.495-4.046-3.377-6.523-.946-2.674-1.418-5.264-1.418-7.771 0-2.872.638-5.349 1.917-7.425.977-1.64 2.36-3 4.017-3.948a11.028 11.028 0 015.428-1.49c1.066 0 2.463.321 4.2.95 1.732.633 2.843.953 3.332.953.364 0 1.6-.375 3.693-1.122 1.98-.693 3.651-.98 5.021-.867 3.71.292 6.496 1.714 8.35 4.274-3.317 1.955-4.957 4.69-4.926 8.2.03 2.736 1.05 5.013 3.056 6.82a10.13 10.13 0 003.054 1.945zM49.24 78.714c.029.286.043.573.043.857 0 2.143-.804 4.146-2.409 5.998-1.938 2.202-4.283 3.474-6.825 3.274a6.478 6.478 0 01-.052-.813c0-2.057.922-4.26 2.559-6.06.817-.911 1.857-1.67 3.114-2.274 1.26-.596 2.451-.925 3.57-.982z" fill="#fff"/></g><g clip-path="url(#clip2_129_3638)"><path d="M72 52h80v80H72V52z" fill="#0071C5"/><path d="M100.671 89.523l-.007 8.604h-2.658l.007-11.053 5.85.043c2.577 0 3.454 1.793 3.454 3.294v7.716h-2.66v-7.604c0-.629-.796-.963-2-.963l-1.986-.037zm19.538-.24c-1.005 0-1.653.47-1.978 1.107-.192.383-.258.676-.281 1.144h4.391c-.057-1.143-.628-2.251-2.132-2.251zm-2.259 3.95c0 1.366.806 2.491 2.473 2.491 1.298 0 1.607-.328 2.357-1.007l1.814 1.574c-1.161 1.043-2.023 1.836-4.171 1.836-2.812 0-5.132-1.443-5.132-5.507 0-3.471 1.958-5.546 5.043-5.546 3.132 0 4.262 2.182 4.262 5.196v.963h-6.646zm-5.531 4.894c-2.395 0-3.772-1.514-3.772-3.01V84.09h2.689v3.024h2.627v2.447h-2.659v5.05c0 .613.665 1.07 1.657 1.07h1v2.447h-1.542zM95.354 85.89h-2.657l-.008-2.448h2.658l.007 2.448zm0 12.238c-2.214-.193-2.661-1.668-2.661-3.078l-.004-7.936h2.665v11.014zm34.589-.44c-2.212-.194-2.69-1.414-2.69-2.821V83.44h2.69v14.246zm10.348-13.077c-2.682-11.894-28.571-12.676-44.937-3.617v1c16.35-7.64 40.035-7.566 42.147 3.388.708 3.623-.922 7.565-4.931 9.736v2.84c4.826-1.606 9.159-6.976 7.721-13.347zm-29.748 20.81c-11.296.949-23.066-.543-24.713-8.567-.806-3.957 1.58-7.747 4.21-10.352v-1.394c-4.734 3.776-7.707 8.15-6.229 13.796 1.889 7.24 11.99 11.343 27.41 9.98 6.1-.542 14.47-2.477 20.022-5.247V99.7c-5.037 2.727-13.757 5.134-20.7 5.72z" fill="#fff"/></g><defs><clipPath id="clip0_129_3638"><rect x="29" width="80" height="80" rx="40" fill="#fff"/></clipPath><clipPath id="clip1_129_3638"><rect y="63" width="80" height="80" rx="40" fill="#fff"/></clipPath><clipPath id="clip2_129_3638"><rect x="72" y="52" width="80" height="80" rx="40" fill="#fff"/></clipPath><linearGradient id="paint0_linear_129_3638" x1="14.883" y1="76.874" x2="97.353" y2="171.596" gradientUnits="userSpaceOnUse"><stop stop-color="#1A1E21"/><stop offset="1" stop-color="#06060A"/></linearGradient></defs></svg>