<svg width="96" height="128" fill="none" xmlns="http://www.w3.org/2000/svg"><g clip-path="url(#clip0_129_3642)"><path d="M0 48h80v80H0V48z" fill="#F0F3FA"/><mask id="a" style="mask-type:luminance" maskUnits="userSpaceOnUse" x="14" y="70" width="52" height="36"><path d="M14.286 70.857h51.428v34.286H14.286V70.857z" fill="#fff"/></mask><g mask="url(#a)"><path fill-rule="evenodd" clip-rule="evenodd" d="M40.709 78.074a.808.808 0 00-.015.017c-4.098-5.238-7.527-7.234-11.63-7.234-8.367 0-14.778 10.923-14.778 22.489 0 7.234 3.488 11.797 9.333 11.797 4.207 0 7.231-1.989 12.61-11.42 0 0 2.23-3.95 3.771-6.686v-.109l.709-8.854zM23.829 99.56c2.427 0 3.937-1.534 8.298-8.392 0 0 1.982-3.157 5.252-8.198-3.443-4.95-5.696-6.51-8.389-6.51-4.973 0-9.146 8.586-9.146 16.977 0 3.923 1.486 6.124 3.986 6.124l-.001-.001z" fill="url(#paint0_linear_129_3642)"/><path fill-rule="evenodd" clip-rule="evenodd" d="M40.021 87.031l.693-8.317-.051-.664.033.041c2.985-4.048 6.281-7.234 10.498-7.234 7.962 0 14.517 10.169 14.52 22.276 0 7.386-3.168 12.01-8.861 12.01-4.962 0-7.7-2.797-12.61-11.043l-2.523-4.256a212.24 212.24 0 00-1.7-2.814l.001.001zm5.548-1.771l3.014 5.043c4.716 7.613 5.901 9.257 8.386 9.261 2.591 0 3.842-2.224 3.842-6.054 0-10.05-4.43-18.23-9.97-18.23-2.665 0-4.907 2.099-7.624 6.306a109.109 109.109 0 012.352 3.674z" fill="url(#paint1_linear_129_3642)"/><path d="M40.696 78.091c2.985-4.048 6.281-7.234 10.498-7.234 7.962 0 14.517 10.169 14.52 22.276l-4.904.377c0-10.05-4.429-18.23-9.969-18.23-2.665 0-4.907 2.099-7.624 6.306l-3.206 5.43c-1.26 2.236-2.52 4.472-3.782 6.707-5.379 9.431-8.403 11.42-12.61 11.42l.211-5.582c2.427 0 3.937-1.535 8.299-8.393 0 0 1.981-3.157 5.251-8.198l3.316-4.879z" fill="url(#paint2_linear_129_3642)"/><path d="M45.569 85.26C39.03 74.594 34.677 70.857 29.063 70.857l-.072 5.603c3.678 0 6.528 2.907 12.726 13.381l.38.638 3.472-5.219z" fill="#0466E0"/></g></g><g clip-path="url(#clip1_129_3642)"><path d="M16 0h80v80H16V0z" fill="url(#paint3_linear_129_3642)"/><path d="M40.286 12.857h10v54.286h-10V12.857zm21.428 0h10v54.286h-10V12.857z" fill="#DB0916"/><path d="M61.239 67.143h10.475L50.761 12.857H40.286l20.953 54.286z" fill="#FF3540"/></g><defs><linearGradient id="paint0_linear_129_3642" x1="27.857" y1="73.714" x2="36.429" y2="91.571" gradientUnits="userSpaceOnUse"><stop stop-color="#0064E0"/><stop offset="1" stop-color="#0082FB"/></linearGradient><linearGradient id="paint1_linear_129_3642" x1="60.714" y1="93.714" x2="45.714" y2="88" gradientUnits="userSpaceOnUse"><stop stop-color="#0181FA"/><stop offset="1" stop-color="#0967DF"/></linearGradient><linearGradient id="paint2_linear_129_3642" x1="32.143" y1="89.428" x2="70" y2="90.857" gradientUnits="userSpaceOnUse"><stop stop-color="#0082FB"/><stop offset="1" stop-color="#0180F9"/></linearGradient><linearGradient id="paint3_linear_129_3642" x1="30.883" y1="13.874" x2="113.353" y2="108.596" gradientUnits="userSpaceOnUse"><stop stop-color="#1A1E21"/><stop offset="1" stop-color="#06060A"/></linearGradient><clipPath id="clip0_129_3642"><rect y="48" width="80" height="80" rx="40" fill="#fff"/></clipPath><clipPath id="clip1_129_3642"><rect x="16" width="80" height="80" rx="40" fill="#fff"/></clipPath></defs></svg>