<svg width="167" height="161" fill="none" xmlns="http://www.w3.org/2000/svg"><mask id="a" style="mask-type:alpha" maskUnits="userSpaceOnUse" x="0" y="0" width="167" height="161"><rect width="167" height="161" rx="10" fill="#E08178"/></mask><g mask="url(#a)"><g clip-path="url(#clip0_39_1484)"><path fill-rule="evenodd" clip-rule="evenodd" d="M23 113c-16.569 0-30 13.431-30 30 0 16.569 13.431 30 30 30 16.569 0 30-13.431 30-30 0-16.569-13.431-30-30-30zm6.603 19.374c3.904 1.355 6.737 3.351 6.186 7.095v-.001h-.019c-.392 2.727-1.907 4.065-3.921 4.51 2.763 1.462 4.171 3.655 2.835 7.486-1.659 4.761-5.616 5.152-10.875 4.154l-1.265 5.116-3.083-.767 1.264-5.044-2.477-.642L17 159.344l-3.084-.766 1.284-5.116-2.192-.572-4.01-.997 1.532-3.512s2.264.588 2.228.534c.872.233 1.266-.337 1.408-.712l2.014-8.075.339.071-.321-.107 1.427-5.775c.035-.642-.18-1.461-1.427-1.783.036-.017-2.246-.552-2.246-.552l.82-3.298 4.26 1.07v.017l1.961.464 1.266-5.062 3.083.766-1.247 4.955 2.46.588 1.23-4.92 3.082.767-1.264 5.045zm-9.661 18.389c2.546.661 7.947 2.062 8.805-1.419v-.018c.891-3.547-4.35-4.738-6.971-5.333-.316-.072-.594-.135-.818-.193l-1.693 6.791c.191.046.42.105.677.172zm2.288-9.933c2.092.555 6.678 1.77 7.462-1.415.82-3.266-3.662-4.252-5.826-4.728-.234-.051-.44-.097-.61-.138l-1.532 6.15c.145.035.315.081.506.131z" fill="#fff"/></g><g clip-path="url(#clip1_39_1484)"><path fill-rule="evenodd" clip-rule="evenodd" d="M31.5 62C19.626 62 10 71.626 10 83.5S19.626 105 31.5 105 53 95.374 53 83.5 43.374 62 31.5 62zm-5.387 16.125h10.762v10.762l6.91 6.694V71.214H19.42l6.693 6.911zm.012 1.125v9.625h9.624l-6.89 6.91h-9.645V86.14l6.911-6.89z" fill="#fff"/></g><path fill-rule="evenodd" clip-rule="evenodd" d="M113.5 112c-11.874 0-21.5 9.626-21.5 21.5s9.626 21.5 21.5 21.5 21.5-9.626 21.5-21.5-9.626-21.5-21.5-21.5zm-14.105 28.329c.644.522 1.468.804 2.475.844h-.001c1.121.046 2.505-.219 4.051-.772.606-.217.95-.359 2.236-.92 8.124-3.545 23.774-10.378 23.773-10.379 0-.002-5.513 1.493-12.249 3.321a6395.525 6395.525 0 01-12.451 3.374c-1.643.385-2.987.348-3.906-.112a2.915 2.915 0 01-1.263-1.284c-.395-.797-.433-1.822-.114-3.018.2-.745.565-1.606.993-2.337.049-.084.089-.153.087-.153-.005 0-.726.811-.968 1.089-1.645 1.886-2.587 3.248-3.197 4.621-.714 1.604-.9 3.066-.537 4.179.124.371.312.718.557 1.023.158.187.33.362.514.524zM92 36c-14.36 0-26 11.64-26 26s11.64 26 26 26c14.359 0 26-11.64 26-26s-11.641-26-26-26zm0 40.857c5.787 0 10.8-3.307 13.254-8.136a7.43 7.43 0 00-1.133-.469 2.872 2.872 0 00-1.752.012c-.504.17-.958.457-1.406.74l-.01.006-.139.089h-.002l-.007.005c-.934.588-1.992 1.253-3.338 1.253-2 0-3.405-1.197-3.853-3.285C93.267 65.454 92 59.214 92 59.214a677.611 677.611 0 01-1.614 7.858c-.448 2.087-1.852 3.285-3.852 3.285-1.349 0-2.41-.668-3.345-1.258h-.002l-.14-.09c-.45-.284-.908-.574-1.415-.744a2.87 2.87 0 00-1.753-.013 7.35 7.35 0 00-1.133.469C81.2 73.549 86.213 76.857 92 76.857zm13.091-10.744c.354.143.704.298 1.047.465.467-1.442.719-2.98.719-4.578 0-8.206-6.651-14.857-14.857-14.857S77.143 53.794 77.143 62a14.847 14.847 0 00.719 4.578c.337-.162.69-.322 1.048-.465 1.698-.68 3.255-.452 4.814.496 0 0 .569.348.739.455l.01.007.006.004c.721.452 1.4.879 2.055.879.628 0 1.247-.169 1.508-1.388.409-1.902 1.404-6.575 1.839-8.89.254-1.36.395-2.092.54-2.591.255-.87.72-1.346 1.38-1.425 0 0 .115-.017.199-.017.085 0 .19.015.19.015.665.076 1.133.551 1.39 1.427.144.498.285 1.231.54 2.592.434 2.315 1.43 6.987 1.838 8.889.262 1.219.88 1.387 1.51 1.387.655 0 1.337-.428 2.059-.882l.011-.007c.17-.107.738-.455.738-.455 1.559-.948 3.116-1.175 4.815-.496zM142.5 70c-9.665 0-17.5 7.835-17.5 17.5s7.835 17.5 17.5 17.5S160 97.165 160 87.5 152.165 70 142.5 70zm-6.209 7.513c3.13.128 8.208 1.244 12.59 5.103 2.26 1.93 3.686 4.075 3.617 7.248-.07 4.418-4.035 6.262-8.139 6.133-.834 0-1.912-.17-2.99-.514-.105 1.243-.313 2.058-.766 2.015-.452-.042-.625-1.157-.695-2.573-2.435-1.03-4.625-2.787-4.521-5.232.104-.815 1.078-2.616 4.729-3.045.14-2.016.348-3.774.696-3.774.209 0 .522 1.287.626 3.688 4-.086 5.808 1.244 5.843 1.887 0 .644-.835 1.501-1.426 1.587-.542.079-.529-.167-.523-.275l.001-.025c0-.13.626-.687.696-.73.035-.042.104-.128-.07-.17l-.016-.006c-.188-.06-1.173-.38-4.4-.338h-.07v1.287c0 1.587 0 3.088-.035 4.332.835.257 1.739.385 2.643.428 4.382.086 6.504-2.445 6.538-5.06.035-4.546-6.329-10.165-14.815-10.808-2.544-.21-2.541.072-2.539.205v.01c0 .027.075.068.177.123.216.117.554.3.554.563 0 .214-.592.085-.8-.043-.174-.086-.696-.515-.696-.944 0-.343.313-1.2 3.791-1.072zm3.721 11.022c-2.399.171-3.791.729-3.86 1.672-.07.816 1.495 2.317 3.756 3.346 0-.944 0-1.93.035-2.788 0-.605.031-1.324.063-2.085l.006-.145zM40 5c-12.15 0-22 9.85-22 22s9.85 22 22 22 22-9.85 22-22S52.15 5 40 5zm12.538 26.234l.117-.101c.596-.729 1.073-1.559 1.533-2.362l.099-.17c.204-.353.414-.716.633-1.064a.277.277 0 00.029-.09c0-.064-.047-.13-.088-.166-.175-.072-.341.02-.495.128-.895.703-1.51 1.71-2.036 2.575l-.026.043-.048.1-.002.004c-.184.374-.375.76-.365 1.174.01.058.05.132.106.152.203.077.372-.072.534-.215l.009-.008zm-5.583-2.9c.119.559.734.762.769.739.193-.33.35-.699.452-1.074l.002-.024.003-.018c.013-.1.027-.209.027-.314 0-.183-.04-.353-.183-.447a.573.573 0 00-.506.091c-.327.19-.664.566-.564 1.047zm-1.666 2.712a.526.526 0 00.086.3c.523.596 1.777-1.117 2.143-1.916-.295-.125-.783-.422-.997-.886h-.002c-.514.648-1.241 1.838-1.23 2.502zm8.73.25c-.063.187.107.248.23.168.672-.388 1.212-1.19 1.641-1.828l.05-.074h.403l-.17.295c-.47.823-1.542 2.7-2.4 3.16-.038.02-.076.04-.114.062-.23.127-.444.245-.718.196-.464-.058-.397-1.289-.312-1.611-.078.08-.19.24-.322.43-.317.453-.75 1.074-1.111 1.17-.445.085-.938-.743-.777-1.848l-.156.194c-.728.903-1.64 2.035-2.158 1.406-.39-.477-.109-1.938.303-3.124l.154-.457c-.005-.004-.007-.004-.011-.004a3.526 3.526 0 01-.615.08.17.17 0 00-.033.002 33.43 33.43 0 00-.288.508c-.611 1.088-1.387 2.472-2.4 2.996-.173.088-.615.27-.966.094-.342-.19-.441-1.122-.375-1.711.092-.753.43-1.41.767-2.022.627-.966 1.498-2.138 2.662-2.613.26-.115.646-.186.957-.034.267.19.338.465.338.756 0 .135-.016.274-.034.41-.101.474-.304.912-.465 1.236.078.051.535-.054.652-.142 1.628-3.34 3.492-5.786 5.698-7.483l.018-.01c.091-.062.187-.134.285-.207.362-.272.762-.571 1.147-.499a.364.364 0 01.292.302c.08.484-.117 1.044-.313 1.406a4.17 4.17 0 01-.427.102l.182-.366c.13-.25.242-.471.228-.768-.037-.079-.081-.083-.116-.079-.322.065-.735.457-1.135.84l-.258.245c-1.64 1.609-3.569 4.972-3.867 5.677.673-.322 2.895-2.483 3.98-3.97.223-.007.412-.044.412-.044-.175.334-1.364 1.835-2.775 3.16a16.639 16.639 0 01-1.993 1.599c-.309.654-.615 1.376-.746 2.135-.016.104-.05.555.29.529.436-.096 1.224-1.372 1.224-1.372l.175-.271c.721-1.118 1.642-2.545 2.842-3.235.298-.165.731-.252 1.027-.069.068.044.236.248.29.339 0 0 .124-.213.181-.306H56.6l-1.788 3.21s-.633.966-.792 1.44zM40.15 24.887l-1.148-.049.629-1.059h1.131l-.612 1.108zm14.102-2.021c1.083.109 1.977-.203 2.84-.684 1.053-.586 1.765-1.385 1.765-1.385s-.487 1.02-1.438 1.829c-.898.803-2.508 1.646-4.028 1.266.27-.351.561-.694.861-1.026zm-8.706 2.206c.396-.095 1.922-1.003 2.101-3.028a.504.504 0 00-.015-.214c-.989.498-1.98 1.351-2.518 2.496-.367.85.192.793.432.746zm-1.77 1.574c.29-.016.563.14.677.384.253.521.09 1.206-.057 1.69-.608 1.63-1.907 3.64-3.266 4.296-.627.248-1.516.397-2.185-.29-.788-.81-.612-2.77-.29-3.698.419-1.378 1.204-2.774 2.471-4.39 1.723-2.063 3.429-3.359 5.16-3.846.48-.116 1.134-.156 1.533.271 0 0 .192-.064.403-.139.537-.19 1.493-.328 2.788.367l.057.03c.552.299 1.111.6 1.641.918l.342.207c-.236.22-.656.66-.912.952-.212-.09-.582-.316-.995-.569-.607-.37-1.309-.8-1.743-.94 0 0-.933-.421-1.389-.184.007.081.011.19.011.271 0 .67-.07 1.148-.36 1.754-.504.8-1.459 1.779-2.412 1.995-.207.014-.464-.007-.609-.264-.277-.494-.032-1.155.166-1.568.777-1.63 2.588-2.388 2.588-2.388-.284-.108-.613-.068-.966.108-1.738.844-3.098 2.307-4.268 3.848-1.136 1.66-1.928 3.117-2.112 4.828-.042.603.154 1.07.539 1.294.61.365 1.308-.11 1.78-.502a6.403 6.403 0 001.404-1.823c.466-.92.589-1.872.238-1.988-.4-.111-.757.308-.935.57-.472.63-.565 1.337-.565 1.337-.68.299-1.278.844-1.571 1.176.091-.739.23-1.203.484-1.765.485-1.095 1.408-1.857 2.352-1.942zm-14.617-.667l.23-.52c.079-.23.148-.48.148-.7a.63.63 0 00-.138-.426c-.162-.125-.44-.061-.62.06-.188.14-.612.523-.508 1.01.075.251.318.462.64.56l.102.016.012.003c.055.012.102.023.134-.003zm-.277.498c.006-.009.016-.04.016-.04a.165.165 0 00.02-.055c0-.006-.003-.01-.004-.01-.353-.101-.825-.321-1.076-.796 0-.004-.001-.006-.002-.007l-.001-.003a.055.055 0 00-.02.007c-.401.566-.813 1.175-1.072 1.866l-.032.102c-.09.285-.202.637.014.891.102.126.302.095.447.048.483-.246.87-.753 1.183-1.161l.009-.012.518-.83zm6.535-.635l-.037.05c-.933 1.232-1.233 2.124-1.259 2.415a.23.23 0 00.1.224c.066.047.164.04.223.023.415-.227.67-.552.923-.932 0 0 .18-.27.18-.267.413-.674.836-1.428 1.233-2.137.154-.274.304-.542.448-.795-.019-.149-.24-.36-.794.119-.156.135-.759.95-1.017 1.3zm-9.085-.08c1.152-1.51 2.589-2.391 3.305-1.93h-.001c.661.473.152 1.663-.01 2.044a2.81 2.81 0 00-.038.09c.257.064 1.06-.56 1.537-1.079.381-.413 1.136-.994 1.548-1.146.307-.146.782-.194 1.093-.011.21.12.245.412.259.67.041.717-.792 1.946-1.219 1.35-.088-.258-.01-.581.267-.866a.671.671 0 01.528-.2c.085-.132.063-.325-.07-.403-.142-.085-.426-.027-.686.172-.924.723-1.72 1.967-2.192 3.285-.083.247-.129.624.019.881.405.613 1.353-.24 1.353-.24.64-.56 1.256-1.334 1.741-2.021 1.259-1.788 2.887-3.47 3.626-2.467a.55.55 0 01.017.028.23.23 0 00.023.032l.14-.22h1.191l-2.482 4.443c-.052.104-.086.253 0 .323.068.048.188-.012.188-.012.591-.282 1.473-1.483 1.639-1.71l.028-.037h.41c-.175.253-.348.537-.527.832-.477.785-.997 1.64-1.716 2.137-.275.18-.752.483-1.11.357-.378-.233-.375-.924-.35-1.276l-.01.013c-.099.146-1.002 1.475-1.742 1.263-.26-.08-.646-.683-.338-1.734l.041-.166-.197.187c-.135.13-.274.275-.417.425-.64.67-1.366 1.43-2.224 1.289-.695-.212-.752-1.144-.774-1.511a2.064 2.064 0 00-.01-.115c-.082-.662.665-1.95.77-2.133a.89.89 0 00.014-.022 6.486 6.486 0 01-.598.142l-.285.462-.019.03c-.29.472-.59.96-.976 1.368l-.076.078c-.58.668-2.056 2.2-2.792 1.343-.495-.728.069-2.59 1.122-3.945zm2.914 5.4c3.071-.836 5.03-.887 6.433 0 .485.309.858.637 1.188.928.152.134.296.26.437.373-.903-.65-2.038-.917-2.813-.44-.777.477-1.147 1.25-1.147 1.25-1.256-2.245-5.426-1.318-6.172-1.142-.33.132-.652.304-.972.475-.573.305-1.14.607-1.73.668-1.31.108-2.453-1.065-2.981-2.04-.683-1.406-.227-3.134.277-4.34.875-1.998 2.42-3.824 4.351-5.143.883-.532 1.841-1.012 2.869-.954a.98.98 0 01.681.443c.334.647-.09 1.342-.377 1.704-.266.322-.884.444-.86-.142.018-.383.335-.667.45-.756a.846.846 0 01.438-.108c.104-.095.184-.759-.676-.542-1.122.346-1.972 1.206-2.889 2.209-1.642 1.927-2.566 3.665-2.908 5.47-.147 1.109.05 1.878.6 2.355 1.23.834 2.207.597 4.524.037.386-.094.81-.196 1.277-.304zM70 100c-9.389 0-17 7.611-17 17s7.611 17 17 17 17-7.611 17-17-7.611-17-17-17zm7.563 20.874c.115-.27.225-.551.33-.846a4.3 4.3 0 01-1.298-.826c-.853-.768-1.286-1.736-1.299-2.898-.013-1.492.684-2.655 2.093-3.485-.787-1.088-1.971-1.693-3.548-1.817-.582-.048-1.293.074-2.134.369-.89.317-1.415.476-1.57.476-.207 0-.68-.136-1.416-.405-.738-.267-1.332-.404-1.785-.404a4.7 4.7 0 00-2.307.634 4.713 4.713 0 00-1.707 1.678c-.543.882-.815 1.935-.815 3.155 0 1.066.201 2.166.603 3.303.375 1.053.853 1.977 1.435 2.772.543.745.996 1.272 1.358 1.579.568.513 1.135.756 1.706.733.375-.012.865-.138 1.474-.377.608-.238 1.176-.356 1.706-.356.505 0 1.057.118 1.658.356.6.239 1.114.357 1.541.357.595-.013 1.15-.25 1.669-.714.334-.281.768-.789 1.297-1.524a9.82 9.82 0 001.009-1.76zm-3.618-13.831c0-.121-.006-.243-.018-.364-.475.024-.982.164-1.517.417a4.18 4.18 0 00-1.324.966c-.696.765-1.087 1.701-1.087 2.576 0 .115.007.231.022.345 1.08.085 2.077-.455 2.9-1.391.682-.787 1.024-1.638 1.024-2.549z" fill="#fff"/></g><defs><clipPath id="clip0_39_1484"><path fill="#fff" transform="translate(-7 113)" d="M0 0h60v60H0z"/></clipPath><clipPath id="clip1_39_1484"><rect x="10" y="62" width="43" height="43" rx="21.5" fill="#fff"/></clipPath></defs></svg>