<svg width="318" height="62" fill="none" xmlns="http://www.w3.org/2000/svg"><g clip-path="url(#clip0_149_4334)" fill="#fff"><path d="M.5 56.943L6.31 62l13.876-15.47 2.51-2.324-6.574-3.654-5.08 4.465-3.969 4.856L.5 56.943zm34.292-.656l6.095-5.525L52.89 39.149l7.24-6.65 2.096-2.154-1.715-2.436 12.287-1.966-3.429 12.08-2.094-2.058-5.24 5.15-8.955 8.336-9.016 8.587-9.272-1.75z"/><path d="M16.598 39.077c3.048-2.364 6.095-.257 7.501.843 2.345 1.838 4.998 3.854 9.43 9.061 1.854 2.18 3.488 4.244 6.43 5.69 1.979.971 3.297 1.054 4.199.96 2.302-.223 3.71-1.674 3.875-1.474.047.059.062.339-4.93 4.714-1.613 1.418-2.115 1.827-3.015 2.124-2.118.695-4.072-.021-4.7-.25-1.325-.486-2.066-1.196-4-3.162-2.486-2.514-4.676-4.836-5.748-5.963-2.357-2.472-3.326-3.412-4.636-4.464-2.177-1.75-3.337-2.254-4.348-2.528-1.383-.375-2.864-.778-4.192-.127-.466.197-.943.365-1.43.502 0 0 2.598-3.625 5.564-5.926zM7.93 18.356h7.81v18.076L8.5 42.613l-.57-24.257zm16.002-10.49h7.43v34.126l-7.43-6.027V7.866zM39.46 0h7.428v40.552l-7.428 7.213V0z"/></g><g clip-path="url(#clip1_149_4334)" fill="#fff"><path d="M122.884 19.835h-10.468v27.95h-7.044v-27.95H95.044V14.24h27.84v5.595zm16.323 9.255a19.079 19.079 0 00-2.441-.184c-2.566 0-4.249.85-5.048 2.552v16.305h-6.796V22.878h6.408l.189 2.97c1.365-2.29 3.251-3.434 5.656-3.434a7.2 7.2 0 012.113.3l-.081 6.376zm17.264 18.673a7.323 7.323 0 01-.677-2.235 8.208 8.208 0 01-2.898 2.048 8.348 8.348 0 01-3.511.646 9.125 9.125 0 01-6.188-2.11 6.84 6.84 0 01-1.842-2.398 6.704 6.704 0 01-.61-2.943c0-2.637.998-4.662 2.995-6.075 1.996-1.413 4.88-2.127 8.65-2.141h3.119v-1.43a4.063 4.063 0 00-.903-2.762c-.603-.703-1.552-1.055-2.85-1.055a4.119 4.119 0 00-2.688.802 2.73 2.73 0 00-.748.996c-.169.384-.246.8-.225 1.218h-6.786c0-1.445.477-2.851 1.361-4.008a8.98 8.98 0 013.849-2.89 14.336 14.336 0 015.587-1.054c3.129 0 5.613.772 7.451 2.315 1.839 1.543 2.762 3.716 2.769 6.518v10.8c0 2.362.337 4.15 1.011 5.363v.395h-6.866zm-5.607-4.63a5.922 5.922 0 002.768-.654 4.366 4.366 0 001.877-1.76v-4.283h-2.532c-3.398 0-5.207 1.15-5.425 3.449v.396c-.013.384.061.766.215 1.12.154.353.385.669.677.926.672.562 1.538.85 2.42.806zm15.608-8.01c0-3.888.896-6.982 2.688-9.281a8.608 8.608 0 013.205-2.615 8.79 8.79 0 014.08-.84 7.91 7.91 0 013.38.678 7.77 7.77 0 012.75 2.044V12.4h6.806v35.363h-6.129l-.328-2.636a7.95 7.95 0 01-2.881 2.32 8.12 8.12 0 01-3.641.786 8.776 8.776 0 01-4.034-.863 8.599 8.599 0 01-3.165-2.602c-1.821-2.317-2.731-5.532-2.731-9.645zm6.785.496c0 2.334.414 4.124 1.242 5.368.38.599.915 1.088 1.551 1.417a4.12 4.12 0 002.067.455c2.097 0 3.576-.868 4.436-2.605v-9.85c-.846-1.734-2.31-2.602-4.393-2.606-3.269 0-4.903 2.607-4.903 7.82zm33.05 12.603c-3.724 0-6.757-1.121-9.097-3.364-2.341-2.243-3.509-5.231-3.506-8.965v-.643a14.754 14.754 0 011.479-6.713 10.688 10.688 0 014.188-4.557 11.896 11.896 0 016.183-1.582c3.473 0 6.208 1.076 8.205 3.228 1.996 2.151 2.995 5.197 2.995 9.138v2.716h-16.173a6.084 6.084 0 001.984 3.913 6.048 6.048 0 004.188 1.477c2.613 0 4.654-.93 6.124-2.79l3.334 3.66a10.138 10.138 0 01-4.13 3.306 13.768 13.768 0 01-5.774 1.176zm-.774-20.466a4.313 4.313 0 00-1.788.317 4.241 4.241 0 00-1.487 1.023 6.844 6.844 0 00-1.613 3.839h9.436v-.528a4.901 4.901 0 00-1.22-3.433 4.384 4.384 0 00-1.532-.956 4.45 4.45 0 00-1.796-.262zm42.555 15.768a12.152 12.152 0 01-5.376 3.464 22.853 22.853 0 01-7.7 1.234 15.5 15.5 0 01-7.78-1.898 12.752 12.752 0 01-5.161-5.516 19.002 19.002 0 01-1.866-8.496v-2.278a20.324 20.324 0 011.721-8.69 12.593 12.593 0 014.979-5.622 14.543 14.543 0 017.618-1.946c4.054 0 7.223.95 9.506 2.848 2.283 1.898 3.636 4.656 4.059 8.274h-6.855c-.312-1.92-1.003-3.326-2.075-4.219-1.076-.891-2.549-1.334-4.425-1.334-2.395 0-4.217.879-5.468 2.637-1.251 1.758-1.878 4.387-1.882 7.889v2.14c0 3.516.681 6.172 2.043 7.969 1.362 1.796 3.357 2.695 5.984 2.695 2.646 0 4.533-.554 5.662-1.661v-5.775h-6.431V30.15h13.442l.005 13.374zm19.98 4.239a7.155 7.155 0 01-.683-2.235 8.208 8.208 0 01-2.898 2.048 8.348 8.348 0 01-3.511.646 9.115 9.115 0 01-6.183-2.11 6.826 6.826 0 01-1.841-2.398 6.705 6.705 0 01-.611-2.943c0-2.637.997-4.662 2.99-6.075 1.992-1.413 4.876-2.127 8.65-2.141h3.124v-1.43a4.063 4.063 0 00-.903-2.762c-.602-.703-1.554-1.055-2.855-1.055a4.13 4.13 0 00-2.688.802 2.73 2.73 0 00-.748.996c-.169.384-.246.8-.225 1.218H252.9a6.599 6.599 0 011.366-4.008 8.913 8.913 0 013.85-2.89 14.281 14.281 0 015.586-1.054c3.129 0 5.613.772 7.452 2.315 1.839 1.543 2.758 3.71 2.758 6.502v10.8c0 2.363.337 4.15 1.011 5.363v.396l-6.855.015zm-5.613-4.63a5.922 5.922 0 002.768-.654 4.372 4.372 0 001.882-1.76v-4.283h-2.537c-3.398 0-5.205 1.15-5.42 3.449v.396a2.6 2.6 0 00.892 2.046 3.51 3.51 0 002.415.806zm24.791-26.409v6.154h4.339v4.878h-4.339v12.435a2.915 2.915 0 00.538 1.977c.358.401 1.046.602 2.064.602.669.008 1.337-.047 1.995-.164v5.041a14.153 14.153 0 01-4.108.602c-4.756 0-7.181-2.356-7.274-7.067V27.73h-3.71v-4.852h3.71v-6.154h6.785zm19.807 31.498c-3.72 0-6.753-1.121-9.097-3.364-2.344-2.243-3.513-5.231-3.505-8.965v-.643a14.821 14.821 0 011.478-6.713 10.697 10.697 0 014.189-4.557 11.907 11.907 0 016.188-1.582c3.473 0 6.206 1.076 8.199 3.228 1.993 2.151 2.991 5.197 2.995 9.138v2.716h-16.173a6.141 6.141 0 001.984 3.913 6.052 6.052 0 004.189 1.477 7.445 7.445 0 003.412-.66 7.297 7.297 0 002.717-2.13l3.333 3.66a10.177 10.177 0 01-4.134 3.306 13.773 13.773 0 01-5.775 1.176zm-.774-20.466a4.305 4.305 0 00-1.787.317 4.232 4.232 0 00-1.487 1.023 6.878 6.878 0 00-1.613 3.839h9.436v-.528a4.876 4.876 0 00-1.221-3.433 4.366 4.366 0 00-1.531-.957 4.437 4.437 0 00-1.797-.26z"/></g><defs><clipPath id="clip0_149_4334"><path fill="#fff" transform="translate(.5)" d="M0 0h72.298v62H0z"/></clipPath><clipPath id="clip1_149_4334"><path fill="#fff" transform="translate(95.044 12.4)" d="M0 0h222.456v35.822H0z"/></clipPath></defs></svg>